<?xml version="1.0" encoding="us-ascii" standalone="no"?><svg xmlns="http://www.w3.org/2000/svg" xmlns:xlink="http://www.w3.org/1999/xlink" contentStyleType="text/css" height="2291px" preserveAspectRatio="none" style="width:1208px;height:2291px;background:#FFFFFF;" version="1.1" viewBox="0 0 1208 2291" width="1208px" zoomAndPan="magnify"><defs/><g><text fill="#000000" font-family="sans-serif" font-size="14" font-weight="bold" lengthAdjust="spacing" textLength="222" x="494.5" y="29.5332">Integracja z dostawcami kursow</text><rect fill="none" height="1796.5859" style="stroke:#000000;stroke-width:1.5;" width="1192" x="10" y="271.625"/><rect fill="none" height="1399.0469" style="stroke:#000000;stroke-width:1.5;" width="795" x="20" y="327.3281"/><rect fill="none" height="237.9453" style="stroke:#000000;stroke-width:1.5;" width="684" x="30" y="1030.7031"/><rect fill="none" height="122.4063" style="stroke:#000000;stroke-width:1.5;" width="1011" x="30" y="1740.375"/><rect fill="none" height="154.0781" style="stroke:#000000;stroke-width:1.5;" width="1162" x="30" y="1907.1328"/><line style="stroke:#181818;stroke-width:0.5;stroke-dasharray:5.0,5.0;" x1="132" x2="132" y1="107.2188" y2="2211.6172"/><line style="stroke:#181818;stroke-width:0.5;stroke-dasharray:5.0,5.0;" x1="417" x2="417" y1="107.2188" y2="2211.6172"/><line style="stroke:#181818;stroke-width:0.5;stroke-dasharray:5.0,5.0;" x1="731" x2="731" y1="107.2188" y2="2211.6172"/><line style="stroke:#181818;stroke-width:0.5;stroke-dasharray:5.0,5.0;" x1="923" x2="923" y1="107.2188" y2="2211.6172"/><line style="stroke:#181818;stroke-width:0.5;stroke-dasharray:5.0,5.0;" x1="1111" x2="1111" y1="107.2188" y2="2211.6172"/><rect fill="#E2E2F0" height="31.6094" rx="2.5" ry="2.5" style="stroke:#181818;stroke-width:0.5;" width="184" x="40" y="74.6094"/><text fill="#000000" font-family="sans-serif" font-size="14" lengthAdjust="spacing" textLength="170" x="47" y="96.1426">ExchangeRateSyncService</text><rect fill="#E2E2F0" height="31.6094" rx="2.5" ry="2.5" style="stroke:#181818;stroke-width:0.5;" width="184" x="40" y="2210.6172"/><text fill="#000000" font-family="sans-serif" font-size="14" lengthAdjust="spacing" textLength="170" x="47" y="2232.1504">ExchangeRateSyncService</text><rect fill="#E2E2F0" height="31.6094" rx="2.5" ry="2.5" style="stroke:#181818;stroke-width:0.5;" width="196" x="319" y="74.6094"/><text fill="#000000" font-family="sans-serif" font-size="14" lengthAdjust="spacing" textLength="182" x="326" y="96.1426">IExternalExchangeRateClient</text><rect fill="#E2E2F0" height="31.6094" rx="2.5" ry="2.5" style="stroke:#181818;stroke-width:0.5;" width="196" x="319" y="2210.6172"/><text fill="#000000" font-family="sans-serif" font-size="14" lengthAdjust="spacing" textLength="182" x="326" y="2232.1504">IExternalExchangeRateClient</text><rect fill="#E2E2F0" height="31.6094" rx="2.5" ry="2.5" style="stroke:#181818;stroke-width:0.5;" width="148" x="657" y="74.6094"/><text fill="#000000" font-family="sans-serif" font-size="14" lengthAdjust="spacing" textLength="134" x="664" y="96.1426">Zewnetrzny dostawca</text><rect fill="#E2E2F0" height="31.6094" rx="2.5" ry="2.5" style="stroke:#181818;stroke-width:0.5;" width="148" x="657" y="2210.6172"/><text fill="#000000" font-family="sans-serif" font-size="14" lengthAdjust="spacing" textLength="134" x="664" y="2232.1504">Zewnetrzny dostawca</text><rect fill="#E2E2F0" height="31.6094" rx="2.5" ry="2.5" style="stroke:#181818;stroke-width:0.5;" width="216" x="815" y="74.6094"/><text fill="#000000" font-family="sans-serif" font-size="14" lengthAdjust="spacing" textLength="202" x="822" y="96.1426">ExchangeRateSpreadCalculator</text><rect fill="#E2E2F0" height="31.6094" rx="2.5" ry="2.5" style="stroke:#181818;stroke-width:0.5;" width="216" x="815" y="2210.6172"/><text fill="#000000" font-family="sans-serif" font-size="14" lengthAdjust="spacing" textLength="202" x="822" y="2232.1504">ExchangeRateSpreadCalculator</text><text fill="#000000" font-family="sans-serif" font-size="14" lengthAdjust="spacing" textLength="135" x="1041" y="104.1426">ApplicationDbContext</text><path d="M1093.5,53.6094 C1093.5,43.6094 1111.5,43.6094 1111.5,43.6094 C1111.5,43.6094 1129.5,43.6094 1129.5,53.6094 L1129.5,79.6094 C1129.5,89.6094 1111.5,89.6094 1111.5,89.6094 C1111.5,89.6094 1093.5,89.6094 1093.5,79.6094 L1093.5,53.6094 " fill="#E2E2F0" style="stroke:#181818;stroke-width:1.5;"/><path d="M1093.5,53.6094 C1093.5,63.6094 1111.5,63.6094 1111.5,63.6094 C1111.5,63.6094 1129.5,63.6094 1129.5,53.6094 " fill="none" style="stroke:#181818;stroke-width:1.5;"/><text fill="#000000" font-family="sans-serif" font-size="14" lengthAdjust="spacing" textLength="135" x="1041" y="2225.1504">ApplicationDbContext</text><path d="M1093.5,2238.2266 C1093.5,2228.2266 1111.5,2228.2266 1111.5,2228.2266 C1111.5,2228.2266 1129.5,2228.2266 1129.5,2238.2266 L1129.5,2264.2266 C1129.5,2274.2266 1111.5,2274.2266 1111.5,2274.2266 C1111.5,2274.2266 1093.5,2274.2266 1093.5,2264.2266 L1093.5,2238.2266 " fill="#E2E2F0" style="stroke:#181818;stroke-width:1.5;"/><path d="M1093.5,2238.2266 C1093.5,2248.2266 1111.5,2248.2266 1111.5,2248.2266 C1111.5,2248.2266 1129.5,2248.2266 1129.5,2238.2266 " fill="none" style="stroke:#181818;stroke-width:1.5;"/><line style="stroke:#181818;stroke-width:1.0;" x1="132" x2="174" y1="139.5703" y2="139.5703"/><line style="stroke:#181818;stroke-width:1.0;" x1="174" x2="174" y1="139.5703" y2="152.5703"/><line style="stroke:#181818;stroke-width:1.0;" x1="133" x2="174" y1="152.5703" y2="152.5703"/><polygon fill="#181818" points="143,148.5703,133,152.5703,143,156.5703,139,152.5703" style="stroke:#181818;stroke-width:1.0;"/><text fill="#000000" font-family="sans-serif" font-size="13" lengthAdjust="spacing" textLength="179" x="139" y="134.7139">wybierz klienta po SourceCode</text><line style="stroke:#181818;stroke-width:1.0;" x1="132" x2="174" y1="182.9219" y2="182.9219"/><line style="stroke:#181818;stroke-width:1.0;" x1="174" x2="174" y1="182.9219" y2="195.9219"/><line style="stroke:#181818;stroke-width:1.0;" x1="133" x2="174" y1="195.9219" y2="195.9219"/><polygon fill="#181818" points="143,191.9219,133,195.9219,143,199.9219,139,195.9219" style="stroke:#181818;stroke-width:1.0;"/><text fill="#000000" font-family="sans-serif" font-size="13" lengthAdjust="spacing" textLength="155" x="139" y="178.0654">przejmij blokade per zrodlo</text><polygon fill="#181818" points="1099.5,222.2734,1109.5,226.2734,1099.5,230.2734,1103.5,226.2734" style="stroke:#181818;stroke-width:1.0;"/><line style="stroke:#181818;stroke-width:1.0;" x1="132" x2="1105.5" y1="226.2734" y2="226.2734"/><text fill="#000000" font-family="sans-serif" font-size="13" lengthAdjust="spacing" textLength="173" x="139" y="221.417">znajdz lub utworz RateSource</text><polygon fill="#181818" points="1099.5,252.625,1109.5,256.625,1099.5,260.625,1103.5,256.625" style="stroke:#181818;stroke-width:1.0;"/><line style="stroke:#181818;stroke-width:1.0;" x1="132" x2="1105.5" y1="256.625" y2="256.625"/><text fill="#000000" font-family="sans-serif" font-size="13" lengthAdjust="spacing" textLength="252" x="139" y="251.7686">zaladuj Currency i istniejace ExchangeRate</text><path d="M10,271.625 L83,271.625 L83,279.9766 L73,289.9766 L10,289.9766 L10,271.625 " fill="#EEEEEE" style="stroke:#000000;stroke-width:1.5;"/><rect fill="none" height="1796.5859" style="stroke:#000000;stroke-width:1.5;" width="1192" x="10" y="271.625"/><text fill="#000000" font-family="sans-serif" font-size="13" font-weight="bold" lengthAdjust="spacing" textLength="28" x="25" y="286.1201">loop</text><text fill="#000000" font-family="sans-serif" font-size="11" font-weight="bold" lengthAdjust="spacing" textLength="181" x="98" y="285.0439">[zakresy wedlug MaxRangeDays]</text><polygon fill="#181818" points="405,308.3281,415,312.3281,405,316.3281,409,312.3281" style="stroke:#181818;stroke-width:1.0;"/><line style="stroke:#181818;stroke-width:1.0;" x1="132" x2="411" y1="312.3281" y2="312.3281"/><text fill="#000000" font-family="sans-serif" font-size="13" lengthAdjust="spacing" textLength="261" x="139" y="307.4717">GetBuySellRatesAsync(rangeFrom, rangeTo)</text><path d="M20,327.3281 L81,327.3281 L81,335.6797 L71,345.6797 L20,345.6797 L20,327.3281 " fill="#EEEEEE" style="stroke:#000000;stroke-width:1.5;"/><rect fill="none" height="1399.0469" style="stroke:#000000;stroke-width:1.5;" width="795" x="20" y="327.3281"/><text fill="#000000" font-family="sans-serif" font-size="13" font-weight="bold" lengthAdjust="spacing" textLength="16" x="35" y="341.8232">alt</text><text fill="#000000" font-family="sans-serif" font-size="11" font-weight="bold" lengthAdjust="spacing" textLength="76" x="96" y="340.7471">[NBP tabela C]</text><polygon fill="#181818" points="719,364.0313,729,368.0313,719,372.0313,723,368.0313" style="stroke:#181818;stroke-width:1.0;"/><line style="stroke:#181818;stroke-width:1.0;" x1="417" x2="725" y1="368.0313" y2="368.0313"/><text fill="#000000" font-family="sans-serif" font-size="13" lengthAdjust="spacing" textLength="109" x="424" y="363.1748">GET JSON table C</text><polygon fill="#181818" points="428,394.3828,418,398.3828,428,402.3828,424,398.3828" style="stroke:#181818;stroke-width:1.0;"/><line style="stroke:#181818;stroke-width:1.0;stroke-dasharray:2.0,2.0;" x1="422" x2="730" y1="398.3828" y2="398.3828"/><text fill="#000000" font-family="sans-serif" font-size="13" lengthAdjust="spacing" textLength="127" x="434" y="393.5264">bid, ask, effectiveDate</text><polygon fill="#181818" points="143,424.7344,133,428.7344,143,432.7344,139,428.7344" style="stroke:#181818;stroke-width:1.0;"/><line style="stroke:#181818;stroke-width:1.0;stroke-dasharray:2.0,2.0;" x1="137" x2="416" y1="428.7344" y2="428.7344"/><text fill="#000000" font-family="sans-serif" font-size="13" lengthAdjust="spacing" textLength="167" x="149" y="423.8779">BuyPrice=bid, SellPrice=ask</text><line style="stroke:#181818;stroke-width:1.0;" x1="132" x2="174" y1="459.0859" y2="459.0859"/><line style="stroke:#181818;stroke-width:1.0;" x1="174" x2="174" y1="459.0859" y2="472.0859"/><line style="stroke:#181818;stroke-width:1.0;" x1="133" x2="174" y1="472.0859" y2="472.0859"/><polygon fill="#181818" points="143,468.0859,133,472.0859,143,476.0859,139,472.0859" style="stroke:#181818;stroke-width:1.0;"/><text fill="#000000" font-family="sans-serif" font-size="13" lengthAdjust="spacing" textLength="203" x="139" y="454.2295">MidPrice = round((bid + ask) / 2, 4)</text><line style="stroke:#000000;stroke-width:1.0;stroke-dasharray:2.0,2.0;" x1="20" x2="815" y1="481.0859" y2="481.0859"/><text fill="#000000" font-family="sans-serif" font-size="11" font-weight="bold" lengthAdjust="spacing" textLength="29" x="25" y="492.5049">[ECB]</text><polygon fill="#181818" points="719,514.2734,729,518.2734,719,522.2734,723,518.2734" style="stroke:#181818;stroke-width:1.0;"/><line style="stroke:#181818;stroke-width:1.0;" x1="417" x2="725" y1="518.2734" y2="518.2734"/><text fill="#000000" font-family="sans-serif" font-size="13" lengthAdjust="spacing" textLength="129" x="424" y="513.417">GET eurofxref-hist.xml</text><polygon fill="#181818" points="428,544.625,418,548.625,428,552.625,424,548.625" style="stroke:#181818;stroke-width:1.0;"/><line style="stroke:#181818;stroke-width:1.0;stroke-dasharray:2.0,2.0;" x1="422" x2="730" y1="548.625" y2="548.625"/><text fill="#000000" font-family="sans-serif" font-size="13" lengthAdjust="spacing" textLength="125" x="434" y="543.7686">kursy wzgledem EUR</text><line style="stroke:#181818;stroke-width:1.0;" x1="417" x2="459" y1="578.9766" y2="578.9766"/><line style="stroke:#181818;stroke-width:1.0;" x1="459" x2="459" y1="578.9766" y2="591.9766"/><line style="stroke:#181818;stroke-width:1.0;" x1="418" x2="459" y1="591.9766" y2="591.9766"/><polygon fill="#181818" points="428,587.9766,418,591.9766,428,595.9766,424,591.9766" style="stroke:#181818;stroke-width:1.0;"/><text fill="#000000" font-family="sans-serif" font-size="13" lengthAdjust="spacing" textLength="278" x="424" y="574.1201">ReferenceRate = EUR_PLN / EUR_CURRENCY</text><polygon fill="#181818" points="143,618.3281,133,622.3281,143,626.3281,139,622.3281" style="stroke:#181818;stroke-width:1.0;"/><line style="stroke:#181818;stroke-width:1.0;stroke-dasharray:2.0,2.0;" x1="137" x2="416" y1="622.3281" y2="622.3281"/><text fill="#000000" font-family="sans-serif" font-size="13" lengthAdjust="spacing" textLength="127" x="149" y="617.4717">ReferenceRate w PLN</text><line style="stroke:#000000;stroke-width:1.0;stroke-dasharray:2.0,2.0;" x1="20" x2="815" y1="631.3281" y2="631.3281"/><text fill="#000000" font-family="sans-serif" font-size="11" font-weight="bold" lengthAdjust="spacing" textLength="61" x="25" y="642.7471">[RIKSBANK]</text><polygon fill="#181818" points="719,664.5156,729,668.5156,719,672.5156,723,668.5156" style="stroke:#181818;stroke-width:1.0;"/><line style="stroke:#181818;stroke-width:1.0;" x1="417" x2="725" y1="668.5156" y2="668.5156"/><text fill="#000000" font-family="sans-serif" font-size="13" lengthAdjust="spacing" textLength="245" x="424" y="663.6592">GET Observations/ByGroup/130/{from}/{to}</text><polygon fill="#181818" points="428,694.8672,418,698.8672,428,702.8672,424,698.8672" style="stroke:#181818;stroke-width:1.0;"/><line style="stroke:#181818;stroke-width:1.0;stroke-dasharray:2.0,2.0;" x1="422" x2="730" y1="698.8672" y2="698.8672"/><text fill="#000000" font-family="sans-serif" font-size="13" lengthAdjust="spacing" textLength="125" x="434" y="694.0107">kursy wzgledem SEK</text><line style="stroke:#181818;stroke-width:1.0;" x1="417" x2="459" y1="729.2188" y2="729.2188"/><line style="stroke:#181818;stroke-width:1.0;" x1="459" x2="459" y1="729.2188" y2="742.2188"/><line style="stroke:#181818;stroke-width:1.0;" x1="418" x2="459" y1="742.2188" y2="742.2188"/><polygon fill="#181818" points="428,738.2188,418,742.2188,428,746.2188,424,742.2188" style="stroke:#181818;stroke-width:1.0;"/><text fill="#000000" font-family="sans-serif" font-size="13" lengthAdjust="spacing" textLength="278" x="424" y="724.3623">ReferenceRate = SEK_CURRENCY / SEK_PLN</text><polygon fill="#181818" points="143,768.5703,133,772.5703,143,776.5703,139,772.5703" style="stroke:#181818;stroke-width:1.0;"/><line style="stroke:#181818;stroke-width:1.0;stroke-dasharray:2.0,2.0;" x1="137" x2="416" y1="772.5703" y2="772.5703"/><text fill="#000000" font-family="sans-serif" font-size="13" lengthAdjust="spacing" textLength="127" x="149" y="767.7139">ReferenceRate w PLN</text><line style="stroke:#000000;stroke-width:1.0;stroke-dasharray:2.0,2.0;" x1="20" x2="815" y1="781.5703" y2="781.5703"/><text fill="#000000" font-family="sans-serif" font-size="11" font-weight="bold" lengthAdjust="spacing" textLength="29" x="25" y="792.9893">[BOE]</text><polygon fill="#181818" points="719,814.7578,729,818.7578,719,822.7578,723,818.7578" style="stroke:#181818;stroke-width:1.0;"/><line style="stroke:#181818;stroke-width:1.0;" x1="417" x2="725" y1="818.7578" y2="818.7578"/><text fill="#000000" font-family="sans-serif" font-size="13" lengthAdjust="spacing" textLength="133" x="424" y="813.9014">GET eksport CSV spot</text><polygon fill="#181818" points="428,845.1094,418,849.1094,428,853.1094,424,849.1094" style="stroke:#181818;stroke-width:1.0;"/><line style="stroke:#181818;stroke-width:1.0;stroke-dasharray:2.0,2.0;" x1="422" x2="730" y1="849.1094" y2="849.1094"/><text fill="#000000" font-family="sans-serif" font-size="13" lengthAdjust="spacing" textLength="126" x="434" y="844.2529">kursy wzgledem GBP</text><line style="stroke:#181818;stroke-width:1.0;" x1="417" x2="459" y1="879.4609" y2="879.4609"/><line style="stroke:#181818;stroke-width:1.0;" x1="459" x2="459" y1="879.4609" y2="892.4609"/><line style="stroke:#181818;stroke-width:1.0;" x1="418" x2="459" y1="892.4609" y2="892.4609"/><polygon fill="#181818" points="428,888.4609,418,892.4609,428,896.4609,424,892.4609" style="stroke:#181818;stroke-width:1.0;"/><text fill="#000000" font-family="sans-serif" font-size="13" lengthAdjust="spacing" textLength="280" x="424" y="874.6045">ReferenceRate = GBP_PLN / GBP_CURRENCY</text><polygon fill="#181818" points="143,918.8125,133,922.8125,143,926.8125,139,922.8125" style="stroke:#181818;stroke-width:1.0;"/><line style="stroke:#181818;stroke-width:1.0;stroke-dasharray:2.0,2.0;" x1="137" x2="416" y1="922.8125" y2="922.8125"/><text fill="#000000" font-family="sans-serif" font-size="13" lengthAdjust="spacing" textLength="127" x="149" y="917.9561">ReferenceRate w PLN</text><line style="stroke:#000000;stroke-width:1.0;stroke-dasharray:2.0,2.0;" x1="20" x2="815" y1="931.8125" y2="931.8125"/><text fill="#000000" font-family="sans-serif" font-size="11" font-weight="bold" lengthAdjust="spacing" textLength="31" x="25" y="943.2314">[BOC]</text><polygon fill="#181818" points="719,981.3516,729,985.3516,719,989.3516,723,985.3516" style="stroke:#181818;stroke-width:1.0;"/><line style="stroke:#181818;stroke-width:1.0;" x1="417" x2="725" y1="985.3516" y2="985.3516"/><text fill="#000000" font-family="sans-serif" font-size="13" lengthAdjust="spacing" textLength="290" x="424" y="964.1436">GET observations/FXUSDCAD,...,FXPLNCAD/json</text><text fill="#000000" font-family="sans-serif" font-size="13" lengthAdjust="spacing" textLength="127" x="424" y="980.4951">?start_date&amp;end_date</text><polygon fill="#181818" points="428,1011.7031,418,1015.7031,428,1019.7031,424,1015.7031" style="stroke:#181818;stroke-width:1.0;"/><line style="stroke:#181818;stroke-width:1.0;stroke-dasharray:2.0,2.0;" x1="422" x2="730" y1="1015.7031" y2="1015.7031"/><text fill="#000000" font-family="sans-serif" font-size="13" lengthAdjust="spacing" textLength="158" x="434" y="1010.8467">observations[d][FX...CAD].v</text><path d="M30,1030.7031 L91,1030.7031 L91,1039.0547 L81,1049.0547 L30,1049.0547 L30,1030.7031 " fill="#EEEEEE" style="stroke:#000000;stroke-width:1.5;"/><rect fill="none" height="237.9453" style="stroke:#000000;stroke-width:1.5;" width="684" x="30" y="1030.7031"/><text fill="#000000" font-family="sans-serif" font-size="13" font-weight="bold" lengthAdjust="spacing" textLength="16" x="45" y="1045.1982">alt</text><text fill="#000000" font-family="sans-serif" font-size="11" font-weight="bold" lengthAdjust="spacing" textLength="138" x="106" y="1044.1221">[brak FXPLNCAD dla daty]</text><line style="stroke:#181818;stroke-width:1.0;" x1="417" x2="459" y1="1071.4063" y2="1071.4063"/><line style="stroke:#181818;stroke-width:1.0;" x1="459" x2="459" y1="1071.4063" y2="1084.4063"/><line style="stroke:#181818;stroke-width:1.0;" x1="418" x2="459" y1="1084.4063" y2="1084.4063"/><polygon fill="#181818" points="428,1080.4063,418,1084.4063,428,1088.4063,424,1084.4063" style="stroke:#181818;stroke-width:1.0;"/><text fill="#000000" font-family="sans-serif" font-size="13" lengthAdjust="spacing" textLength="92" x="424" y="1066.5498">pomin cala date</text><line style="stroke:#000000;stroke-width:1.0;stroke-dasharray:2.0,2.0;" x1="30" x2="714" y1="1093.4063" y2="1093.4063"/><text fill="#000000" font-family="sans-serif" font-size="11" font-weight="bold" lengthAdjust="spacing" textLength="121" x="35" y="1104.8252">[FXPLNCAD dostepne]</text><line style="stroke:#181818;stroke-width:1.0;" x1="417" x2="459" y1="1130.5938" y2="1130.5938"/><line style="stroke:#181818;stroke-width:1.0;" x1="459" x2="459" y1="1130.5938" y2="1143.5938"/><line style="stroke:#181818;stroke-width:1.0;" x1="418" x2="459" y1="1143.5938" y2="1143.5938"/><polygon fill="#181818" points="428,1139.5938,418,1143.5938,428,1147.5938,424,1143.5938" style="stroke:#181818;stroke-width:1.0;"/><text fill="#000000" font-family="sans-serif" font-size="13" lengthAdjust="spacing" textLength="278" x="424" y="1125.7373">ReferenceRate = CURRENCY_CAD / PLN_CAD</text><line style="stroke:#181818;stroke-width:1.0;" x1="417" x2="459" y1="1173.9453" y2="1173.9453"/><line style="stroke:#181818;stroke-width:1.0;" x1="459" x2="459" y1="1173.9453" y2="1186.9453"/><line style="stroke:#181818;stroke-width:1.0;" x1="418" x2="459" y1="1186.9453" y2="1186.9453"/><polygon fill="#181818" points="428,1182.9453,418,1186.9453,428,1190.9453,424,1186.9453" style="stroke:#181818;stroke-width:1.0;"/><text fill="#000000" font-family="sans-serif" font-size="13" lengthAdjust="spacing" textLength="231" x="424" y="1169.0889">dla CAD ReferenceRate = 1 / PLN_CAD</text><line style="stroke:#181818;stroke-width:1.0;" x1="417" x2="459" y1="1217.2969" y2="1217.2969"/><line style="stroke:#181818;stroke-width:1.0;" x1="459" x2="459" y1="1217.2969" y2="1230.2969"/><line style="stroke:#181818;stroke-width:1.0;" x1="418" x2="459" y1="1230.2969" y2="1230.2969"/><polygon fill="#181818" points="428,1226.2969,418,1230.2969,428,1234.2969,424,1230.2969" style="stroke:#181818;stroke-width:1.0;"/><text fill="#000000" font-family="sans-serif" font-size="13" lengthAdjust="spacing" textLength="161" x="424" y="1212.4404">pomin brakujace serie walut</text><polygon fill="#181818" points="143,1256.6484,133,1260.6484,143,1264.6484,139,1260.6484" style="stroke:#181818;stroke-width:1.0;"/><line style="stroke:#181818;stroke-width:1.0;stroke-dasharray:2.0,2.0;" x1="137" x2="416" y1="1260.6484" y2="1260.6484"/><text fill="#000000" font-family="sans-serif" font-size="13" lengthAdjust="spacing" textLength="127" x="149" y="1255.792">ReferenceRate w PLN</text><line style="stroke:#000000;stroke-width:1.0;stroke-dasharray:2.0,2.0;" x1="20" x2="815" y1="1276.6484" y2="1276.6484"/><text fill="#000000" font-family="sans-serif" font-size="11" font-weight="bold" lengthAdjust="spacing" textLength="30" x="25" y="1288.0674">[CNB]</text><polygon fill="#181818" points="719,1309.8359,729,1313.8359,719,1317.8359,723,1313.8359" style="stroke:#181818;stroke-width:1.0;"/><line style="stroke:#181818;stroke-width:1.0;" x1="417" x2="725" y1="1313.8359" y2="1313.8359"/><text fill="#000000" font-family="sans-serif" font-size="13" lengthAdjust="spacing" textLength="156" x="424" y="1308.9795">GET exrates/daily?date=...</text><polygon fill="#181818" points="428,1340.1875,418,1344.1875,428,1348.1875,424,1344.1875" style="stroke:#181818;stroke-width:1.0;"/><line style="stroke:#181818;stroke-width:1.0;stroke-dasharray:2.0,2.0;" x1="422" x2="730" y1="1344.1875" y2="1344.1875"/><text fill="#000000" font-family="sans-serif" font-size="13" lengthAdjust="spacing" textLength="118" x="434" y="1339.3311">amount i rate w CZK</text><line style="stroke:#181818;stroke-width:1.0;" x1="417" x2="459" y1="1374.5391" y2="1374.5391"/><line style="stroke:#181818;stroke-width:1.0;" x1="459" x2="459" y1="1374.5391" y2="1387.5391"/><line style="stroke:#181818;stroke-width:1.0;" x1="418" x2="459" y1="1387.5391" y2="1387.5391"/><polygon fill="#181818" points="428,1383.5391,418,1387.5391,428,1391.5391,424,1387.5391" style="stroke:#181818;stroke-width:1.0;"/><text fill="#000000" font-family="sans-serif" font-size="13" lengthAdjust="spacing" textLength="268" x="424" y="1369.6826">ReferenceRate = CurrencyToCZK / PLNToCZK</text><polygon fill="#181818" points="143,1413.8906,133,1417.8906,143,1421.8906,139,1417.8906" style="stroke:#181818;stroke-width:1.0;"/><line style="stroke:#181818;stroke-width:1.0;stroke-dasharray:2.0,2.0;" x1="137" x2="416" y1="1417.8906" y2="1417.8906"/><text fill="#000000" font-family="sans-serif" font-size="13" lengthAdjust="spacing" textLength="127" x="149" y="1413.0342">ReferenceRate w PLN</text><line style="stroke:#000000;stroke-width:1.0;stroke-dasharray:2.0,2.0;" x1="20" x2="815" y1="1426.8906" y2="1426.8906"/><text fill="#000000" font-family="sans-serif" font-size="11" font-weight="bold" lengthAdjust="spacing" textLength="51" x="25" y="1438.3096">[NORGES]</text><polygon fill="#181818" points="719,1460.0781,729,1464.0781,719,1468.0781,723,1464.0781" style="stroke:#181818;stroke-width:1.0;"/><line style="stroke:#181818;stroke-width:1.0;" x1="417" x2="725" y1="1464.0781" y2="1464.0781"/><text fill="#000000" font-family="sans-serif" font-size="13" lengthAdjust="spacing" textLength="133" x="424" y="1459.2217">GET SDMX-JSON EXR</text><polygon fill="#181818" points="428,1490.4297,418,1494.4297,428,1498.4297,424,1494.4297" style="stroke:#181818;stroke-width:1.0;"/><line style="stroke:#181818;stroke-width:1.0;stroke-dasharray:2.0,2.0;" x1="422" x2="730" y1="1494.4297" y2="1494.4297"/><text fill="#000000" font-family="sans-serif" font-size="13" lengthAdjust="spacing" textLength="99" x="434" y="1489.5732">unit i rate w NOK</text><line style="stroke:#181818;stroke-width:1.0;" x1="417" x2="459" y1="1524.7813" y2="1524.7813"/><line style="stroke:#181818;stroke-width:1.0;" x1="459" x2="459" y1="1524.7813" y2="1537.7813"/><line style="stroke:#181818;stroke-width:1.0;" x1="418" x2="459" y1="1537.7813" y2="1537.7813"/><polygon fill="#181818" points="428,1533.7813,418,1537.7813,428,1541.7813,424,1537.7813" style="stroke:#181818;stroke-width:1.0;"/><text fill="#000000" font-family="sans-serif" font-size="13" lengthAdjust="spacing" textLength="274" x="424" y="1519.9248">ReferenceRate = CurrencyToNOK / PLNToNOK</text><polygon fill="#181818" points="143,1564.1328,133,1568.1328,143,1572.1328,139,1568.1328" style="stroke:#181818;stroke-width:1.0;"/><line style="stroke:#181818;stroke-width:1.0;stroke-dasharray:2.0,2.0;" x1="137" x2="416" y1="1568.1328" y2="1568.1328"/><text fill="#000000" font-family="sans-serif" font-size="13" lengthAdjust="spacing" textLength="127" x="149" y="1563.2764">ReferenceRate w PLN</text><line style="stroke:#000000;stroke-width:1.0;stroke-dasharray:2.0,2.0;" x1="20" x2="815" y1="1577.1328" y2="1577.1328"/><text fill="#000000" font-family="sans-serif" font-size="11" font-weight="bold" lengthAdjust="spacing" textLength="29" x="25" y="1588.5518">[BNR]</text><polygon fill="#181818" points="719,1610.3203,729,1614.3203,719,1618.3203,723,1614.3203" style="stroke:#181818;stroke-width:1.0;"/><line style="stroke:#181818;stroke-width:1.0;" x1="417" x2="725" y1="1614.3203" y2="1614.3203"/><text fill="#000000" font-family="sans-serif" font-size="13" lengthAdjust="spacing" textLength="145" x="424" y="1609.4639">GET nbrfxrates{year}.xml</text><polygon fill="#181818" points="428,1640.6719,418,1644.6719,428,1648.6719,424,1644.6719" style="stroke:#181818;stroke-width:1.0;"/><line style="stroke:#181818;stroke-width:1.0;stroke-dasharray:2.0,2.0;" x1="422" x2="730" y1="1644.6719" y2="1644.6719"/><text fill="#000000" font-family="sans-serif" font-size="13" lengthAdjust="spacing" textLength="130" x="434" y="1639.8154">multiplier i rate w RON</text><line style="stroke:#181818;stroke-width:1.0;" x1="417" x2="459" y1="1675.0234" y2="1675.0234"/><line style="stroke:#181818;stroke-width:1.0;" x1="459" x2="459" y1="1675.0234" y2="1688.0234"/><line style="stroke:#181818;stroke-width:1.0;" x1="418" x2="459" y1="1688.0234" y2="1688.0234"/><polygon fill="#181818" points="428,1684.0234,418,1688.0234,428,1692.0234,424,1688.0234" style="stroke:#181818;stroke-width:1.0;"/><text fill="#000000" font-family="sans-serif" font-size="13" lengthAdjust="spacing" textLength="274" x="424" y="1670.167">ReferenceRate = CurrencyToRON / PLNToRON</text><polygon fill="#181818" points="143,1714.375,133,1718.375,143,1722.375,139,1718.375" style="stroke:#181818;stroke-width:1.0;"/><line style="stroke:#181818;stroke-width:1.0;stroke-dasharray:2.0,2.0;" x1="137" x2="416" y1="1718.375" y2="1718.375"/><text fill="#000000" font-family="sans-serif" font-size="13" lengthAdjust="spacing" textLength="127" x="149" y="1713.5186">ReferenceRate w PLN</text><path d="M30,1740.375 L95,1740.375 L95,1748.7266 L85,1758.7266 L30,1758.7266 L30,1740.375 " fill="#EEEEEE" style="stroke:#000000;stroke-width:1.5;"/><rect fill="none" height="122.4063" style="stroke:#000000;stroke-width:1.5;" width="1011" x="30" y="1740.375"/><text fill="#000000" font-family="sans-serif" font-size="13" font-weight="bold" lengthAdjust="spacing" textLength="20" x="45" y="1754.8701">opt</text><text fill="#000000" font-family="sans-serif" font-size="11" font-weight="bold" lengthAdjust="spacing" textLength="83" x="110" y="1753.7939">[source != NBP]</text><polygon fill="#181818" points="911,1777.0781,921,1781.0781,911,1785.0781,915,1781.0781" style="stroke:#181818;stroke-width:1.0;"/><line style="stroke:#181818;stroke-width:1.0;" x1="132" x2="917" y1="1781.0781" y2="1781.0781"/><text fill="#000000" font-family="sans-serif" font-size="13" lengthAdjust="spacing" textLength="286" x="139" y="1776.2217">CalculateSyntheticBidAsk(referenceRate, spread)</text><polygon fill="#181818" points="143,1807.4297,133,1811.4297,143,1815.4297,139,1811.4297" style="stroke:#181818;stroke-width:1.0;"/><line style="stroke:#181818;stroke-width:1.0;stroke-dasharray:2.0,2.0;" x1="137" x2="922" y1="1811.4297" y2="1811.4297"/><text fill="#000000" font-family="sans-serif" font-size="13" lengthAdjust="spacing" textLength="172" x="149" y="1806.5732">BuyPrice &lt; SellPrice, round 4</text><line style="stroke:#181818;stroke-width:1.0;" x1="132" x2="174" y1="1841.7813" y2="1841.7813"/><line style="stroke:#181818;stroke-width:1.0;" x1="174" x2="174" y1="1841.7813" y2="1854.7813"/><line style="stroke:#181818;stroke-width:1.0;" x1="133" x2="174" y1="1854.7813" y2="1854.7813"/><polygon fill="#181818" points="143,1850.7813,133,1854.7813,143,1858.7813,139,1854.7813" style="stroke:#181818;stroke-width:1.0;"/><text fill="#000000" font-family="sans-serif" font-size="13" lengthAdjust="spacing" textLength="202" x="139" y="1836.9248">MidPrice = round(referenceRate, 4)</text><polygon fill="#181818" points="1099.5,1888.1328,1109.5,1892.1328,1099.5,1896.1328,1103.5,1892.1328" style="stroke:#181818;stroke-width:1.0;"/><line style="stroke:#181818;stroke-width:1.0;" x1="132" x2="1105.5" y1="1892.1328" y2="1892.1328"/><text fill="#000000" font-family="sans-serif" font-size="13" lengthAdjust="spacing" textLength="157" x="139" y="1887.2764">znajdz lub utworz Currency</text><path d="M30,1907.1328 L91,1907.1328 L91,1915.4844 L81,1925.4844 L30,1925.4844 L30,1907.1328 " fill="#EEEEEE" style="stroke:#000000;stroke-width:1.5;"/><rect fill="none" height="154.0781" style="stroke:#000000;stroke-width:1.5;" width="1162" x="30" y="1907.1328"/><text fill="#000000" font-family="sans-serif" font-size="13" font-weight="bold" lengthAdjust="spacing" textLength="16" x="45" y="1921.6279">alt</text><text fill="#000000" font-family="sans-serif" font-size="11" font-weight="bold" lengthAdjust="spacing" textLength="211" x="106" y="1920.5518">[nowy klucz Currency + Source + Date]</text><polygon fill="#181818" points="1099.5,1943.8359,1109.5,1947.8359,1099.5,1951.8359,1103.5,1947.8359" style="stroke:#181818;stroke-width:1.0;"/><line style="stroke:#181818;stroke-width:1.0;" x1="132" x2="1105.5" y1="1947.8359" y2="1947.8359"/><text fill="#000000" font-family="sans-serif" font-size="13" lengthAdjust="spacing" textLength="135" x="139" y="1942.9795">INSERT ExchangeRate</text><line style="stroke:#000000;stroke-width:1.0;stroke-dasharray:2.0,2.0;" x1="30" x2="1192" y1="1956.8359" y2="1956.8359"/><text fill="#000000" font-family="sans-serif" font-size="11" font-weight="bold" lengthAdjust="spacing" textLength="158" x="35" y="1968.2549">[istniejacy kurs syntetyczny]</text><polygon fill="#181818" points="1099.5,1990.0234,1109.5,1994.0234,1099.5,1998.0234,1103.5,1994.0234" style="stroke:#181818;stroke-width:1.0;"/><line style="stroke:#181818;stroke-width:1.0;" x1="132" x2="1105.5" y1="1994.0234" y2="1994.0234"/><text fill="#000000" font-family="sans-serif" font-size="13" lengthAdjust="spacing" textLength="228" x="139" y="1989.167">UPDATE BuyPrice, MidPrice, SellPrice</text><line style="stroke:#000000;stroke-width:1.0;stroke-dasharray:2.0,2.0;" x1="30" x2="1192" y1="2003.0234" y2="2003.0234"/><text fill="#000000" font-family="sans-serif" font-size="11" font-weight="bold" lengthAdjust="spacing" textLength="113" x="35" y="2014.4424">[istniejacy kurs NBP]</text><line style="stroke:#181818;stroke-width:1.0;" x1="132" x2="174" y1="2040.2109" y2="2040.2109"/><line style="stroke:#181818;stroke-width:1.0;" x1="174" x2="174" y1="2040.2109" y2="2053.2109"/><line style="stroke:#181818;stroke-width:1.0;" x1="133" x2="174" y1="2053.2109" y2="2053.2109"/><polygon fill="#181818" points="143,2049.2109,133,2053.2109,143,2057.2109,139,2053.2109" style="stroke:#181818;stroke-width:1.0;"/><text fill="#000000" font-family="sans-serif" font-size="13" lengthAdjust="spacing" textLength="188" x="139" y="2035.3545">pomin bez nadpisywania bid/ask</text><polygon fill="#181818" points="1099.5,2093.5625,1109.5,2097.5625,1099.5,2101.5625,1103.5,2097.5625" style="stroke:#181818;stroke-width:1.0;"/><line style="stroke:#181818;stroke-width:1.0;" x1="132" x2="1105.5" y1="2097.5625" y2="2097.5625"/><text fill="#000000" font-family="sans-serif" font-size="13" lengthAdjust="spacing" textLength="124" x="139" y="2092.7061">SaveChangesAsync()</text><line style="stroke:#181818;stroke-width:1.0;" x1="132" x2="174" y1="2127.9141" y2="2127.9141"/><line style="stroke:#181818;stroke-width:1.0;" x1="174" x2="174" y1="2127.9141" y2="2140.9141"/><line style="stroke:#181818;stroke-width:1.0;" x1="133" x2="174" y1="2140.9141" y2="2140.9141"/><polygon fill="#181818" points="143,2136.9141,133,2140.9141,143,2144.9141,139,2140.9141" style="stroke:#181818;stroke-width:1.0;"/><text fill="#000000" font-family="sans-serif" font-size="13" lengthAdjust="spacing" textLength="163" x="139" y="2123.0576">zwolnij blokade SourceCode</text><path d="M333,2153.9141 L333,2195.9141 L814,2195.9141 L814,2163.9141 L804,2153.9141 L333,2153.9141 " fill="#FEFFDD" style="stroke:#181818;stroke-width:0.5;"/><path d="M804,2153.9141 L804,2163.9141 L814,2163.9141 L804,2153.9141 " fill="#FEFFDD" style="stroke:#181818;stroke-width:0.5;"/><text fill="#000000" font-family="sans-serif" font-size="13" lengthAdjust="spacing" textLength="333" x="402.5" y="2172.4092">Blad pojedynczego zakresu jest zapisywany jako warning</text><text fill="#000000" font-family="sans-serif" font-size="13" lengthAdjust="spacing" textLength="304" x="402.5" y="2188.7607">i nie przerywa synchronizacji pozostalych zakresow.</text><!--SRC=[dLTTS-es47tdLsppq4cc17hR-vHfUWUCaqdJ06CddVJUtia8Uqa4GlB8Cc1dyj-xai4nD13IfyXepz6UNNsS66u4mfKq-AXPD65GGAnImnOHct6OPZfLYqOZOThmY2TC6ZZobz4JauyOC8DXBgCGzPn7U0Gi1Vkz6NtbBmrgoKGTvWcEqZX4ETp4VCM5HACBcLV9kDYXLdCUezwJJwAHnHuJKIQOKRfSelfinCom4KiHZZf98dZ435UoD_8K5M1P9jGRDHfM1fp-xkISmI8VSTG5J5sg3185eSfqX9wASIisqGLEPdm28w6cB4P8K4EXLInK5TaRdK4XsIGkG6GZoCn24RjBtz5k1ZB1ucm2NgOroYW73ZmrakE4HGXrxOs6K2eXm5HZciC2Ov4zmWrR1ZQYn_Aq0R2cBij-1fTekbaUeX2M8ksaD7-iBU12graJtF1MdJG8ouI1VdS8L48K33pw2LP4bdBT7IBrR-6FSD2taRIxoi3rD9pMbX_nk4b5dpO1nsEC39zJeYIbpbpLbX8TQjffvmvbSou_2Uy0cvsuuR6RXdFGAfFnyJ71u2UxsWcquPScV3uX60hQ3RxNtIi6Cwt6IutZqoSgVciv4xibsJD3rIyU1SOu0_yksA9U1mOuHjjIrppAaY8VXd_sAJSxykw2mEzxVxzTYati0WYtrX9SNOVTJlzwhw31AALJwtP_skxcbrIXfFtfrv_RpsDg-qlxsQYNWoM6_lM14Yco4aOwxMUP-SSaTWV-_dPDqqHf0rxu5z387ApaiZiyK0b5hffbH_-xMTt1_bEawdswkByBUrwdrsorMisBUwAXZ_OaLV8V-OMkIMqUw7x37r76Rh1RTftsM_pzsyKzKHBPzzRSWUn97sasXVKg4DE19yxSJRzLe4JDk8I8bN7bsaxYAmLTvPX8t4cnNUDrLHyikctBPaSxuJP56xbDy-a0R9czbPovUvNAmwbLJ6Hc2_DELqcqZDVTzVhlN2jBRI_TTiouoB_OifrJ7tQtZSte8ZFq0kXoIU_heGTl_NhSAiAKzN333s_O_Y2uzCEzgiBUpVsfk_xz-s2tc4pocfJ-uEDI2BEMiWq_wEprWxqwv4YFomOzvyZqo_vhVvO9mybIqC-Lg63G_x0emgn5RSFV4qKRZ_wen43gV0JyS6xVwustyTKBdLLZw-BC4vAZwlAuaqwFTPs_ILUeDLKdPIuL_es76NvxVPMRvQiBdmzvchSMB1_cKiv-qxIksygTIBN8oQPbqUiClVYbgw91PItgf5Vzq0zkDvtKQeTKHYjt3mMGEJ9eyeYCwNzexeQzpgrVbQ9PYQmvbLsysqrQMSdoJi8298iJdkOB9ZcpbgbTEXvR8LUbUXuXcwFdbApCtCcMGoqMIiYQGQrPsOPKj9_KdFPmkUUQhvQxIpQKKffWJ2m5FggLqSnWWgcXZrM6EKpOLD7LgIMNZmqEfDIvOaspjeBHarQI5_JF1YU-mlfxaKTFApgrQ5bDO3Fv5m00]--></g></svg>