<?xml version="1.0" encoding="us-ascii" standalone="no"?><svg xmlns="http://www.w3.org/2000/svg" xmlns:xlink="http://www.w3.org/1999/xlink" contentStyleType="text/css" height="1218px" preserveAspectRatio="none" style="width:2167px;height:1218px;background:#FFFFFF;" version="1.1" viewBox="0 0 2167 1218" width="2167px" zoomAndPan="magnify"><defs/><g><text fill="#000000" font-family="sans-serif" font-size="14" font-weight="bold" lengthAdjust="spacing" textLength="253" x="950" y="24.5332">Kursy walut - diagram komponentow</text><!--cluster Frontend Angular--><g id="cluster_Frontend Angular"><path d="M123.5,629.6094 L247.5,629.6094 A3.75,3.75 0 0 1 250,632.1094 L257,653.2188 L572.5,653.2188 A2.5,2.5 0 0 1 575,655.7188 L575,717.1094 A2.5,2.5 0 0 1 572.5,719.6094 L123.5,719.6094 A2.5,2.5 0 0 1 121,717.1094 L121,632.1094 A2.5,2.5 0 0 1 123.5,629.6094 " fill="none" style="stroke:#000000;stroke-width:1.5;"/><line style="stroke:#000000;stroke-width:1.5;" x1="121" x2="257" y1="653.2188" y2="653.2188"/><text fill="#000000" font-family="sans-serif" font-size="14" font-weight="bold" lengthAdjust="spacing" textLength="123" x="125" y="646.1426">Frontend Angular</text></g><!--cluster GieudexPol.API--><g id="cluster_GieudexPol.API"><path d="M764.5,556.6094 L872.5,556.6094 A3.75,3.75 0 0 1 875,559.1094 L882,580.2188 L1027.5,580.2188 A2.5,2.5 0 0 1 1030,582.7188 L1030,808.1094 A2.5,2.5 0 0 1 1027.5,810.6094 L764.5,810.6094 A2.5,2.5 0 0 1 762,808.1094 L762,559.1094 A2.5,2.5 0 0 1 764.5,556.6094 " fill="none" style="stroke:#000000;stroke-width:1.5;"/><line style="stroke:#000000;stroke-width:1.5;" x1="762" x2="882" y1="580.2188" y2="580.2188"/><text fill="#000000" font-family="sans-serif" font-size="14" font-weight="bold" lengthAdjust="spacing" textLength="107" x="766" y="573.1426">GieudexPol.API</text></g><!--cluster GieudexPol.Application--><g id="cluster_GieudexPol.Application"><path d="M1065.5,44.6094 L1229.5,44.6094 A3.75,3.75 0 0 1 1232,47.1094 L1239,68.2188 L1314.5,68.2188 A2.5,2.5 0 0 1 1317,70.7188 L1317,585.1094 A2.5,2.5 0 0 1 1314.5,587.6094 L1065.5,587.6094 A2.5,2.5 0 0 1 1063,585.1094 L1063,47.1094 A2.5,2.5 0 0 1 1065.5,44.6094 " fill="none" style="stroke:#000000;stroke-width:1.5;"/><line style="stroke:#000000;stroke-width:1.5;" x1="1063" x2="1239" y1="68.2188" y2="68.2188"/><text fill="#000000" font-family="sans-serif" font-size="14" font-weight="bold" lengthAdjust="spacing" textLength="163" x="1067" y="61.1426">GieudexPol.Application</text></g><!--cluster GieudexPol.Infrastructure--><g id="cluster_GieudexPol.Infrastructure"><path d="M1522.5,308.6094 L1705.5,308.6094 A3.75,3.75 0 0 1 1708,311.1094 L1715,332.2188 L1989.5,332.2188 A2.5,2.5 0 0 1 1992,334.7188 L1992,1126.1094 A2.5,2.5 0 0 1 1989.5,1128.6094 L1522.5,1128.6094 A2.5,2.5 0 0 1 1520,1126.1094 L1520,311.1094 A2.5,2.5 0 0 1 1522.5,308.6094 " fill="none" style="stroke:#000000;stroke-width:1.5;"/><line style="stroke:#000000;stroke-width:1.5;" x1="1520" x2="1715" y1="332.2188" y2="332.2188"/><text fill="#000000" font-family="sans-serif" font-size="14" font-weight="bold" lengthAdjust="spacing" textLength="182" x="1524" y="325.1426">GieudexPol.Infrastructure</text></g><!--entity Dashboard--><g id="elem_Dashboard"><rect fill="#F1F1F1" height="37.6094" rx="2.5" ry="2.5" style="stroke:#181818;stroke-width:0.5;" width="182" x="137" y="665.6094"/><text fill="#000000" font-family="sans-serif" font-size="14" lengthAdjust="spacing" textLength="162" x="147" y="690.1426">ExchangeRateDashboard</text></g><!--entity FrontApi--><g id="elem_FrontApi"><rect fill="#F1F1F1" height="37.6094" rx="2.5" ry="2.5" style="stroke:#181818;stroke-width:0.5;" width="179" x="380" y="665.6094"/><text fill="#000000" font-family="sans-serif" font-size="14" lengthAdjust="spacing" textLength="159" x="390" y="690.1426">ExchangeRateApiService</text></g><!--entity Controller--><g id="elem_Controller"><rect fill="#F1F1F1" height="37.6094" rx="2.5" ry="2.5" style="stroke:#181818;stroke-width:0.5;" width="181" x="805.5" y="665.6094"/><text fill="#000000" font-family="sans-serif" font-size="14" lengthAdjust="spacing" textLength="161" x="815.5" y="690.1426">ExchangeRatesController</text></g><!--entity StartupSync--><g id="elem_StartupSync"><rect fill="#F1F1F1" height="37.6094" rx="2.5" ry="2.5" style="stroke:#181818;stroke-width:0.5;" width="236" x="778" y="592.6094"/><text fill="#000000" font-family="sans-serif" font-size="14" lengthAdjust="spacing" textLength="216" x="788" y="617.1426">ExchangeRateStartupSyncService</text></g><!--entity DI--><g id="elem_DI"><rect fill="#F1F1F1" height="55.2188" rx="2.5" ry="2.5" style="stroke:#181818;stroke-width:0.5;" width="156" x="818" y="739.1094"/><text fill="#000000" font-family="sans-serif" font-size="14" lengthAdjust="spacing" textLength="136" x="828" y="763.6426">Dependency Injection</text><text fill="#000000" font-family="sans-serif" font-size="14" lengthAdjust="spacing" textLength="112" x="828" y="781.252">IHttpClientFactory</text></g><!--entity ReadPort--><g id="elem_ReadPort"><ellipse cx="1190" cy="446.6094" fill="#F1F1F1" rx="8" ry="8" style="stroke:#181818;stroke-width:0.5;"/><text fill="#000000" font-family="sans-serif" font-size="14" lengthAdjust="spacing" textLength="142" x="1119" y="478.1426">IExchangeRateService</text></g><!--entity SyncPort--><g id="elem_SyncPort"><ellipse cx="1190" cy="256.6094" fill="#F1F1F1" rx="8" ry="8" style="stroke:#181818;stroke-width:0.5;"/><text fill="#000000" font-family="sans-serif" font-size="14" lengthAdjust="spacing" textLength="173" x="1103.5" y="288.1426">IExchangeRateSyncService</text></g><!--entity RepositoryPort--><g id="elem_RepositoryPort"><ellipse cx="1190" cy="351.6094" fill="#F1F1F1" rx="8" ry="8" style="stroke:#181818;stroke-width:0.5;"/><text fill="#000000" font-family="sans-serif" font-size="14" lengthAdjust="spacing" textLength="163" x="1108.5" y="383.1426">IExchangeRateRepository</text></g><!--entity ProviderPort--><g id="elem_ProviderPort"><ellipse cx="1190" cy="541.6094" fill="#F1F1F1" rx="8" ry="8" style="stroke:#181818;stroke-width:0.5;"/><text fill="#000000" font-family="sans-serif" font-size="14" lengthAdjust="spacing" textLength="182" x="1099" y="573.1426">IExternalExchangeRateClient</text></g><!--entity Spread--><g id="elem_Spread"><rect fill="#F1F1F1" height="37.6094" rx="2.5" ry="2.5" style="stroke:#181818;stroke-width:0.5;" width="222" x="1079" y="80.6094"/><text fill="#000000" font-family="sans-serif" font-size="14" lengthAdjust="spacing" textLength="202" x="1089" y="105.1426">ExchangeRateSpreadCalculator</text></g><!--entity Settings--><g id="elem_Settings"><rect fill="#F1F1F1" height="37.6094" rx="2.5" ry="2.5" style="stroke:#181818;stroke-width:0.5;" width="163" x="1108.5" y="153.6094"/><text fill="#000000" font-family="sans-serif" font-size="14" lengthAdjust="spacing" textLength="143" x="1118.5" y="178.1426">ExchangeRateSettings</text></g><!--entity ReadService--><g id="elem_ReadService"><rect fill="#F1F1F1" height="37.6094" rx="2.5" ry="2.5" style="stroke:#181818;stroke-width:0.5;" width="159" x="1551.5" y="490.6094"/><text fill="#000000" font-family="sans-serif" font-size="14" lengthAdjust="spacing" textLength="139" x="1561.5" y="515.1426">ExchangeRateService</text></g><!--entity Repository--><g id="elem_Repository"><rect fill="#F1F1F1" height="37.6094" rx="2.5" ry="2.5" style="stroke:#181818;stroke-width:0.5;" width="180" x="1541" y="417.6094"/><text fill="#000000" font-family="sans-serif" font-size="14" lengthAdjust="spacing" textLength="160" x="1551" y="442.1426">ExchangeRateRepository</text></g><!--entity SyncService--><g id="elem_SyncService"><rect fill="#F1F1F1" height="37.6094" rx="2.5" ry="2.5" style="stroke:#181818;stroke-width:0.5;" width="190" x="1536" y="344.6094"/><text fill="#000000" font-family="sans-serif" font-size="14" lengthAdjust="spacing" textLength="170" x="1546" y="369.1426">ExchangeRateSyncService</text></g><!--entity NBP--><g id="elem_NBP"><rect fill="#F1F1F1" height="37.6094" rx="2.5" ry="2.5" style="stroke:#181818;stroke-width:0.5;" width="87" x="1587.5" y="855.6094"/><text fill="#000000" font-family="sans-serif" font-size="14" lengthAdjust="spacing" textLength="67" x="1597.5" y="880.1426">NBP Client</text></g><!--entity ECB--><g id="elem_ECB"><rect fill="#F1F1F1" height="37.6094" rx="2.5" ry="2.5" style="stroke:#181818;stroke-width:0.5;" width="88" x="1587" y="928.6094"/><text fill="#000000" font-family="sans-serif" font-size="14" lengthAdjust="spacing" textLength="68" x="1597" y="953.1426">ECB Client</text></g><!--entity Riksbank--><g id="elem_Riksbank"><rect fill="#F1F1F1" height="37.6094" rx="2.5" ry="2.5" style="stroke:#181818;stroke-width:0.5;" width="118" x="1572" y="1074.6094"/><text fill="#000000" font-family="sans-serif" font-size="14" lengthAdjust="spacing" textLength="98" x="1582" y="1099.1426">Riksbank Client</text></g><!--entity BOE--><g id="elem_BOE"><rect fill="#F1F1F1" height="37.6094" rx="2.5" ry="2.5" style="stroke:#181818;stroke-width:0.5;" width="164" x="1549" y="782.6094"/><text fill="#000000" font-family="sans-serif" font-size="14" lengthAdjust="spacing" textLength="144" x="1559" y="807.1426">Bank of England Client</text></g><!--entity BOC--><g id="elem_BOC"><rect fill="#F1F1F1" height="37.6094" rx="2.5" ry="2.5" style="stroke:#181818;stroke-width:0.5;" width="162" x="1550" y="709.6094"/><text fill="#000000" font-family="sans-serif" font-size="14" lengthAdjust="spacing" textLength="142" x="1560" y="734.1426">Bank of Canada Client</text></g><!--entity CNB--><g id="elem_CNB"><rect fill="#F1F1F1" height="37.6094" rx="2.5" ry="2.5" style="stroke:#181818;stroke-width:0.5;" width="88" x="1587" y="563.6094"/><text fill="#000000" font-family="sans-serif" font-size="14" lengthAdjust="spacing" textLength="68" x="1597" y="588.1426">CNB Client</text></g><!--entity Norges--><g id="elem_Norges"><rect fill="#F1F1F1" height="37.6094" rx="2.5" ry="2.5" style="stroke:#181818;stroke-width:0.5;" width="105" x="1578.5" y="1001.6094"/><text fill="#000000" font-family="sans-serif" font-size="14" lengthAdjust="spacing" textLength="85" x="1588.5" y="1026.1426">Norges Client</text></g><!--entity BNR--><g id="elem_BNR"><rect fill="#F1F1F1" height="37.6094" rx="2.5" ry="2.5" style="stroke:#181818;stroke-width:0.5;" width="88" x="1587" y="636.6094"/><text fill="#000000" font-family="sans-serif" font-size="14" lengthAdjust="spacing" textLength="68" x="1597" y="661.1426">BNR Client</text></g><!--entity DbContext--><g id="elem_DbContext"><rect fill="#F1F1F1" height="37.6094" rx="2.5" ry="2.5" style="stroke:#181818;stroke-width:0.5;" width="155" x="1821" y="381.6094"/><text fill="#000000" font-family="sans-serif" font-size="14" lengthAdjust="spacing" textLength="135" x="1831" y="406.1426">ApplicationDbContext</text></g><!--entity User--><g id="elem_User"><ellipse cx="40" cy="654.1094" fill="#F1F1F1" rx="8" ry="8" style="stroke:#181818;stroke-width:0.5;"/><path d="M40,662.1094 L40,689.1094 M27,670.1094 L53,670.1094 M40,689.1094 L27,704.1094 M40,689.1094 L53,704.1094 " fill="none" style="stroke:#181818;stroke-width:0.5;"/><text fill="#000000" font-family="sans-serif" font-size="14" lengthAdjust="spacing" textLength="68" x="6" y="720.1426">Uzytkownik</text></g><!--entity Database--><g id="elem_Database"><path d="M2039,378.6094 C2039,368.6094 2094.5,368.6094 2094.5,368.6094 C2094.5,368.6094 2150,368.6094 2150,378.6094 L2150,422.8281 C2150,432.8281 2094.5,432.8281 2094.5,432.8281 C2094.5,432.8281 2039,432.8281 2039,422.8281 L2039,378.6094 " fill="#F1F1F1" style="stroke:#181818;stroke-width:0.5;"/><path d="M2039,378.6094 C2039,388.6094 2094.5,388.6094 2094.5,388.6094 C2094.5,388.6094 2150,388.6094 2150,378.6094 " fill="none" style="stroke:#181818;stroke-width:0.5;"/><text fill="#000000" font-family="sans-serif" font-size="14" lengthAdjust="spacing" textLength="74" x="2049" y="407.1426">SQL Server</text><text fill="#000000" font-family="sans-serif" font-size="14" lengthAdjust="spacing" textLength="91" x="2049" y="424.752">GieudexPolDB</text></g><!--entity Providers--><g id="elem_Providers"><path d="M1830.1857,1155.1283 C1832.3751,1148.5418 1836.5667,1147.8872 1841.4154,1152.4498 C1844.8856,1146.0968 1848.827,1144.6971 1853.9796,1150.7452 C1856.5094,1145.6518 1860.6727,1144.1204 1864.7005,1149.1603 C1867.8533,1143.361 1871.2993,1142.6979 1875.9403,1147.5968 C1878.4099,1142.2391 1884.3176,1141.7109 1887.7641,1146.4531 C1890.8944,1140.0467 1895.4622,1139.0088 1900.6122,1144.2195 C1905.4342,1140.0076 1908.9097,1140.1688 1911.2321,1146.6923 C1916.0118,1141.4849 1920.8634,1142.0554 1923.8074,1148.6486 C1927.7678,1144.599 1932.2123,1145.3403 1934.6164,1150.4794 C1937.7931,1145.5373 1943.5184,1145.5493 1946.144,1151.0856 C1949.6052,1145.9229 1954.3508,1147.1639 1956.8423,1152.1117 C1962.4206,1147.851 1966.6637,1147.4416 1969.1463,1155.264 C1975.3783,1157.1225 1975.9017,1160.5544 1972.2967,1165.4541 C1979.9854,1167.4338 1982.4706,1172.9752 1977.0158,1179.4019 C1980.9954,1184.6168 1980.7491,1189.4701 1973.3789,1191.1804 C1978.3052,1197.2898 1977.1467,1201.0803 1969.51,1203.118 C1966.6141,1209.2017 1961.7916,1210.0734 1957.3594,1204.7553 C1952.8903,1209.3366 1948.2156,1209.9542 1944.9546,1203.4085 C1941.6373,1207.9764 1938.627,1208.765 1934.9717,1203.761 C1931.2348,1209.9834 1927.3758,1210.6404 1922.558,1204.8808 C1919.0332,1210.8427 1915.3123,1209.6987 1911.3758,1205.3264 C1907.4457,1210.9005 1903.3823,1209.7697 1900.4606,1204.3272 C1897.2532,1209.9106 1891.8079,1210.3254 1888.9966,1203.9475 C1885.817,1211.1235 1880.3129,1210.3404 1876.2025,1204.8907 C1873.1557,1209.7483 1868.0378,1209.1607 1865.1649,1204.6852 C1861.419,1210.4701 1856.8246,1209.0572 1853.6923,1204.0339 C1849.7665,1210.1266 1843.8786,1209.7056 1840.8373,1203.136 C1837.5906,1208.6596 1833.6966,1209.174 1829.5549,1204.0877 C1821.8985,1202.1093 1819.7774,1197.2502 1824.9137,1190.8026 C1818.8404,1188.5299 1817.12,1182.6916 1822.465,1178.2003 C1818.1836,1172.553 1820.2752,1167.9518 1827.0418,1166.7022 C1822.9772,1161.5298 1823.024,1157.2512 1830.1857,1155.1283 " fill="#F1F1F1" style="stroke:#181818;stroke-width:0.5;"/><text fill="#000000" font-family="sans-serif" font-size="14" lengthAdjust="spacing" textLength="97" x="1836" y="1174.6426">Zewnetrzne API</text><text fill="#000000" font-family="sans-serif" font-size="14" lengthAdjust="spacing" textLength="125" x="1836" y="1192.252">bankow centralnych</text></g><g id="elem_GMN72"><path d="M1502,233.1094 L1502,292.1641 A0,0 0 0 0 1502,292.1641 L1627,292.1641 L1631,344.2794 L1635,292.1641 L1760,292.1641 A0,0 0 0 0 1760,292.1641 L1760,243.1094 L1750,233.1094 L1502,233.1094 A0,0 0 0 0 1502,233.1094 " fill="#FEFFDD" style="stroke:#181818;stroke-width:0.5;"/><path d="M1750,233.1094 L1750,243.1094 L1760,243.1094 L1750,233.1094 " fill="#FEFFDD" style="stroke:#181818;stroke-width:0.5;"/><text fill="#000000" font-family="sans-serif" font-size="13" lengthAdjust="spacing" textLength="181" x="1508" y="251.6045">NBP zachowuje realne bid/ask.</text><text fill="#000000" font-family="sans-serif" font-size="13" lengthAdjust="spacing" textLength="237" x="1508" y="267.9561">Pozostale zrodla uzywaja ReferenceRate</text><text fill="#000000" font-family="sans-serif" font-size="13" lengthAdjust="spacing" textLength="172" x="1508" y="284.3076">i wspolnego synthetic spread.</text></g><!--link User to Dashboard--><g id="link_User_Dashboard"><path d="M74.25,684.6094 C91.91,684.6094 108.56,684.6094 130.97,684.6094 " fill="none" id="User-to-Dashboard" style="stroke:#181818;stroke-width:1.0;"/><polygon fill="#181818" points="136.97,684.6094,127.97,680.6094,131.97,684.6094,127.97,688.6094,136.97,684.6094" style="stroke:#181818;stroke-width:1.0;"/></g><!--link Dashboard to FrontApi--><g id="link_Dashboard_FrontApi"><path d="M319.2,684.6094 C339.09,684.6094 354.14,684.6094 373.97,684.6094 " fill="none" id="Dashboard-to-FrontApi" style="stroke:#181818;stroke-width:1.0;"/><polygon fill="#181818" points="379.97,684.6094,370.97,680.6094,374.97,684.6094,370.97,688.6094,379.97,684.6094" style="stroke:#181818;stroke-width:1.0;"/></g><!--link FrontApi to Controller--><g id="link_FrontApi_Controller"><path d="M559.23,684.6094 C631.42,684.6094 726.84,684.6094 799.29,684.6094 " fill="none" id="FrontApi-to-Controller" style="stroke:#181818;stroke-width:1.0;"/><polygon fill="#181818" points="805.29,684.6094,796.29,680.6094,800.29,684.6094,796.29,688.6094,805.29,684.6094" style="stroke:#181818;stroke-width:1.0;"/><text fill="#000000" font-family="sans-serif" font-size="13" lengthAdjust="spacing" textLength="153" x="592" y="681.1045">HTTP /api/ExchangeRates</text></g><!--link Controller to ReadPort--><g id="link_Controller_ReadPort"><path d="M986.54,677.9194 C1006.04,672.2994 1024.77,662.9394 1038,647.6094 C1049.25,634.5794 1044.29,507.0894 1055,493.6094 C1087.22,453.0794 1150.7528,447.6022 1174.7028,446.8722 " fill="none" id="Controller-to-ReadPort" style="stroke:#181818;stroke-width:1.0;"/><polygon fill="#181818" points="1180.7,446.6894,1171.5823,442.9654,1175.7023,446.8417,1171.826,450.9617,1180.7,446.6894" style="stroke:#181818;stroke-width:1.0;"/></g><!--link Controller to SyncPort--><g id="link_Controller_SyncPort"><path d="M986.84,678.5894 C1006.46,672.9594 1025.16,663.4294 1038,647.6094 C1050.06,632.7494 1043.55,318.9394 1055,303.6094 C1086.12,261.9294 1150.971,257.1396 1174.921,256.6996 " fill="none" id="Controller-to-SyncPort" style="stroke:#181818;stroke-width:1.0;"/><polygon fill="#181818" points="1180.92,256.5894,1171.848,252.7554,1175.9208,256.6812,1171.995,260.754,1180.92,256.5894" style="stroke:#181818;stroke-width:1.0;"/></g><!--link StartupSync to SyncPort--><g id="link_StartupSync_SyncPort"><path d="M901.55,592.2394 C915.15,538.4794 960.56,385.9594 1055,303.6094 C1093.65,269.9094 1151.9876,260.62 1174.7476,258.06 " fill="none" id="StartupSync-to-SyncPort" style="stroke:#181818;stroke-width:1.0;"/><polygon fill="#181818" points="1180.71,257.3894,1171.3193,254.4204,1175.7413,257.9482,1172.2135,262.3703,1180.71,257.3894" style="stroke:#181818;stroke-width:1.0;"/></g><!--reverse link ReadPort to ReadService--><g id="link_ReadPort_ReadService"><path d="M1216.7031,453.1823 C1238.4531,458.7223 1281.69,469.2694 1333,477.6094 C1406.58,489.5694 1491.18,498.1894 1551.21,503.4494 " fill="none" id="ReadPort-backto-ReadService" style="stroke:#181818;stroke-width:1.0;stroke-dasharray:7.0,7.0;"/><polygon fill="none" points="1199.26,448.7394,1215.2221,458.9967,1218.184,447.368,1199.26,448.7394" style="stroke:#181818;stroke-width:1.0;"/></g><!--reverse link SyncPort to SyncService--><g id="link_SyncPort_SyncService"><path d="M1216.8679,262.9123 C1259.7779,273.3723 1439.79,317.2494 1551.82,344.5594 " fill="none" id="SyncPort-backto-SyncService" style="stroke:#181818;stroke-width:1.0;stroke-dasharray:7.0,7.0;"/><polygon fill="none" points="1199.38,258.6494,1215.4469,268.7416,1218.2889,257.083,1199.38,258.6494" style="stroke:#181818;stroke-width:1.0;"/></g><!--reverse link RepositoryPort to Repository--><g id="link_RepositoryPort_Repository"><path d="M1217.1029,348.4043 C1251.8429,344.2543 1371.42,333.4794 1472,374.6094 C1488.06,381.1794 1486.67,391.4694 1502,399.6094 C1515.48,406.7694 1530.52,412.6994 1545.42,417.5494 " fill="none" id="RepositoryPort-backto-Repository" style="stroke:#181818;stroke-width:1.0;stroke-dasharray:7.0,7.0;"/><polygon fill="none" points="1199.23,350.5394,1217.8146,354.3619,1216.3912,342.4467,1199.23,350.5394" style="stroke:#181818;stroke-width:1.0;"/></g><!--link ReadService to RepositoryPort--><g id="link_ReadService_RepositoryPort"><path d="M1551.48,497.4094 C1533.9,491.9494 1516.25,484.0494 1502,472.6094 C1480.29,455.1794 1494.15,434.4794 1472,417.6094 C1426.76,383.1394 1246.7621,358.6657 1205.2121,353.3857 " fill="none" id="ReadService-to-RepositoryPort" style="stroke:#181818;stroke-width:1.0;"/><polygon fill="#181818" points="1199.26,352.6294,1207.684,357.732,1204.2201,353.2597,1208.6924,349.7958,1199.26,352.6294" style="stroke:#181818;stroke-width:1.0;"/></g><!--link Repository to DbContext--><g id="link_Repository_DbContext"><path d="M1721.15,424.5194 C1753.38,420.1494 1783.5345,416.0661 1814.6345,411.8461 " fill="none" id="Repository-to-DbContext" style="stroke:#181818;stroke-width:1.0;"/><polygon fill="#181818" points="1820.58,411.0394,1811.1239,408.2858,1815.6254,411.7117,1812.1996,416.2132,1820.58,411.0394" style="stroke:#181818;stroke-width:1.0;"/></g><!--link SyncService to DbContext--><g id="link_SyncService_DbContext"><path d="M1726.35,376.7594 C1757.35,381.0794 1785.4673,385.002 1814.9873,389.112 " fill="none" id="SyncService-to-DbContext" style="stroke:#181818;stroke-width:1.0;"/><polygon fill="#181818" points="1820.93,389.9394,1812.5676,384.7365,1815.9778,389.2499,1811.4644,392.6601,1820.93,389.9394" style="stroke:#181818;stroke-width:1.0;"/></g><!--link DbContext to Database--><g id="link_DbContext_Database"><path d="M1976.17,400.6094 C1997.14,400.6094 2013.44,400.6094 2032.9,400.6094 " fill="none" id="DbContext-to-Database" style="stroke:#181818;stroke-width:1.0;"/><polygon fill="#181818" points="2038.9,400.6094,2029.9,396.6094,2033.9,400.6094,2029.9,404.6094,2038.9,400.6094" style="stroke:#181818;stroke-width:1.0;"/></g><!--link SyncService to ProviderPort--><g id="link_SyncService_ProviderPort"><path d="M1551.95,382.6894 C1535.24,387.5694 1517.86,393.2594 1502,399.6094 C1419.32,432.7494 1406.47,457.6094 1325,493.6094 C1278.44,514.1794 1225.7755,530.9675 1204.7455,537.4275 " fill="none" id="SyncService-to-ProviderPort" style="stroke:#181818;stroke-width:1.0;"/><polygon fill="#181818" points="1199.01,539.1894,1208.7878,540.3703,1203.7896,537.7212,1206.4387,532.723,1199.01,539.1894" style="stroke:#181818;stroke-width:1.0;"/><text fill="#000000" font-family="sans-serif" font-size="13" lengthAdjust="spacing" textLength="137" x="1334" y="410.1045">wybiera po SourceCode</text></g><!--link SyncService to Spread--><g id="link_SyncService_Spread"><path d="M1556.04,344.5294 C1536.37,336.4694 1516.58,325.1994 1502,309.6094 C1474.07,279.7294 1497.85,254.2994 1472,222.6094 C1424.01,163.7794 1394.97,165.0594 1325,135.6094 C1309.46,129.0694 1298.1673,125.0641 1281.5773,120.3041 " fill="none" id="SyncService-to-Spread" style="stroke:#181818;stroke-width:1.0;"/><polygon fill="#181818" points="1275.81,118.6494,1283.3578,124.9764,1280.6161,120.0283,1285.5641,117.2866,1275.81,118.6494" style="stroke:#181818;stroke-width:1.0;"/></g><!--link SyncService to Settings--><g id="link_SyncService_Settings"><path d="M1573.8,344.5894 C1550.69,335.5894 1524.19,323.7094 1502,309.6094 C1486.86,299.9894 1486.81,292.7294 1472,282.6094 C1411.61,241.3294 1393.34,234.6794 1325,208.6094 C1308.01,202.1294 1295.1617,197.9431 1277.3517,193.0031 " fill="none" id="SyncService-to-Settings" style="stroke:#181818;stroke-width:1.0;"/><polygon fill="#181818" points="1271.57,191.3994,1279.1734,197.6594,1276.3881,192.7358,1281.3117,189.9504,1271.57,191.3994" style="stroke:#181818;stroke-width:1.0;"/></g><!--reverse link ProviderPort to NBP--><g id="link_ProviderPort_NBP"><path d="M1200.8356,567.5119 C1213.6756,600.9319 1256.16,701.5294 1333,766.6094 C1408.57,830.6194 1525.22,858.0594 1587.46,868.6694 " fill="none" id="ProviderPort-backto-NBP" style="stroke:#181818;stroke-width:1.0;stroke-dasharray:7.0,7.0;"/><polygon fill="none" points="1194.38,550.7094,1195.2347,569.6638,1206.4364,565.3601,1194.38,550.7094" style="stroke:#181818;stroke-width:1.0;"/></g><!--reverse link ProviderPort to ECB--><g id="link_ProviderPort_ECB"><path d="M1195.9796,568.5469 C1203.7096,609.4869 1236.92,758.7194 1333,847.6094 C1405.18,914.3994 1523.49,936.7194 1586.81,944.0794 " fill="none" id="ProviderPort-backto-ECB" style="stroke:#181818;stroke-width:1.0;stroke-dasharray:7.0,7.0;"/><polygon fill="none" points="1192.64,550.8594,1190.0838,569.6601,1201.8755,567.4336,1192.64,550.8594" style="stroke:#181818;stroke-width:1.0;"/></g><!--reverse link ProviderPort to Riksbank--><g id="link_ProviderPort_Riksbank"><path d="M1190.7067,568.7789 C1190.3167,621.4289 1195.49,869.5594 1333,1006.6094 C1397.03,1070.4294 1505.18,1087.9394 1571.8,1092.4494 " fill="none" id="ProviderPort-backto-Riksbank" style="stroke:#181818;stroke-width:1.0;stroke-dasharray:7.0,7.0;"/><polygon fill="none" points="1190.84,550.7794,1184.7068,568.7344,1196.7065,568.8233,1190.84,550.7794" style="stroke:#181818;stroke-width:1.0;"/></g><!--reverse link ProviderPort to BOE--><g id="link_ProviderPort_BOE"><path d="M1208.5979,565.0558 C1227.4679,590.0058 1272.62,646.1694 1333,688.6094 C1398.9,734.9294 1486.23,765.1694 1549.12,782.5994 " fill="none" id="ProviderPort-backto-BOE" style="stroke:#181818;stroke-width:1.0;stroke-dasharray:7.0,7.0;"/><polygon fill="none" points="1197.74,550.6994,1203.8125,568.6751,1213.3834,561.4365,1197.74,550.6994" style="stroke:#181818;stroke-width:1.0;"/></g><!--reverse link ProviderPort to BOC--><g id="link_ProviderPort_BOC"><path d="M1214.5608,555.8603 C1236.0508,568.8303 1280.74,595.1894 1333,620.6094 C1406.26,656.2494 1425.18,664.4694 1502,691.6094 C1520.1,697.9994 1539.92,704.1394 1558.44,709.5194 " fill="none" id="ProviderPort-backto-BOC" style="stroke:#181818;stroke-width:1.0;stroke-dasharray:7.0,7.0;"/><polygon fill="none" points="1199.15,546.5594,1211.4605,560.9973,1217.6611,550.7234,1199.15,546.5594" style="stroke:#181818;stroke-width:1.0;"/></g><!--reverse link ProviderPort to CNB--><g id="link_ProviderPort_CNB"><path d="M1217.2535,543.275 C1251.1235,545.435 1364.38,552.9294 1472,563.6094 C1510.9,567.4694 1555.07,572.8694 1586.8,576.9194 " fill="none" id="ProviderPort-backto-CNB" style="stroke:#181818;stroke-width:1.0;stroke-dasharray:7.0,7.0;"/><polygon fill="none" points="1199.29,542.1294,1216.8716,549.2628,1217.6354,537.2871,1199.29,542.1294" style="stroke:#181818;stroke-width:1.0;"/></g><!--reverse link ProviderPort to Norges--><g id="link_ProviderPort_Norges"><path d="M1192.8208,568.6545 C1196.1408,615.5645 1216.28,814.6294 1333,927.6094 C1400.36,992.8094 1512.83,1012.3494 1578.33,1018.1694 " fill="none" id="ProviderPort-backto-Norges" style="stroke:#181818;stroke-width:1.0;stroke-dasharray:7.0,7.0;"/><polygon fill="none" points="1191.55,550.6994,1186.8357,569.078,1198.8058,568.2309,1191.55,550.6994" style="stroke:#181818;stroke-width:1.0;"/></g><!--reverse link ProviderPort to BNR--><g id="link_ProviderPort_BNR"><path d="M1216.8027,548.3115 C1264.6927,560.7415 1487.69,618.6594 1586.99,644.4394 " fill="none" id="ProviderPort-backto-BNR" style="stroke:#181818;stroke-width:1.0;stroke-dasharray:7.0,7.0;"/><polygon fill="none" points="1199.38,543.7894,1215.2953,554.1191,1218.3101,542.5039,1199.38,543.7894" style="stroke:#181818;stroke-width:1.0;"/></g><!--link DI to NBP--><g id="link_DI_NBP"><path d="M974.24,793.0594 C999.71,800.9694 1028.34,809.0194 1055,814.6094 C1251.22,855.7294 1485.315,868.9634 1581.345,872.9034 " fill="none" id="DI-to-NBP" style="stroke:#181818;stroke-width:1.0;stroke-dasharray:7.0,7.0;"/><polygon fill="#181818" points="1587.34,873.1494,1578.5115,868.7838,1582.3442,872.9444,1578.1836,876.7771,1587.34,873.1494" style="stroke:#181818;stroke-width:1.0;"/></g><!--link DI to ECB--><g id="link_DI_ECB"><path d="M934.78,794.2994 C965.71,815.7594 1011.32,844.7694 1055,862.6094 C1242.07,939.0294 1482.31,947.8841 1580.68,948.1341 " fill="none" id="DI-to-ECB" style="stroke:#181818;stroke-width:1.0;stroke-dasharray:7.0,7.0;"/><polygon fill="#181818" points="1586.68,948.1494,1577.6902,944.1265,1581.68,948.1367,1577.6699,952.1265,1586.68,948.1494" style="stroke:#181818;stroke-width:1.0;"/></g><!--link DI to Riksbank--><g id="link_DI_Riksbank"><path d="M905.4,794.2794 C923.35,848.4194 970.81,968.2294 1055,1027.6094 C1213.68,1139.5394 1454.5129,1120.9556 1565.9629,1104.6956 " fill="none" id="DI-to-Riksbank" style="stroke:#181818;stroke-width:1.0;stroke-dasharray:7.0,7.0;"/><polygon fill="#181818" points="1571.9,1103.8294,1562.4168,1101.1706,1566.9524,1104.5512,1563.5717,1109.0868,1571.9,1103.8294" style="stroke:#181818;stroke-width:1.0;"/></g><!--link DI to BOE--><g id="link_DI_BOE"><path d="M974.02,782.4294 C997.07,786.5194 1022.47,790.3894 1046,792.6094 C1224.69,809.4694 1429.462,807.4753 1542.532,804.5353 " fill="none" id="DI-to-BOE" style="stroke:#181818;stroke-width:1.0;stroke-dasharray:7.0,7.0;"/><polygon fill="#181818" points="1548.53,804.3794,1539.4291,800.6147,1543.5317,804.5093,1539.637,808.612,1548.53,804.3794" style="stroke:#181818;stroke-width:1.0;"/></g><!--link DI to BOC--><g id="link_DI_BOC"><path d="M974.06,762.6194 C1113.83,755.3694 1401.798,740.4399 1543.828,733.0799 " fill="none" id="DI-to-BOC" style="stroke:#181818;stroke-width:1.0;stroke-dasharray:7.0,7.0;"/><polygon fill="#181818" points="1549.82,732.7694,1540.6251,729.2405,1544.8267,733.0281,1541.0391,737.2298,1549.82,732.7694" style="stroke:#181818;stroke-width:1.0;"/></g><!--link DI to CNB--><g id="link_DI_CNB"><path d="M974.32,754.1894 C997.01,747.3894 1020.42,736.8694 1038,720.6094 C1052.48,707.2094 1039.57,691.8994 1055,679.6094 C1137.66,613.7894 1461.8582,591.1334 1580.9182,584.8934 " fill="none" id="DI-to-CNB" style="stroke:#181818;stroke-width:1.0;stroke-dasharray:7.0,7.0;"/><polygon fill="#181818" points="1586.91,584.5794,1577.713,581.0559,1581.9169,584.8411,1578.1317,589.0449,1586.91,584.5794" style="stroke:#181818;stroke-width:1.0;"/></g><!--link DI to Norges--><g id="link_DI_Norges"><path d="M914.54,794.2294 C940.46,832.6894 992.69,901.7794 1055,938.6094 C1225.36,1039.3094 1466.4572,1034.2535 1572.5072,1026.2035 " fill="none" id="DI-to-Norges" style="stroke:#181818;stroke-width:1.0;stroke-dasharray:7.0,7.0;"/><polygon fill="#181818" points="1578.49,1025.7494,1569.2131,1022.4421,1573.5043,1026.1278,1569.8186,1030.4191,1578.49,1025.7494" style="stroke:#181818;stroke-width:1.0;"/></g><!--link DI to BNR--><g id="link_DI_BNR"><path d="M974.09,744.4194 C999.67,737.6394 1028.41,730.6594 1055,725.6094 C1251.86,688.2594 1484.6193,667.1207 1580.7993,659.3807 " fill="none" id="DI-to-BNR" style="stroke:#181818;stroke-width:1.0;stroke-dasharray:7.0,7.0;"/><polygon fill="#181818" points="1586.78,658.8994,1577.4881,655.6342,1581.7961,659.3004,1578.1299,663.6084,1586.78,658.8994" style="stroke:#181818;stroke-width:1.0;"/></g><!--link NBP to Providers--><g id="link_NBP_Providers"><path d="M1674.53,876.4494 C1702.22,879.8494 1737.28,888.6094 1760,910.6094 C1832.28,980.5994 1762.29,1046.8994 1821,1128.6094 C1825.33,1134.6294 1826.0606,1136.2127 1831.8606,1141.1227 " fill="none" id="NBP-to-Providers" style="stroke:#181818;stroke-width:1.0;"/><polygon fill="#181818" points="1836.44,1144.9994,1832.1553,1136.1314,1832.6238,1141.7688,1826.9864,1142.2372,1836.44,1144.9994" style="stroke:#181818;stroke-width:1.0;"/></g><!--link ECB to Providers--><g id="link_ECB_Providers"><path d="M1675.1,950.3094 C1702.32,954.0994 1736.64,962.9794 1760,983.6094 C1812.41,1029.8894 1775.98,1075.1194 1821,1128.6094 C1825.98,1134.5194 1827.1428,1136.2488 1833.3928,1141.1888 " fill="none" id="ECB-to-Providers" style="stroke:#181818;stroke-width:1.0;"/><polygon fill="#181818" points="1838.1,1144.9094,1833.5196,1136.1904,1834.1774,1141.8089,1828.5589,1142.4667,1838.1,1144.9094" style="stroke:#181818;stroke-width:1.0;"/></g><!--link Riksbank to Providers--><g id="link_Riksbank_Providers"><path d="M1690.27,1112.0394 C1728.58,1124.1694 1773.4095,1138.3493 1814.9995,1151.5093 " fill="none" id="Riksbank-to-Providers" style="stroke:#181818;stroke-width:1.0;"/><polygon fill="#181818" points="1820.72,1153.3194,1813.346,1146.7906,1815.953,1151.811,1810.9326,1154.4179,1820.72,1153.3194" style="stroke:#181818;stroke-width:1.0;"/></g><!--link BOE to Providers--><g id="link_BOE_Providers"><path d="M1713.08,811.6394 C1730.27,817.0394 1747.09,825.2194 1760,837.6094 C1792.05,868.3594 1780.72,889.3994 1791,932.6094 C1811.4,1018.3394 1772.96,1054.7294 1821,1128.6094 C1824.95,1134.6894 1825.4622,1136.1983 1831.0122,1141.0983 " fill="none" id="BOE-to-Providers" style="stroke:#181818;stroke-width:1.0;"/><polygon fill="#181818" points="1835.51,1145.0694,1831.4106,1136.1142,1831.7618,1141.7602,1826.1159,1142.1113,1835.51,1145.0694" style="stroke:#181818;stroke-width:1.0;"/></g><!--link BOC to Providers--><g id="link_BOC_Providers"><path d="M1712.01,737.1194 C1729.85,742.5194 1747.24,751.0994 1760,764.6094 C1816.3,824.2494 1776.92,1059.4494 1821,1128.6094 C1824.81,1134.5994 1825.1853,1135.9811 1830.5653,1140.8111 " fill="none" id="BOC-to-Providers" style="stroke:#181818;stroke-width:1.0;"/><polygon fill="#181818" points="1835.03,1144.8194,1831.0051,1135.8305,1831.3094,1141.4791,1825.6607,1141.7834,1835.03,1144.8194" style="stroke:#181818;stroke-width:1.0;"/></g><!--link CNB to Providers--><g id="link_CNB_Providers"><path d="M1675.11,583.8794 C1703.04,587.0294 1738.17,595.7294 1760,618.6094 C1838.8,701.1894 1762.28,1030.7294 1821,1128.6094 C1824.65,1134.6994 1824.9502,1136.1126 1830.2702,1140.9726 " fill="none" id="CNB-to-Providers" style="stroke:#181818;stroke-width:1.0;"/><polygon fill="#181818" points="1834.7,1145.0194,1830.7531,1135.996,1831.0085,1141.647,1825.3574,1141.9024,1834.7,1145.0194" style="stroke:#181818;stroke-width:1.0;"/></g><!--link Norges to Providers--><g id="link_Norges_Providers"><path d="M1683.78,1028.4794 C1708.29,1033.9194 1737.13,1042.9194 1760,1057.6094 C1795,1080.0994 1789.6,1101.3194 1821,1128.6094 C1827.55,1134.2994 1829.8865,1136.3803 1837.2665,1141.5203 " fill="none" id="Norges-to-Providers" style="stroke:#181818;stroke-width:1.0;"/><polygon fill="#181818" points="1842.19,1144.9494,1837.0908,1136.5233,1838.0871,1142.0918,1832.5186,1143.088,1842.19,1144.9494" style="stroke:#181818;stroke-width:1.0;"/></g><!--link BNR to Providers--><g id="link_BNR_Providers"><path d="M1675.25,656.7494 C1703.25,659.8294 1738.39,668.5194 1760,691.6094 C1827,763.1994 1769.57,1045.1294 1821,1128.6094 C1824.72,1134.6494 1825.0547,1136.0595 1830.4047,1140.9095 " fill="none" id="BNR-to-Providers" style="stroke:#181818;stroke-width:1.0;"/><polygon fill="#181818" points="1834.85,1144.9394,1830.8686,1135.9311,1831.1456,1141.5812,1825.4955,1141.8581,1834.85,1144.9394" style="stroke:#181818;stroke-width:1.0;"/></g><!--SRC=[XLPDRzim3BthLn2vDxqFGu76wTPWGvObxMNeXP6PH8qh6P9SrzdstoVvAvBpiPluo2TI3FbYAsn6yAtGfe8IiyB23QG2jnhVOA_USYL9MbKoinSoHu_o3btPob4rSOjocn7BQ6F1Aj1YkxFk4kyHIZA6t2eDpuVAxbKfnHxGmBCXpLYEV8zRWj4NhQGbcSAzt1OPwX7yPd1C1QE73xvpQMY9bgPeTck5EXtvcthhCk4-5olIxu9JpQYJEOpz3IhuAgX8wMEXil7zOdOrlqaSNwii8rtVTpGlSrOMjItoLILvM4e0nzmfvQuT97a5C_dQTF95pXwjpPDCk90lTLUhfWMpYq_9yqnmzEpcISArMM-Gkx1PL5zGr98mNIXjhuKFt-7i_r2Mb2iZ-fgFvbcUEqlCGdxpx9gxqEfTfAHRvgMMvzez9C6CkuboYPf2Q_0AYQmLSckQuDQurDsPt6WqLXVS5fgkpiomlwrzcN2nNLTodFbHpkQPJnOGjDEPWqkJIUXtPknVYhrPezo7GHqMHqvybDh0WrC8TEiT42O_7ix79YWnnJWqYKEJULIWCmSFL7fB9dfZZGmIpfTHblaozWVBCrtx9QUF9hAt_62aQ76Dnat6wkTtyFqc_IAFKpATj3BLX36UgIA5qIyg9Lbza0HERrwaxvqgWRlC6ZDPyLqqweOnBvbmStCNA5v_gl5Urxf3ZHxL2Jx1uzFJ0cun5xUHe34MH7bIBm43lD_pGBXY1-keyFdFU1pDUXVJUCBfZCMWO_OJpu9Rsl8YyJYQJN_wdoV8CV3qfxQZxOzpmWYbnlMlhDQ2D4AkOAKApIbHAPsGMf4vWJivOT6jzMlz3fwYVlDEqNxLJbr-gSwXoHdKRysPGff5ENE9MmysdS5uV5TNsnvzYUsnhwkrVJ7zCUcEFcrtJPEhY_49l3I5VJVCYr6CzF8JmoxT2P8C42ySCT9AnO3eb256c5IMOAsiLMzUfCBfzJKVaEzKMRpw3oAtlYvKfBTezcEsK0TbBBfFfODMQOPG7AeINz4DyOQq-uUlLv09A4sk77Ehm5JIxiWA3gQUf37pdqQ-Wdy0]--></g></svg>