<?xml version="1.0" encoding="us-ascii" standalone="no"?><svg xmlns="http://www.w3.org/2000/svg" xmlns:xlink="http://www.w3.org/1999/xlink" contentStyleType="text/css" height="411px" preserveAspectRatio="none" style="width:875px;height:411px;background:#FFFFFF;" version="1.1" viewBox="0 0 875 411" width="875px" zoomAndPan="magnify"><defs/><g><text fill="#000000" font-family="sans-serif" font-size="14" font-weight="bold" lengthAdjust="spacing" textLength="191" x="335" y="24.5332">Kursy walut - model danych</text><!--class Currency--><g id="elem_Currency"><rect codeLine="5" fill="#F1F1F1" height="114.0469" id="Currency" rx="2.5" ry="2.5" style="stroke:#181818;stroke-width:0.5;" width="119" x="71" y="45.6094"/><text fill="#000000" font-family="sans-serif" font-size="14" lengthAdjust="spacing" textLength="69" x="96" y="65.1426">Currencies</text><line style="stroke:#181818;stroke-width:0.5;" x1="72" x2="189" y1="73.2188" y2="73.2188"/><ellipse cx="82" cy="87.5234" fill="#000000" rx="3" ry="3" style="stroke:#000000;stroke-width:1.0;"/><text fill="#000000" font-family="sans-serif" font-size="14" lengthAdjust="spacing" textLength="76" x="91" y="91.752">Id : int &#171;PK&#187;</text><line style="stroke:#181818;stroke-width:1.0;" x1="72" x2="189" y1="98.8281" y2="98.8281"/><ellipse cx="82" cy="113.1328" fill="#000000" rx="3" ry="3" style="stroke:#000000;stroke-width:1.0;"/><text fill="#000000" font-family="sans-serif" font-size="14" lengthAdjust="spacing" textLength="93" x="91" y="117.3613">Symbol : string</text><ellipse cx="82" cy="130.7422" fill="#000000" rx="3" ry="3" style="stroke:#000000;stroke-width:1.0;"/><text fill="#000000" font-family="sans-serif" font-size="14" lengthAdjust="spacing" textLength="83" x="91" y="134.9707">Name : string</text><ellipse cx="82" cy="148.3516" fill="#000000" rx="3" ry="3" style="stroke:#000000;stroke-width:1.0;"/><text fill="#000000" font-family="sans-serif" font-size="14" lengthAdjust="spacing" textLength="87" x="91" y="152.5801">IsActive : bool</text></g><!--class RateSource--><g id="elem_RateSource"><rect codeLine="13" fill="#F1F1F1" height="114.0469" id="RateSource" rx="2.5" ry="2.5" style="stroke:#181818;stroke-width:0.5;" width="147" x="448" y="45.6094"/><text fill="#000000" font-family="sans-serif" font-size="14" lengthAdjust="spacing" textLength="82" x="480.5" y="65.1426">RateSources</text><line style="stroke:#181818;stroke-width:0.5;" x1="449" x2="594" y1="73.2188" y2="73.2188"/><ellipse cx="459" cy="87.5234" fill="#000000" rx="3" ry="3" style="stroke:#000000;stroke-width:1.0;"/><text fill="#000000" font-family="sans-serif" font-size="14" lengthAdjust="spacing" textLength="76" x="468" y="91.752">Id : int &#171;PK&#187;</text><line style="stroke:#181818;stroke-width:1.0;" x1="449" x2="594" y1="98.8281" y2="98.8281"/><ellipse cx="459" cy="113.1328" fill="#000000" rx="3" ry="3" style="stroke:#000000;stroke-width:1.0;"/><text fill="#000000" font-family="sans-serif" font-size="14" lengthAdjust="spacing" textLength="121" x="468" y="117.3613">Code : string &#171;UQ&#187;</text><ellipse cx="459" cy="130.7422" fill="#000000" rx="3" ry="3" style="stroke:#000000;stroke-width:1.0;"/><text fill="#000000" font-family="sans-serif" font-size="14" lengthAdjust="spacing" textLength="83" x="468" y="134.9707">Name : string</text><ellipse cx="459" cy="148.3516" fill="#000000" rx="3" ry="3" style="stroke:#000000;stroke-width:1.0;"/><text fill="#000000" font-family="sans-serif" font-size="14" lengthAdjust="spacing" textLength="87" x="468" y="152.5801">IsActive : bool</text></g><!--class ExchangeRate--><g id="elem_ExchangeRate"><rect codeLine="21" fill="#F1F1F1" height="184.4844" id="ExchangeRate" rx="2.5" ry="2.5" style="stroke:#181818;stroke-width:0.5;" width="247" x="7" y="219.6094"/><text fill="#000000" font-family="sans-serif" font-size="14" lengthAdjust="spacing" textLength="99" x="81" y="239.1426">ExchangeRates</text><line style="stroke:#181818;stroke-width:0.5;" x1="8" x2="253" y1="247.2188" y2="247.2188"/><ellipse cx="18" cy="261.5234" fill="#000000" rx="3" ry="3" style="stroke:#000000;stroke-width:1.0;"/><text fill="#000000" font-family="sans-serif" font-size="14" lengthAdjust="spacing" textLength="76" x="27" y="265.752">Id : int &#171;PK&#187;</text><line style="stroke:#181818;stroke-width:1.0;" x1="8" x2="253" y1="272.8281" y2="272.8281"/><ellipse cx="18" cy="287.1328" fill="#000000" rx="3" ry="3" style="stroke:#000000;stroke-width:1.0;"/><text fill="#000000" font-family="sans-serif" font-size="14" lengthAdjust="spacing" textLength="134" x="27" y="291.3613">CurrencyId : int &#171;FK&#187;</text><ellipse cx="18" cy="304.7422" fill="#000000" rx="3" ry="3" style="stroke:#000000;stroke-width:1.0;"/><text fill="#000000" font-family="sans-serif" font-size="14" lengthAdjust="spacing" textLength="151" x="27" y="308.9707">RateSourceId : int &#171;FK&#187;</text><ellipse cx="18" cy="322.3516" fill="#000000" rx="3" ry="3" style="stroke:#000000;stroke-width:1.0;"/><text fill="#000000" font-family="sans-serif" font-size="14" lengthAdjust="spacing" textLength="154" x="27" y="326.5801">BuyPrice : decimal(18,4)</text><text fill="#000000" font-family="sans-serif" font-size="14" lengthAdjust="spacing" textLength="221" x="27" y="344.1895">MidPrice : decimal(18,4) &#171;nullable&#187;</text><ellipse cx="18" cy="357.5703" fill="#000000" rx="3" ry="3" style="stroke:#000000;stroke-width:1.0;"/><text fill="#000000" font-family="sans-serif" font-size="14" lengthAdjust="spacing" textLength="153" x="27" y="361.7988">SellPrice : decimal(18,4)</text><ellipse cx="18" cy="375.1797" fill="#000000" rx="3" ry="3" style="stroke:#000000;stroke-width:1.0;"/><text fill="#000000" font-family="sans-serif" font-size="14" lengthAdjust="spacing" textLength="158" x="27" y="379.4082">EffectiveDate : datetime2</text><ellipse cx="18" cy="392.7891" fill="#000000" rx="3" ry="3" style="stroke:#000000;stroke-width:1.0;"/><text fill="#000000" font-family="sans-serif" font-size="14" lengthAdjust="spacing" textLength="139" x="27" y="397.0176">FetchedAt : datetime2</text></g><g id="elem_GMN7"><path d="M289,224.6094 L289,307.6094 L254.04,311.6094 L289,315.6094 L289,398.125 A0,0 0 0 0 289,398.125 L586,398.125 A0,0 0 0 0 586,398.125 L586,234.6094 L576,224.6094 L289,224.6094 A0,0 0 0 0 289,224.6094 " fill="#FEFFDD" style="stroke:#181818;stroke-width:0.5;"/><path d="M576,224.6094 L576,234.6094 L586,234.6094 L576,224.6094 " fill="#FEFFDD" style="stroke:#181818;stroke-width:0.5;"/><text fill="#000000" font-family="sans-serif" font-size="13" lengthAdjust="spacing" textLength="96" x="295" y="243.1045">Unikalny indeks:</text><text fill="#000000" font-family="sans-serif" font-size="13" lengthAdjust="spacing" textLength="247" x="295" y="259.4561">CurrencyId + RateSourceId + EffectiveDate</text><text fill="#000000" font-family="sans-serif" font-size="13" lengthAdjust="spacing" textLength="4" x="295" y="275.8076">&#160;</text><text fill="#000000" font-family="sans-serif" font-size="13" lengthAdjust="spacing" textLength="88" x="295" y="292.1592">Znaczenie cen:</text><text fill="#000000" font-family="sans-serif" font-size="13" lengthAdjust="spacing" textLength="248" x="295" y="308.5107">BuyPrice = system kupuje od uzytkownika</text><text fill="#000000" font-family="sans-serif" font-size="13" lengthAdjust="spacing" textLength="259" x="295" y="324.8623">SellPrice = system sprzedaje uzytkownikowi</text><text fill="#000000" font-family="sans-serif" font-size="13" lengthAdjust="spacing" textLength="276" x="295" y="341.2139">MidPrice = kurs referencyjny lub srodek bid/ask</text><text fill="#000000" font-family="sans-serif" font-size="13" lengthAdjust="spacing" textLength="4" x="295" y="357.5654">&#160;</text><text fill="#000000" font-family="sans-serif" font-size="13" lengthAdjust="spacing" textLength="206" x="295" y="373.917">Wszystkie wartosci oznaczaja PLN</text><text fill="#000000" font-family="sans-serif" font-size="13" lengthAdjust="spacing" textLength="130" x="295" y="390.2686">za 1 jednostke waluty.</text></g><g id="elem_GMN10"><path d="M621,257.6094 L621,365.7188 L868,365.7188 L868,267.6094 L858,257.6094 L621,257.6094 " fill="#FEFFDD" style="stroke:#181818;stroke-width:0.5;"/><path d="M858,257.6094 L858,267.6094 L868,267.6094 L858,257.6094 " fill="#FEFFDD" style="stroke:#181818;stroke-width:1.0;"/><text fill="#000000" font-family="sans-serif" font-size="13" lengthAdjust="spacing" textLength="108" x="627" y="276.1045">Kody produkcyjne:</text><text fill="#000000" font-family="sans-serif" font-size="13" lengthAdjust="spacing" textLength="176" x="627" y="292.4561">NBP, ECB, RIKSBANK, BOE,</text><text fill="#000000" font-family="sans-serif" font-size="13" lengthAdjust="spacing" textLength="162" x="627" y="308.8076">BOC, CNB, NORGES, BNR</text><text fill="#000000" font-family="sans-serif" font-size="13" lengthAdjust="spacing" textLength="4" x="627" y="325.1592">&#160;</text><text fill="#000000" font-family="sans-serif" font-size="13" lengthAdjust="spacing" textLength="170" x="627" y="341.5107">RateSource jest tworzony lub</text><text fill="#000000" font-family="sans-serif" font-size="13" lengthAdjust="spacing" textLength="226" x="627" y="357.8623">aktualizowany podczas synchronizacji.</text></g><!--link Currency to ExchangeRate--><g id="link_Currency_ExchangeRate"><path codeLine="33" d="M130.5,167.7194 C130.5,186.2094 130.5,181.2194 130.5,201.5794 " fill="none" id="Currency-ExchangeRate" style="stroke:#181818;stroke-width:1.0;"/><line style="stroke:#181818;stroke-width:1.0;" x1="126.5" x2="134.5" y1="163.7194" y2="163.7194"/><line style="stroke:#181818;stroke-width:1.0;" x1="126.5" x2="134.5" y1="166.7194" y2="166.7194"/><line style="stroke:#181818;stroke-width:1.0;" x1="130.5" x2="130.5" y1="167.7194" y2="159.7194"/><line style="stroke:#181818;stroke-width:1.0;" x1="130.5" x2="136.5" y1="211.5794" y2="219.5794"/><line style="stroke:#181818;stroke-width:1.0;" x1="130.5" x2="124.5" y1="211.5794" y2="219.5794"/><line style="stroke:#181818;stroke-width:1.0;" x1="130.5" x2="130.5" y1="211.5794" y2="219.5794"/><ellipse cx="130.5" cy="205.5794" fill="none" rx="4" ry="4" style="stroke:#181818;stroke-width:1.0;"/><text fill="#000000" font-family="sans-serif" font-size="13" lengthAdjust="spacing" textLength="62" x="67.5" y="186.1445">CurrencyId</text></g><!--link RateSource to ExchangeRate--><g id="link_RateSource_ExchangeRate"><path codeLine="34" d="M439.85,102.6094 C351.17,102.6094 222,102.6094 222,102.6094 C222,102.6094 222,145.3394 222,201.3294 " fill="none" id="RateSource-ExchangeRate" style="stroke:#181818;stroke-width:1.0;"/><line style="stroke:#181818;stroke-width:1.0;" x1="443.85" x2="443.85" y1="98.6094" y2="106.6094"/><line style="stroke:#181818;stroke-width:1.0;" x1="440.85" x2="440.85" y1="98.6094" y2="106.6094"/><line style="stroke:#181818;stroke-width:1.0;" x1="439.85" x2="447.85" y1="102.6094" y2="102.6094"/><line style="stroke:#181818;stroke-width:1.0;" x1="222" x2="228" y1="211.3294" y2="219.3294"/><line style="stroke:#181818;stroke-width:1.0;" x1="222" x2="216" y1="211.3294" y2="219.3294"/><line style="stroke:#181818;stroke-width:1.0;" x1="222" x2="222" y1="211.3294" y2="219.3294"/><ellipse cx="222" cy="205.3294" fill="none" rx="4" ry="4" style="stroke:#181818;stroke-width:1.0;"/><text fill="#000000" font-family="sans-serif" font-size="13" lengthAdjust="spacing" textLength="78" x="197.56" y="99.1045">RateSourceId</text></g><!--link RateSource to GMN10--><g id="link_RateSource_GMN10"><path d="M590.5,159.7194 C590.5,221.5994 590.5,311.6094 590.5,311.6094 C590.5,311.6094 603.02,311.6094 620.93,311.6094 " fill="none" id="RateSource-GMN10" style="stroke:#181818;stroke-width:1.0;stroke-dasharray:7.0,7.0;"/></g><!--SRC=[bLHTRzf047o_Nx7AKvj0grHzg50I2IYf4AsXeAXItuwx1Hy-tw7xABMJ_lUkmSAsH1NroRgTySxitDf11OqmYyuNSE0w1kX3RYLgaDmK8cMfaWX2EQ6H-KoPFNSy1wqCXcAFO5r8BMDeWWe5N8sZSsY4Gdy5t4DzBE2P0Lp3LC80b0bmTxUOFJnGhTy_0giYNrjDe0zEcUsnbl0SkvMf7ugWVbNLjRMQ_MbqbppWoaOdQk7c_9hqc8Ozon3wzFs8_gV-vBT8kTbYfNjoqAwywg6EgKLudDKscaakeQDOB9mIbIM9GkLSlxdzrFlubi1lIbw4w7KJjUPhZNMJ5MhzhoxNCDbiy3ZsvseIOj0Zg1m_7D573295EGmTX98vN_tBIxzldxjv35eZizPTNUQs8s3CM2ewjKq3s4s7ofwCohWs1QKaCVC3rWhsfflaJNSknduQBaeqYfOTpO2TWxq7N_Y0EMHn7tUqy19YMOJC7YenrcHt9lgzAr5ouZP4Ur3iV27trCjvSBZ1exiTETPn3TxHBcQmLl8zznbZFtn97JEoTE0kM2yKsBAooNSS5byJLdAuXHrAOuc6f- -tU4TBAQ5AgSvgRKEmUHLMam2RMLd0dWHZLXd00Kj6YnvCngCUBAUprMYOp7emcazwR3GVzs2S493CbrycAoedIzQ-jXtw0E5WNMbFep2UXSYrAks1_YAmjv9CUmh8YDHPeqekTgen-XS0]--></g></svg>