<?xml version="1.0" encoding="us-ascii" standalone="no"?><svg xmlns="http://www.w3.org/2000/svg" xmlns:xlink="http://www.w3.org/1999/xlink" contentStyleType="text/css" height="2250px" preserveAspectRatio="none" style="width:5863px;height:2250px;background:#FFFFFF;" version="1.1" viewBox="0 0 5863 2250" width="5863px" zoomAndPan="magnify"><defs/><g><text fill="#000000" font-family="sans-serif" font-size="14" font-weight="bold" lengthAdjust="spacing" textLength="353" x="2748" y="24.5332">External exchange rate integration - class diagram</text><!--cluster Frontend Angular--><g id="cluster_Frontend Angular"><path d="M107.5,44.6094 L231.5,44.6094 A3.75,3.75 0 0 1 234,47.1094 L241,68.2188 L676.5,68.2188 A2.5,2.5 0 0 1 679,70.7188 L679,553.1094 A2.5,2.5 0 0 1 676.5,555.6094 L107.5,555.6094 A2.5,2.5 0 0 1 105,553.1094 L105,47.1094 A2.5,2.5 0 0 1 107.5,44.6094 " fill="none" style="stroke:#000000;stroke-width:1.5;"/><line style="stroke:#000000;stroke-width:1.5;" x1="105" x2="241" y1="68.2188" y2="68.2188"/><text fill="#000000" font-family="sans-serif" font-size="14" font-weight="bold" lengthAdjust="spacing" textLength="123" x="109" y="61.1426">Frontend Angular</text></g><!--cluster API--><g id="cluster_API"><path d="M91.5,605.6094 L114.5,605.6094 A3.75,3.75 0 0 1 117,608.1094 L124,629.2188 L1382.5,629.2188 A2.5,2.5 0 0 1 1385,631.7188 L1385,837.1094 A2.5,2.5 0 0 1 1382.5,839.6094 L91.5,839.6094 A2.5,2.5 0 0 1 89,837.1094 L89,608.1094 A2.5,2.5 0 0 1 91.5,605.6094 " fill="none" style="stroke:#000000;stroke-width:1.5;"/><line style="stroke:#000000;stroke-width:1.5;" x1="89" x2="124" y1="629.2188" y2="629.2188"/><text fill="#000000" font-family="sans-serif" font-size="14" font-weight="bold" lengthAdjust="spacing" textLength="22" x="93" y="622.1426">API</text></g><!--cluster Application--><g id="cluster_Application"><path d="M8.5,889.6094 L87.5,889.6094 A3.75,3.75 0 0 1 90,892.1094 L97,913.2188 L2718.5,913.2188 A2.5,2.5 0 0 1 2721,915.7188 L2721,1991.1094 A2.5,2.5 0 0 1 2718.5,1993.6094 L8.5,1993.6094 A2.5,2.5 0 0 1 6,1991.1094 L6,892.1094 A2.5,2.5 0 0 1 8.5,889.6094 " fill="none" style="stroke:#000000;stroke-width:1.5;"/><line style="stroke:#000000;stroke-width:1.5;" x1="6" x2="97" y1="913.2188" y2="913.2188"/><text fill="#000000" font-family="sans-serif" font-size="14" font-weight="bold" lengthAdjust="spacing" textLength="78" x="10" y="906.1426">Application</text></g><!--cluster Interfaces--><g id="cluster_Interfaces"><path d="M32.5,933.6094 L104.5,933.6094 A3.75,3.75 0 0 1 107,936.1094 L114,957.2188 L2694.5,957.2188 A2.5,2.5 0 0 1 2697,959.7188 L2697,1101.1094 A2.5,2.5 0 0 1 2694.5,1103.6094 L32.5,1103.6094 A2.5,2.5 0 0 1 30,1101.1094 L30,936.1094 A2.5,2.5 0 0 1 32.5,933.6094 " fill="none" style="stroke:#000000;stroke-width:1.5;"/><line style="stroke:#000000;stroke-width:1.5;" x1="30" x2="114" y1="957.2188" y2="957.2188"/><text fill="#000000" font-family="sans-serif" font-size="14" font-weight="bold" lengthAdjust="spacing" textLength="71" x="34" y="950.1426">Interfaces</text></g><!--cluster Services--><g id="cluster_Services"><path d="M1397.5,1241.6094 L1460.5,1241.6094 A3.75,3.75 0 0 1 1463,1244.1094 L1470,1265.2188 L2034.5,1265.2188 A2.5,2.5 0 0 1 2037,1267.7188 L2037,1403.1094 A2.5,2.5 0 0 1 2034.5,1405.6094 L1397.5,1405.6094 A2.5,2.5 0 0 1 1395,1403.1094 L1395,1244.1094 A2.5,2.5 0 0 1 1397.5,1241.6094 " fill="none" style="stroke:#000000;stroke-width:1.5;"/><line style="stroke:#000000;stroke-width:1.5;" x1="1395" x2="1470" y1="1265.2188" y2="1265.2188"/><text fill="#000000" font-family="sans-serif" font-size="14" font-weight="bold" lengthAdjust="spacing" textLength="62" x="1399" y="1258.1426">Services</text></g><!--cluster DTOs--><g id="cluster_DTOs"><path d="M1555.5,1499.6094 L1593.5,1499.6094 A3.75,3.75 0 0 1 1596,1502.1094 L1603,1523.2188 L2694.5,1523.2188 A2.5,2.5 0 0 1 2697,1525.7188 L2697,1967.1094 A2.5,2.5 0 0 1 2694.5,1969.6094 L1555.5,1969.6094 A2.5,2.5 0 0 1 1553,1967.1094 L1553,1502.1094 A2.5,2.5 0 0 1 1555.5,1499.6094 " fill="none" style="stroke:#000000;stroke-width:1.5;"/><line style="stroke:#000000;stroke-width:1.5;" x1="1553" x2="1603" y1="1523.2188" y2="1523.2188"/><text fill="#000000" font-family="sans-serif" font-size="14" font-weight="bold" lengthAdjust="spacing" textLength="37" x="1557" y="1516.1426">DTOs</text></g><!--cluster Infrastructure--><g id="cluster_Infrastructure"><path d="M2747.5,1153.6094 L2845.5,1153.6094 A3.75,3.75 0 0 1 2848,1156.1094 L2855,1177.2188 L5553.5,1177.2188 A2.5,2.5 0 0 1 5556,1179.7188 L5556,1719.1094 A2.5,2.5 0 0 1 5553.5,1721.6094 L2747.5,1721.6094 A2.5,2.5 0 0 1 2745,1719.1094 L2745,1156.1094 A2.5,2.5 0 0 1 2747.5,1153.6094 " fill="none" style="stroke:#000000;stroke-width:1.5;"/><line style="stroke:#000000;stroke-width:1.5;" x1="2745" x2="2855" y1="1177.2188" y2="1177.2188"/><text fill="#000000" font-family="sans-serif" font-size="14" font-weight="bold" lengthAdjust="spacing" textLength="97" x="2749" y="1170.1426">Infrastructure</text></g><!--cluster Services--><g id="cluster_Services"><path d="M2771.5,1197.6094 L2834.5,1197.6094 A3.75,3.75 0 0 1 2837,1200.1094 L2844,1221.2188 L3552.5,1221.2188 A2.5,2.5 0 0 1 3555,1223.7188 L3555,1447.1094 A2.5,2.5 0 0 1 3552.5,1449.6094 L2771.5,1449.6094 A2.5,2.5 0 0 1 2769,1447.1094 L2769,1200.1094 A2.5,2.5 0 0 1 2771.5,1197.6094 " fill="none" style="stroke:#000000;stroke-width:1.5;"/><line style="stroke:#000000;stroke-width:1.5;" x1="2769" x2="2844" y1="1221.2188" y2="1221.2188"/><text fill="#000000" font-family="sans-serif" font-size="14" font-weight="bold" lengthAdjust="spacing" textLength="62" x="2773" y="1214.1426">Services</text></g><!--cluster ExternalServices--><g id="cluster_ExternalServices"><path d="M3581.5,1224.1094 L3702.5,1224.1094 A3.75,3.75 0 0 1 3705,1226.6094 L3712,1247.7188 L4863.5,1247.7188 A2.5,2.5 0 0 1 4866,1250.2188 L4866,1420.6094 A2.5,2.5 0 0 1 4863.5,1423.1094 L3581.5,1423.1094 A2.5,2.5 0 0 1 3579,1420.6094 L3579,1226.6094 A2.5,2.5 0 0 1 3581.5,1224.1094 " fill="none" style="stroke:#000000;stroke-width:1.5;"/><line style="stroke:#000000;stroke-width:1.5;" x1="3579" x2="3712" y1="1247.7188" y2="1247.7188"/><text fill="#000000" font-family="sans-serif" font-size="14" font-weight="bold" lengthAdjust="spacing" textLength="120" x="3583" y="1240.6426">ExternalServices</text></g><!--cluster Persistence--><g id="cluster_Persistence"><path d="M4892.5,1245.6094 L4977.5,1245.6094 A3.75,3.75 0 0 1 4980,1248.1094 L4987,1269.2188 L5529.5,1269.2188 A2.5,2.5 0 0 1 5532,1271.7188 L5532,1695.1094 A2.5,2.5 0 0 1 5529.5,1697.6094 L4892.5,1697.6094 A2.5,2.5 0 0 1 4890,1695.1094 L4890,1248.1094 A2.5,2.5 0 0 1 4892.5,1245.6094 " fill="none" style="stroke:#000000;stroke-width:1.5;"/><line style="stroke:#000000;stroke-width:1.5;" x1="4890" x2="4987" y1="1269.2188" y2="1269.2188"/><text fill="#000000" font-family="sans-serif" font-size="14" font-weight="bold" lengthAdjust="spacing" textLength="84" x="4894" y="1262.1426">Persistence</text></g><!--cluster Domain--><g id="cluster_Domain"><path d="M4622.5,1754.6094 L4675.5,1754.6094 A3.75,3.75 0 0 1 4678,1757.1094 L4685,1778.2188 L5332.5,1778.2188 A2.5,2.5 0 0 1 5335,1780.7188 L5335,2241.1094 A2.5,2.5 0 0 1 5332.5,2243.6094 L4622.5,2243.6094 A2.5,2.5 0 0 1 4620,2241.1094 L4620,1757.1094 A2.5,2.5 0 0 1 4622.5,1754.6094 " fill="none" style="stroke:#000000;stroke-width:1.5;"/><line style="stroke:#000000;stroke-width:1.5;" x1="4620" x2="4685" y1="1778.2188" y2="1778.2188"/><text fill="#000000" font-family="sans-serif" font-size="14" font-weight="bold" lengthAdjust="spacing" textLength="52" x="4624" y="1771.1426">Domain</text></g><!--cluster Entities--><g id="cluster_Entities"><path d="M4646.5,1798.6094 L4700.5,1798.6094 A3.75,3.75 0 0 1 4703,1801.1094 L4710,1822.2188 L5308.5,1822.2188 A2.5,2.5 0 0 1 5311,1824.7188 L5311,2217.1094 A2.5,2.5 0 0 1 5308.5,2219.6094 L4646.5,2219.6094 A2.5,2.5 0 0 1 4644,2217.1094 L4644,1801.1094 A2.5,2.5 0 0 1 4646.5,1798.6094 " fill="none" style="stroke:#000000;stroke-width:1.5;"/><line style="stroke:#000000;stroke-width:1.5;" x1="4644" x2="4710" y1="1822.2188" y2="1822.2188"/><text fill="#000000" font-family="sans-serif" font-size="14" font-weight="bold" lengthAdjust="spacing" textLength="53" x="4648" y="1815.1426">Entities</text></g><!--class ExchangeRateDashboard--><g id="elem_ExchangeRateDashboard"><rect codeLine="7" fill="#F1F1F1" height="252.4063" id="ExchangeRateDashboard" rx="2.5" ry="2.5" style="stroke:#181818;stroke-width:0.5;" width="541" x="121.5" y="80.6094"/><ellipse cx="306.75" cy="101.9609" fill="#ADD1B2" rx="11" ry="11" style="stroke:#181818;stroke-width:1.0;"/><path d="M309.5156,97.8359 Q309.6719,97.6172 309.8594,97.5078 Q310.0469,97.3984 310.2656,97.3984 Q310.6406,97.3984 310.875,97.6641 Q311.1094,97.9141 311.1094,98.5234 L311.1094,99.9766 Q311.1094,100.5859 310.875,100.8516 Q310.6406,101.1172 310.2656,101.1172 Q309.9219,101.1172 309.7188,100.9141 Q309.5156,100.7266 309.4063,100.2109 Q309.3594,99.8516 309.1719,99.6641 Q308.8438,99.2891 308.2344,99.0703 Q307.625,98.8516 307,98.8516 Q306.2344,98.8516 305.5938,99.1797 Q304.9688,99.5078 304.4688,100.2578 Q303.9844,101.0078 303.9844,102.0391 L303.9844,103.1328 Q303.9844,104.3672 304.875,105.1953 Q305.7656,106.0078 307.3594,106.0078 Q308.2969,106.0078 308.9531,105.7578 Q309.3438,105.6016 309.7656,105.1641 Q310.0313,104.8984 310.1719,104.8203 Q310.3281,104.7422 310.5313,104.7422 Q310.8594,104.7422 311.1094,105.0078 Q311.375,105.2578 311.375,105.6016 Q311.375,105.9453 311.0313,106.3516 Q310.5313,106.9297 309.7344,107.2578 Q308.6563,107.7109 307.3594,107.7109 Q305.8438,107.7109 304.6406,107.0859 Q303.6563,106.5859 302.9688,105.5234 Q302.2813,104.4453 302.2813,103.1641 L302.2813,102.0078 Q302.2813,100.6797 302.8906,99.5391 Q303.5156,98.3828 304.6094,97.7734 Q305.7031,97.1484 306.9375,97.1484 Q307.6719,97.1484 308.3125,97.3203 Q308.9688,97.4766 309.5156,97.8359 Z " fill="#000000"/><text fill="#000000" font-family="sans-serif" font-size="12" font-style="italic" lengthAdjust="spacing" textLength="76" x="370.25" y="98.0664">&#171;component&#187;</text><text fill="#000000" font-family="sans-serif" font-size="14" lengthAdjust="spacing" textLength="162" x="327.25" y="115.2363">ExchangeRateDashboard</text><line style="stroke:#181818;stroke-width:0.5;" x1="122.5" x2="661.5" y1="123.3125" y2="123.3125"/><text fill="#000000" font-family="sans-serif" font-size="14" lengthAdjust="spacing" textLength="103" x="127.5" y="141.8457">-currency: string</text><text fill="#000000" font-family="sans-serif" font-size="14" lengthAdjust="spacing" textLength="91" x="127.5" y="159.4551">-source: string</text><text fill="#000000" font-family="sans-serif" font-size="14" lengthAdjust="spacing" textLength="76" x="127.5" y="177.0645">-from: string</text><text fill="#000000" font-family="sans-serif" font-size="14" lengthAdjust="spacing" textLength="60" x="127.5" y="194.6738">-to: string</text><text fill="#000000" font-family="sans-serif" font-size="14" lengthAdjust="spacing" textLength="251" x="127.5" y="212.2832">-chartPoints: ExchangeRateChartPoint[]</text><text fill="#000000" font-family="sans-serif" font-size="14" lengthAdjust="spacing" textLength="247" x="127.5" y="229.8926">-latestRates: ExchangeRateTableRow[]</text><line style="stroke:#181818;stroke-width:0.5;" x1="122.5" x2="661.5" y1="236.9688" y2="236.9688"/><text fill="#000000" font-family="sans-serif" font-size="14" lengthAdjust="spacing" textLength="180" x="127.5" y="255.502">+fetchData(): Promise&lt;void&gt;</text><text fill="#000000" font-family="sans-serif" font-size="14" lengthAdjust="spacing" textLength="249" x="127.5" y="273.1113">+onSourceChange(source: string): void</text><text fill="#000000" font-family="sans-serif" font-size="14" lengthAdjust="spacing" textLength="245" x="127.5" y="290.7207">+selectCurrency(currency: string): void</text><text fill="#000000" font-family="sans-serif" font-size="14" lengthAdjust="spacing" textLength="529" x="127.5" y="308.3301">+isCurrencyAvailableForSource(currencyCode: string, sourceCode: string): boolean</text><text fill="#000000" font-family="sans-serif" font-size="14" lengthAdjust="spacing" textLength="261" x="127.5" y="325.9395">-loadDataFromBackend(): Promise&lt;void&gt;</text></g><!--class ExchangeRateApiService--><g id="elem_ExchangeRateApiService"><rect codeLine="21" fill="#F1F1F1" height="129.1406" id="ExchangeRateApiService" rx="2.5" ry="2.5" style="stroke:#181818;stroke-width:0.5;" width="449" x="167.5" y="410.6094"/><ellipse cx="308.25" cy="431.9609" fill="#ADD1B2" rx="11" ry="11" style="stroke:#181818;stroke-width:1.0;"/><path d="M311.0156,427.8359 Q311.1719,427.6172 311.3594,427.5078 Q311.5469,427.3984 311.7656,427.3984 Q312.1406,427.3984 312.375,427.6641 Q312.6094,427.9141 312.6094,428.5234 L312.6094,429.9766 Q312.6094,430.5859 312.375,430.8516 Q312.1406,431.1172 311.7656,431.1172 Q311.4219,431.1172 311.2188,430.9141 Q311.0156,430.7266 310.9063,430.2109 Q310.8594,429.8516 310.6719,429.6641 Q310.3438,429.2891 309.7344,429.0703 Q309.125,428.8516 308.5,428.8516 Q307.7344,428.8516 307.0938,429.1797 Q306.4688,429.5078 305.9688,430.2578 Q305.4844,431.0078 305.4844,432.0391 L305.4844,433.1328 Q305.4844,434.3672 306.375,435.1953 Q307.2656,436.0078 308.8594,436.0078 Q309.7969,436.0078 310.4531,435.7578 Q310.8438,435.6016 311.2656,435.1641 Q311.5313,434.8984 311.6719,434.8203 Q311.8281,434.7422 312.0313,434.7422 Q312.3594,434.7422 312.6094,435.0078 Q312.875,435.2578 312.875,435.6016 Q312.875,435.9453 312.5313,436.3516 Q312.0313,436.9297 311.2344,437.2578 Q310.1563,437.7109 308.8594,437.7109 Q307.3438,437.7109 306.1406,437.0859 Q305.1563,436.5859 304.4688,435.5234 Q303.7813,434.4453 303.7813,433.1641 L303.7813,432.0078 Q303.7813,430.6797 304.3906,429.5391 Q305.0156,428.3828 306.1094,427.7734 Q307.2031,427.1484 308.4375,427.1484 Q309.1719,427.1484 309.8125,427.3203 Q310.4688,427.4766 311.0156,427.8359 Z " fill="#000000"/><text fill="#000000" font-family="sans-serif" font-size="12" font-style="italic" lengthAdjust="spacing" textLength="53" x="381.75" y="428.0664">&#171;service&#187;</text><text fill="#000000" font-family="sans-serif" font-size="14" lengthAdjust="spacing" textLength="159" x="328.75" y="445.2363">ExchangeRateApiService</text><line style="stroke:#181818;stroke-width:0.5;" x1="168.5" x2="615.5" y1="453.3125" y2="453.3125"/><text fill="#000000" font-family="sans-serif" font-size="14" lengthAdjust="spacing" textLength="84" x="173.5" y="471.8457">-apiUrl: string</text><line style="stroke:#181818;stroke-width:0.5;" x1="168.5" x2="615.5" y1="478.9219" y2="478.9219"/><text fill="#000000" font-family="sans-serif" font-size="14" lengthAdjust="spacing" textLength="437" x="173.5" y="497.4551">+getChartData(currency: string, source: string, from: string, to: string)</text><text fill="#000000" font-family="sans-serif" font-size="14" lengthAdjust="spacing" textLength="200" x="173.5" y="515.0645">+getLatestRates(source: string)</text><text fill="#000000" font-family="sans-serif" font-size="14" lengthAdjust="spacing" textLength="243" x="173.5" y="532.6738">+syncNbpRates(from: string, to: string)</text></g><!--class ExchangeRatesController--><g id="elem_ExchangeRatesController"><rect codeLine="30" fill="#F1F1F1" height="181.9688" id="ExchangeRatesController" rx="2.5" ry="2.5" style="stroke:#181818;stroke-width:0.5;" width="573" x="105.5" y="641.6094"/><ellipse cx="307.25" cy="662.9609" fill="#ADD1B2" rx="11" ry="11" style="stroke:#181818;stroke-width:1.0;"/><path d="M310.0156,658.8359 Q310.1719,658.6172 310.3594,658.5078 Q310.5469,658.3984 310.7656,658.3984 Q311.1406,658.3984 311.375,658.6641 Q311.6094,658.9141 311.6094,659.5234 L311.6094,660.9766 Q311.6094,661.5859 311.375,661.8516 Q311.1406,662.1172 310.7656,662.1172 Q310.4219,662.1172 310.2188,661.9141 Q310.0156,661.7266 309.9063,661.2109 Q309.8594,660.8516 309.6719,660.6641 Q309.3438,660.2891 308.7344,660.0703 Q308.125,659.8516 307.5,659.8516 Q306.7344,659.8516 306.0938,660.1797 Q305.4688,660.5078 304.9688,661.2578 Q304.4844,662.0078 304.4844,663.0391 L304.4844,664.1328 Q304.4844,665.3672 305.375,666.1953 Q306.2656,667.0078 307.8594,667.0078 Q308.7969,667.0078 309.4531,666.7578 Q309.8438,666.6016 310.2656,666.1641 Q310.5313,665.8984 310.6719,665.8203 Q310.8281,665.7422 311.0313,665.7422 Q311.3594,665.7422 311.6094,666.0078 Q311.875,666.2578 311.875,666.6016 Q311.875,666.9453 311.5313,667.3516 Q311.0313,667.9297 310.2344,668.2578 Q309.1563,668.7109 307.8594,668.7109 Q306.3438,668.7109 305.1406,668.0859 Q304.1563,667.5859 303.4688,666.5234 Q302.7813,665.4453 302.7813,664.1641 L302.7813,663.0078 Q302.7813,661.6797 303.3906,660.5391 Q304.0156,659.3828 305.1094,658.7734 Q306.2031,658.1484 307.4375,658.1484 Q308.1719,658.1484 308.8125,658.3203 Q309.4688,658.4766 310.0156,658.8359 Z " fill="#000000"/><text fill="#000000" font-family="sans-serif" font-size="12" font-style="italic" lengthAdjust="spacing" textLength="65" x="375.75" y="659.0664">&#171;controller&#187;</text><text fill="#000000" font-family="sans-serif" font-size="14" lengthAdjust="spacing" textLength="161" x="327.75" y="676.2363">ExchangeRatesController</text><line style="stroke:#181818;stroke-width:0.5;" x1="106.5" x2="677.5" y1="684.3125" y2="684.3125"/><text fill="#000000" font-family="sans-serif" font-size="14" lengthAdjust="spacing" textLength="301" x="111.5" y="702.8457">-_exchangeRateService: IExchangeRateService</text><text fill="#000000" font-family="sans-serif" font-size="14" lengthAdjust="spacing" textLength="363" x="111.5" y="720.4551">-_exchangeRateSyncService: IExchangeRateSyncService</text><line style="stroke:#181818;stroke-width:0.5;" x1="106.5" x2="677.5" y1="727.5313" y2="727.5313"/><text fill="#000000" font-family="sans-serif" font-size="14" lengthAdjust="spacing" textLength="508" x="111.5" y="746.0645">+GetChartData(currency: string, source: string, from: DateTime?, to: DateTime?)</text><text fill="#000000" font-family="sans-serif" font-size="14" lengthAdjust="spacing" textLength="317" x="111.5" y="763.6738">+GetLatestRates(source: string, currency: string?)</text><text fill="#000000" font-family="sans-serif" font-size="14" lengthAdjust="spacing" textLength="546" x="111.5" y="781.2832">+SyncNbpRates(from: DateTime, to: DateTime, cancellationToken: CancellationToken)</text><text fill="#000000" font-family="sans-serif" font-size="14" lengthAdjust="spacing" textLength="561" x="111.5" y="798.8926">+SyncEcbRates(from: DateTime?, to: DateTime?, cancellationToken: CancellationToken)</text><text fill="#000000" font-family="sans-serif" font-size="14" lengthAdjust="spacing" textLength="477" x="111.5" y="816.502">+SyncRatesBySource(sourceCode: string, from: DateTime?, to: DateTime?)</text></g><!--class NbpExchangeRateStartupSyncService--><g id="elem_NbpExchangeRateStartupSyncService"><rect codeLine="40" fill="#F1F1F1" height="121.1406" id="NbpExchangeRateStartupSyncService" rx="2.5" ry="2.5" style="stroke:#181818;stroke-width:0.5;" width="655" x="713.5" y="672.1094"/><ellipse cx="916.25" cy="693.4609" fill="#ADD1B2" rx="11" ry="11" style="stroke:#181818;stroke-width:1.0;"/><path d="M919.0156,689.3359 Q919.1719,689.1172 919.3594,689.0078 Q919.5469,688.8984 919.7656,688.8984 Q920.1406,688.8984 920.375,689.1641 Q920.6094,689.4141 920.6094,690.0234 L920.6094,691.4766 Q920.6094,692.0859 920.375,692.3516 Q920.1406,692.6172 919.7656,692.6172 Q919.4219,692.6172 919.2188,692.4141 Q919.0156,692.2266 918.9063,691.7109 Q918.8594,691.3516 918.6719,691.1641 Q918.3438,690.7891 917.7344,690.5703 Q917.125,690.3516 916.5,690.3516 Q915.7344,690.3516 915.0938,690.6797 Q914.4688,691.0078 913.9688,691.7578 Q913.4844,692.5078 913.4844,693.5391 L913.4844,694.6328 Q913.4844,695.8672 914.375,696.6953 Q915.2656,697.5078 916.8594,697.5078 Q917.7969,697.5078 918.4531,697.2578 Q918.8438,697.1016 919.2656,696.6641 Q919.5313,696.3984 919.6719,696.3203 Q919.8281,696.2422 920.0313,696.2422 Q920.3594,696.2422 920.6094,696.5078 Q920.875,696.7578 920.875,697.1016 Q920.875,697.4453 920.5313,697.8516 Q920.0313,698.4297 919.2344,698.7578 Q918.1563,699.2109 916.8594,699.2109 Q915.3438,699.2109 914.1406,698.5859 Q913.1563,698.0859 912.4688,697.0234 Q911.7813,695.9453 911.7813,694.6641 L911.7813,693.5078 Q911.7813,692.1797 912.3906,691.0391 Q913.0156,689.8828 914.1094,689.2734 Q915.2031,688.6484 916.4375,688.6484 Q917.1719,688.6484 917.8125,688.8203 Q918.4688,688.9766 919.0156,689.3359 Z " fill="#000000"/><text fill="#000000" font-family="sans-serif" font-size="12" font-style="italic" lengthAdjust="spacing" textLength="93" x="1010.75" y="689.5664">&#171;hosted service&#187;</text><text fill="#000000" font-family="sans-serif" font-size="14" lengthAdjust="spacing" textLength="241" x="936.75" y="706.7363">NbpExchangeRateStartupSyncService</text><line style="stroke:#181818;stroke-width:0.5;" x1="714.5" x2="1367.5" y1="714.8125" y2="714.8125"/><text fill="#000000" font-family="sans-serif" font-size="14" lengthAdjust="spacing" textLength="327" x="719.5" y="733.3457">+StartAsync(cancellationToken: CancellationToken)</text><text fill="#000000" font-family="sans-serif" font-size="14" lengthAdjust="spacing" textLength="326" x="719.5" y="750.9551">+StopAsync(cancellationToken: CancellationToken)</text><text fill="#000000" font-family="sans-serif" font-size="14" lengthAdjust="spacing" textLength="617" x="719.5" y="768.5645">-GetNextMissingDateAsync(context: ApplicationDbContext, cancellationToken: CancellationToken)</text><text fill="#000000" font-family="sans-serif" font-size="14" lengthAdjust="spacing" textLength="643" x="719.5" y="786.1738">-WaitForDatabaseServerAsync(context: ApplicationDbContext, cancellationToken: CancellationToken)</text></g><!--class IExchangeRateService--><g id="elem_IExchangeRateService"><rect codeLine="49" fill="#F1F1F1" height="75.2188" id="IExchangeRateService" rx="2.5" ry="2.5" style="stroke:#181818;stroke-width:0.5;" width="610" x="46" y="991.1094"/><ellipse cx="275.75" cy="1007.1094" fill="#B4A7E5" rx="11" ry="11" style="stroke:#181818;stroke-width:1.0;"/><path d="M276.7031,1003.75 L276.7031,1010.4063 L278.4219,1010.4063 Q279.0313,1010.4063 279.2969,1010.6406 Q279.5625,1010.875 279.5625,1011.2656 Q279.5625,1011.6406 279.2969,1011.875 Q279.0313,1012.1094 278.4219,1012.1094 L273.2813,1012.1094 Q272.6719,1012.1094 272.4063,1011.875 Q272.1406,1011.6406 272.1406,1011.25 Q272.1406,1010.875 272.4063,1010.6406 Q272.6719,1010.4063 273.2813,1010.4063 L275,1010.4063 L275,1003.75 L273.2813,1003.75 Q272.6719,1003.75 272.4063,1003.5156 Q272.1406,1003.2813 272.1406,1002.8906 Q272.1406,1002.5156 272.4063,1002.2813 Q272.6719,1002.0469 273.2813,1002.0469 L278.4219,1002.0469 Q279.0313,1002.0469 279.2969,1002.2813 Q279.5625,1002.5156 279.5625,1002.8906 Q279.5625,1003.2813 279.2969,1003.5156 Q279.0313,1003.75 278.4219,1003.75 L276.7031,1003.75 Z " fill="#000000"/><text fill="#000000" font-family="sans-serif" font-size="14" font-style="italic" lengthAdjust="spacing" textLength="142" x="296.25" y="1012.8379">IExchangeRateService</text><line style="stroke:#181818;stroke-width:0.5;" x1="47" x2="655" y1="1023.1094" y2="1023.1094"/><text fill="#000000" font-family="sans-serif" font-size="14" lengthAdjust="spacing" textLength="598" x="52" y="1041.6426">+GetChartDataAsync(currencyCode: string, sourceCode: string, from: DateTime, to: DateTime)</text><text fill="#000000" font-family="sans-serif" font-size="14" lengthAdjust="spacing" textLength="423" x="52" y="1059.252">+GetLatestRatesAsync(sourceCode: string, currencyCode: string?)</text></g><!--class IExchangeRateSyncService--><g id="elem_IExchangeRateSyncService"><rect codeLine="54" fill="#F1F1F1" height="92.8281" id="IExchangeRateSyncService" rx="2.5" ry="2.5" style="stroke:#181818;stroke-width:0.5;" width="699" x="691.5" y="982.1094"/><ellipse cx="950.25" cy="998.1094" fill="#B4A7E5" rx="11" ry="11" style="stroke:#181818;stroke-width:1.0;"/><path d="M951.2031,994.75 L951.2031,1001.4063 L952.9219,1001.4063 Q953.5313,1001.4063 953.7969,1001.6406 Q954.0625,1001.875 954.0625,1002.2656 Q954.0625,1002.6406 953.7969,1002.875 Q953.5313,1003.1094 952.9219,1003.1094 L947.7813,1003.1094 Q947.1719,1003.1094 946.9063,1002.875 Q946.6406,1002.6406 946.6406,1002.25 Q946.6406,1001.875 946.9063,1001.6406 Q947.1719,1001.4063 947.7813,1001.4063 L949.5,1001.4063 L949.5,994.75 L947.7813,994.75 Q947.1719,994.75 946.9063,994.5156 Q946.6406,994.2813 946.6406,993.8906 Q946.6406,993.5156 946.9063,993.2813 Q947.1719,993.0469 947.7813,993.0469 L952.9219,993.0469 Q953.5313,993.0469 953.7969,993.2813 Q954.0625,993.5156 954.0625,993.8906 Q954.0625,994.2813 953.7969,994.5156 Q953.5313,994.75 952.9219,994.75 L951.2031,994.75 Z " fill="#000000"/><text fill="#000000" font-family="sans-serif" font-size="14" font-style="italic" lengthAdjust="spacing" textLength="173" x="970.75" y="1003.8379">IExchangeRateSyncService</text><line style="stroke:#181818;stroke-width:0.5;" x1="692.5" x2="1389.5" y1="1014.1094" y2="1014.1094"/><text fill="#000000" font-family="sans-serif" font-size="14" lengthAdjust="spacing" textLength="687" x="697.5" y="1032.6426">+SyncRatesAsync(sourceCode: string, from: DateTime, to: DateTime, cancellationToken: CancellationToken)</text><text fill="#000000" font-family="sans-serif" font-size="14" lengthAdjust="spacing" textLength="571" x="697.5" y="1050.252">+SyncCurrentYearRatesAsync(sourceCode: string, cancellationToken: CancellationToken)</text><text fill="#000000" font-family="sans-serif" font-size="14" lengthAdjust="spacing" textLength="584" x="697.5" y="1067.8613">+SyncNbpRatesAsync(from: DateTime, to: DateTime, cancellationToken: CancellationToken)</text></g><!--class IExternalExchangeRateClient--><g id="elem_IExternalExchangeRateClient"><rect codeLine="60" fill="#F1F1F1" height="118.4375" id="IExternalExchangeRateClient" rx="2.5" ry="2.5" style="stroke:#181818;stroke-width:0.5;" width="610" x="2071" y="969.6094"/><ellipse cx="2280.25" cy="985.6094" fill="#B4A7E5" rx="11" ry="11" style="stroke:#181818;stroke-width:1.0;"/><path d="M2281.2031,982.25 L2281.2031,988.9063 L2282.9219,988.9063 Q2283.5313,988.9063 2283.7969,989.1406 Q2284.0625,989.375 2284.0625,989.7656 Q2284.0625,990.1406 2283.7969,990.375 Q2283.5313,990.6094 2282.9219,990.6094 L2277.7813,990.6094 Q2277.1719,990.6094 2276.9063,990.375 Q2276.6406,990.1406 2276.6406,989.75 Q2276.6406,989.375 2276.9063,989.1406 Q2277.1719,988.9063 2277.7813,988.9063 L2279.5,988.9063 L2279.5,982.25 L2277.7813,982.25 Q2277.1719,982.25 2276.9063,982.0156 Q2276.6406,981.7813 2276.6406,981.3906 Q2276.6406,981.0156 2276.9063,980.7813 Q2277.1719,980.5469 2277.7813,980.5469 L2282.9219,980.5469 Q2283.5313,980.5469 2283.7969,980.7813 Q2284.0625,981.0156 2284.0625,981.3906 Q2284.0625,981.7813 2283.7969,982.0156 Q2283.5313,982.25 2282.9219,982.25 L2281.2031,982.25 Z " fill="#000000"/><text fill="#000000" font-family="sans-serif" font-size="14" font-style="italic" lengthAdjust="spacing" textLength="183" x="2300.75" y="991.3379">IExternalExchangeRateClient</text><line style="stroke:#181818;stroke-width:0.5;" x1="2072" x2="2680" y1="1001.6094" y2="1001.6094"/><text fill="#000000" font-family="sans-serif" font-size="14" lengthAdjust="spacing" textLength="130" x="2077" y="1020.1426">+SourceCode: string</text><text fill="#000000" font-family="sans-serif" font-size="14" lengthAdjust="spacing" textLength="132" x="2077" y="1037.752">+SourceName: string</text><text fill="#000000" font-family="sans-serif" font-size="14" lengthAdjust="spacing" textLength="130" x="2077" y="1055.3613">+MaxRangeDays: int</text><line style="stroke:#181818;stroke-width:0.5;" x1="2072" x2="2680" y1="1062.4375" y2="1062.4375"/><text fill="#000000" font-family="sans-serif" font-size="14" lengthAdjust="spacing" textLength="598" x="2077" y="1080.9707">+GetBuySellRatesAsync(from: DateTime, to: DateTime, cancellationToken: CancellationToken)</text></g><!--class IExchangeRateRepository--><g id="elem_IExchangeRateRepository"><rect codeLine="67" fill="#F1F1F1" height="92.8281" id="IExchangeRateRepository" rx="2.5" ry="2.5" style="stroke:#181818;stroke-width:0.5;" width="610" x="1426" y="982.1094"/><ellipse cx="1644.75" cy="998.1094" fill="#B4A7E5" rx="11" ry="11" style="stroke:#181818;stroke-width:1.0;"/><path d="M1645.7031,994.75 L1645.7031,1001.4063 L1647.4219,1001.4063 Q1648.0313,1001.4063 1648.2969,1001.6406 Q1648.5625,1001.875 1648.5625,1002.2656 Q1648.5625,1002.6406 1648.2969,1002.875 Q1648.0313,1003.1094 1647.4219,1003.1094 L1642.2813,1003.1094 Q1641.6719,1003.1094 1641.4063,1002.875 Q1641.1406,1002.6406 1641.1406,1002.25 Q1641.1406,1001.875 1641.4063,1001.6406 Q1641.6719,1001.4063 1642.2813,1001.4063 L1644,1001.4063 L1644,994.75 L1642.2813,994.75 Q1641.6719,994.75 1641.4063,994.5156 Q1641.1406,994.2813 1641.1406,993.8906 Q1641.1406,993.5156 1641.4063,993.2813 Q1641.6719,993.0469 1642.2813,993.0469 L1647.4219,993.0469 Q1648.0313,993.0469 1648.2969,993.2813 Q1648.5625,993.5156 1648.5625,993.8906 Q1648.5625,994.2813 1648.2969,994.5156 Q1648.0313,994.75 1647.4219,994.75 L1645.7031,994.75 Z " fill="#000000"/><text fill="#000000" font-family="sans-serif" font-size="14" font-style="italic" lengthAdjust="spacing" textLength="164" x="1665.25" y="1003.8379">IExchangeRateRepository</text><line style="stroke:#181818;stroke-width:0.5;" x1="1427" x2="2035" y1="1014.1094" y2="1014.1094"/><text fill="#000000" font-family="sans-serif" font-size="14" lengthAdjust="spacing" textLength="598" x="1432" y="1032.6426">+GetChartDataAsync(currencyCode: string, sourceCode: string, from: DateTime, to: DateTime)</text><text fill="#000000" font-family="sans-serif" font-size="14" lengthAdjust="spacing" textLength="423" x="1432" y="1050.252">+GetLatestRatesAsync(sourceCode: string, currencyCode: string?)</text><text fill="#000000" font-family="sans-serif" font-size="14" lengthAdjust="spacing" textLength="453" x="1432" y="1067.8613">+ExistsAsync(currencyId: int, rateSourceId: int, effectiveDate: DateTime)</text></g><!--class ExchangeRateService--><g id="elem_ExchangeRateService"><rect codeLine="75" fill="#F1F1F1" height="111.5313" id="ExchangeRateService" rx="2.5" ry="2.5" style="stroke:#181818;stroke-width:0.5;" width="610" x="1411" y="1277.6094"/><ellipse cx="1642.25" cy="1298.9609" fill="#ADD1B2" rx="11" ry="11" style="stroke:#181818;stroke-width:1.0;"/><path d="M1645.0156,1294.8359 Q1645.1719,1294.6172 1645.3594,1294.5078 Q1645.5469,1294.3984 1645.7656,1294.3984 Q1646.1406,1294.3984 1646.375,1294.6641 Q1646.6094,1294.9141 1646.6094,1295.5234 L1646.6094,1296.9766 Q1646.6094,1297.5859 1646.375,1297.8516 Q1646.1406,1298.1172 1645.7656,1298.1172 Q1645.4219,1298.1172 1645.2188,1297.9141 Q1645.0156,1297.7266 1644.9063,1297.2109 Q1644.8594,1296.8516 1644.6719,1296.6641 Q1644.3438,1296.2891 1643.7344,1296.0703 Q1643.125,1295.8516 1642.5,1295.8516 Q1641.7344,1295.8516 1641.0938,1296.1797 Q1640.4688,1296.5078 1639.9688,1297.2578 Q1639.4844,1298.0078 1639.4844,1299.0391 L1639.4844,1300.1328 Q1639.4844,1301.3672 1640.375,1302.1953 Q1641.2656,1303.0078 1642.8594,1303.0078 Q1643.7969,1303.0078 1644.4531,1302.7578 Q1644.8438,1302.6016 1645.2656,1302.1641 Q1645.5313,1301.8984 1645.6719,1301.8203 Q1645.8281,1301.7422 1646.0313,1301.7422 Q1646.3594,1301.7422 1646.6094,1302.0078 Q1646.875,1302.2578 1646.875,1302.6016 Q1646.875,1302.9453 1646.5313,1303.3516 Q1646.0313,1303.9297 1645.2344,1304.2578 Q1644.1563,1304.7109 1642.8594,1304.7109 Q1641.3438,1304.7109 1640.1406,1304.0859 Q1639.1563,1303.5859 1638.4688,1302.5234 Q1637.7813,1301.4453 1637.7813,1300.1641 L1637.7813,1299.0078 Q1637.7813,1297.6797 1638.3906,1296.5391 Q1639.0156,1295.3828 1640.1094,1294.7734 Q1641.2031,1294.1484 1642.4375,1294.1484 Q1643.1719,1294.1484 1643.8125,1294.3203 Q1644.4688,1294.4766 1645.0156,1294.8359 Z " fill="#000000"/><text fill="#000000" font-family="sans-serif" font-size="12" font-style="italic" lengthAdjust="spacing" textLength="53" x="1705.75" y="1295.0664">&#171;service&#187;</text><text fill="#000000" font-family="sans-serif" font-size="14" lengthAdjust="spacing" textLength="139" x="1662.75" y="1312.2363">ExchangeRateService</text><line style="stroke:#181818;stroke-width:0.5;" x1="1412" x2="2020" y1="1320.3125" y2="1320.3125"/><text fill="#000000" font-family="sans-serif" font-size="14" lengthAdjust="spacing" textLength="343" x="1417" y="1338.8457">-_exchangeRateRepository: IExchangeRateRepository</text><line style="stroke:#181818;stroke-width:0.5;" x1="1412" x2="2020" y1="1345.9219" y2="1345.9219"/><text fill="#000000" font-family="sans-serif" font-size="14" lengthAdjust="spacing" textLength="598" x="1417" y="1364.4551">+GetChartDataAsync(currencyCode: string, sourceCode: string, from: DateTime, to: DateTime)</text><text fill="#000000" font-family="sans-serif" font-size="14" lengthAdjust="spacing" textLength="423" x="1417" y="1382.0645">+GetLatestRatesAsync(sourceCode: string, currencyCode: string?)</text></g><!--class ExternalExchangeRateTableDto--><g id="elem_ExternalExchangeRateTableDto"><rect codeLine="83" fill="#F1F1F1" height="110.4375" id="ExternalExchangeRateTableDto" rx="2.5" ry="2.5" style="stroke:#181818;stroke-width:0.5;" width="294" x="2387" y="1562.1094"/><ellipse cx="2429.45" cy="1578.1094" fill="#ADD1B2" rx="11" ry="11" style="stroke:#181818;stroke-width:1.0;"/><path d="M2432.2156,1573.9844 Q2432.3719,1573.7656 2432.5594,1573.6563 Q2432.7469,1573.5469 2432.9656,1573.5469 Q2433.3406,1573.5469 2433.575,1573.8125 Q2433.8094,1574.0625 2433.8094,1574.6719 L2433.8094,1576.125 Q2433.8094,1576.7344 2433.575,1577 Q2433.3406,1577.2656 2432.9656,1577.2656 Q2432.6219,1577.2656 2432.4188,1577.0625 Q2432.2156,1576.875 2432.1063,1576.3594 Q2432.0594,1576 2431.8719,1575.8125 Q2431.5438,1575.4375 2430.9344,1575.2188 Q2430.325,1575 2429.7,1575 Q2428.9344,1575 2428.2938,1575.3281 Q2427.6688,1575.6563 2427.1688,1576.4063 Q2426.6844,1577.1563 2426.6844,1578.1875 L2426.6844,1579.2813 Q2426.6844,1580.5156 2427.575,1581.3438 Q2428.4656,1582.1563 2430.0594,1582.1563 Q2430.9969,1582.1563 2431.6531,1581.9063 Q2432.0438,1581.75 2432.4656,1581.3125 Q2432.7313,1581.0469 2432.8719,1580.9688 Q2433.0281,1580.8906 2433.2313,1580.8906 Q2433.5594,1580.8906 2433.8094,1581.1563 Q2434.075,1581.4063 2434.075,1581.75 Q2434.075,1582.0938 2433.7313,1582.5 Q2433.2313,1583.0781 2432.4344,1583.4063 Q2431.3563,1583.8594 2430.0594,1583.8594 Q2428.5438,1583.8594 2427.3406,1583.2344 Q2426.3563,1582.7344 2425.6688,1581.6719 Q2424.9813,1580.5938 2424.9813,1579.3125 L2424.9813,1578.1563 Q2424.9813,1576.8281 2425.5906,1575.6875 Q2426.2156,1574.5313 2427.3094,1573.9219 Q2428.4031,1573.2969 2429.6375,1573.2969 Q2430.3719,1573.2969 2431.0125,1573.4688 Q2431.6688,1573.625 2432.2156,1573.9844 Z " fill="#000000"/><text fill="#000000" font-family="sans-serif" font-size="14" lengthAdjust="spacing" textLength="201" x="2449.55" y="1583.8379">ExternalExchangeRateTableDto</text><line style="stroke:#181818;stroke-width:0.5;" x1="2388" x2="2680" y1="1594.1094" y2="1594.1094"/><text fill="#000000" font-family="sans-serif" font-size="14" lengthAdjust="spacing" textLength="87" x="2393" y="1612.6426">+Table: string</text><text fill="#000000" font-family="sans-serif" font-size="14" lengthAdjust="spacing" textLength="100" x="2393" y="1630.252">+Number: string</text><text fill="#000000" font-family="sans-serif" font-size="14" lengthAdjust="spacing" textLength="161" x="2393" y="1647.8613">+EffectiveDate: DateTime</text><text fill="#000000" font-family="sans-serif" font-size="14" lengthAdjust="spacing" textLength="282" x="2393" y="1665.4707">+Rates: List&lt;ExternalExchangeRateItemDto&gt;</text></g><!--class ExternalExchangeRateItemDto--><g id="elem_ExternalExchangeRateItemDto"><rect codeLine="90" fill="#F1F1F1" height="110.4375" id="ExternalExchangeRateItemDto" rx="2.5" ry="2.5" style="stroke:#181818;stroke-width:0.5;" width="223" x="2422.5" y="1843.6094"/><ellipse cx="2437.5" cy="1859.6094" fill="#ADD1B2" rx="11" ry="11" style="stroke:#181818;stroke-width:1.0;"/><path d="M2440.2656,1855.4844 Q2440.4219,1855.2656 2440.6094,1855.1563 Q2440.7969,1855.0469 2441.0156,1855.0469 Q2441.3906,1855.0469 2441.625,1855.3125 Q2441.8594,1855.5625 2441.8594,1856.1719 L2441.8594,1857.625 Q2441.8594,1858.2344 2441.625,1858.5 Q2441.3906,1858.7656 2441.0156,1858.7656 Q2440.6719,1858.7656 2440.4688,1858.5625 Q2440.2656,1858.375 2440.1563,1857.8594 Q2440.1094,1857.5 2439.9219,1857.3125 Q2439.5938,1856.9375 2438.9844,1856.7188 Q2438.375,1856.5 2437.75,1856.5 Q2436.9844,1856.5 2436.3438,1856.8281 Q2435.7188,1857.1563 2435.2188,1857.9063 Q2434.7344,1858.6563 2434.7344,1859.6875 L2434.7344,1860.7813 Q2434.7344,1862.0156 2435.625,1862.8438 Q2436.5156,1863.6563 2438.1094,1863.6563 Q2439.0469,1863.6563 2439.7031,1863.4063 Q2440.0938,1863.25 2440.5156,1862.8125 Q2440.7813,1862.5469 2440.9219,1862.4688 Q2441.0781,1862.3906 2441.2813,1862.3906 Q2441.6094,1862.3906 2441.8594,1862.6563 Q2442.125,1862.9063 2442.125,1863.25 Q2442.125,1863.5938 2441.7813,1864 Q2441.2813,1864.5781 2440.4844,1864.9063 Q2439.4063,1865.3594 2438.1094,1865.3594 Q2436.5938,1865.3594 2435.3906,1864.7344 Q2434.4063,1864.2344 2433.7188,1863.1719 Q2433.0313,1862.0938 2433.0313,1860.8125 L2433.0313,1859.6563 Q2433.0313,1858.3281 2433.6406,1857.1875 Q2434.2656,1856.0313 2435.3594,1855.4219 Q2436.4531,1854.7969 2437.6875,1854.7969 Q2438.4219,1854.7969 2439.0625,1854.9688 Q2439.7188,1855.125 2440.2656,1855.4844 Z " fill="#000000"/><text fill="#000000" font-family="sans-serif" font-size="14" lengthAdjust="spacing" textLength="191" x="2451.5" y="1865.3379">ExternalExchangeRateItemDto</text><line style="stroke:#181818;stroke-width:0.5;" x1="2423.5" x2="2644.5" y1="1875.6094" y2="1875.6094"/><text fill="#000000" font-family="sans-serif" font-size="14" lengthAdjust="spacing" textLength="145" x="2428.5" y="1894.1426">+CurrencyName: string</text><text fill="#000000" font-family="sans-serif" font-size="14" lengthAdjust="spacing" textLength="143" x="2428.5" y="1911.752">+CurrencyCode: string</text><text fill="#000000" font-family="sans-serif" font-size="14" lengthAdjust="spacing" textLength="120" x="2428.5" y="1929.3613">+BuyPrice: decimal</text><text fill="#000000" font-family="sans-serif" font-size="14" lengthAdjust="spacing" textLength="119" x="2428.5" y="1946.9707">+SellPrice: decimal</text></g><!--class NbpSyncResultDto--><g id="elem_NbpSyncResultDto"><rect codeLine="97" fill="#F1F1F1" height="163.2656" id="NbpSyncResultDto" rx="2.5" ry="2.5" style="stroke:#181818;stroke-width:0.5;" width="217" x="2134.5" y="1535.6094"/><ellipse cx="2179.75" cy="1551.6094" fill="#ADD1B2" rx="11" ry="11" style="stroke:#181818;stroke-width:1.0;"/><path d="M2182.5156,1547.4844 Q2182.6719,1547.2656 2182.8594,1547.1563 Q2183.0469,1547.0469 2183.2656,1547.0469 Q2183.6406,1547.0469 2183.875,1547.3125 Q2184.1094,1547.5625 2184.1094,1548.1719 L2184.1094,1549.625 Q2184.1094,1550.2344 2183.875,1550.5 Q2183.6406,1550.7656 2183.2656,1550.7656 Q2182.9219,1550.7656 2182.7188,1550.5625 Q2182.5156,1550.375 2182.4063,1549.8594 Q2182.3594,1549.5 2182.1719,1549.3125 Q2181.8438,1548.9375 2181.2344,1548.7188 Q2180.625,1548.5 2180,1548.5 Q2179.2344,1548.5 2178.5938,1548.8281 Q2177.9688,1549.1563 2177.4688,1549.9063 Q2176.9844,1550.6563 2176.9844,1551.6875 L2176.9844,1552.7813 Q2176.9844,1554.0156 2177.875,1554.8438 Q2178.7656,1555.6563 2180.3594,1555.6563 Q2181.2969,1555.6563 2181.9531,1555.4063 Q2182.3438,1555.25 2182.7656,1554.8125 Q2183.0313,1554.5469 2183.1719,1554.4688 Q2183.3281,1554.3906 2183.5313,1554.3906 Q2183.8594,1554.3906 2184.1094,1554.6563 Q2184.375,1554.9063 2184.375,1555.25 Q2184.375,1555.5938 2184.0313,1556 Q2183.5313,1556.5781 2182.7344,1556.9063 Q2181.6563,1557.3594 2180.3594,1557.3594 Q2178.8438,1557.3594 2177.6406,1556.7344 Q2176.6563,1556.2344 2175.9688,1555.1719 Q2175.2813,1554.0938 2175.2813,1552.8125 L2175.2813,1551.6563 Q2175.2813,1550.3281 2175.8906,1549.1875 Q2176.5156,1548.0313 2177.6094,1547.4219 Q2178.7031,1546.7969 2179.9375,1546.7969 Q2180.6719,1546.7969 2181.3125,1546.9688 Q2181.9688,1547.125 2182.5156,1547.4844 Z " fill="#000000"/><text fill="#000000" font-family="sans-serif" font-size="14" lengthAdjust="spacing" textLength="118" x="2200.25" y="1557.3379">NbpSyncResultDto</text><line style="stroke:#181818;stroke-width:0.5;" x1="2135.5" x2="2350.5" y1="1567.6094" y2="1567.6094"/><text fill="#000000" font-family="sans-serif" font-size="14" lengthAdjust="spacing" textLength="110" x="2140.5" y="1586.1426">+From: DateTime</text><text fill="#000000" font-family="sans-serif" font-size="14" lengthAdjust="spacing" textLength="94" x="2140.5" y="1603.752">+To: DateTime</text><text fill="#000000" font-family="sans-serif" font-size="14" lengthAdjust="spacing" textLength="72" x="2140.5" y="1621.3613">+Added: int</text><text fill="#000000" font-family="sans-serif" font-size="14" lengthAdjust="spacing" textLength="82" x="2140.5" y="1638.9707">+Skipped: int</text><text fill="#000000" font-family="sans-serif" font-size="14" lengthAdjust="spacing" textLength="126" x="2140.5" y="1656.5801">+TablesFetched: int</text><text fill="#000000" font-family="sans-serif" font-size="14" lengthAdjust="spacing" textLength="205" x="2140.5" y="1674.1895">+ProcessedRanges: List&lt;string&gt;</text><text fill="#000000" font-family="sans-serif" font-size="14" lengthAdjust="spacing" textLength="149" x="2140.5" y="1691.7988">+Warnings: List&lt;string&gt;</text></g><!--class ExchangeRateChartResponseDto--><g id="elem_ExchangeRateChartResponseDto"><rect codeLine="107" fill="#F1F1F1" height="128.0469" id="ExchangeRateChartResponseDto" rx="2.5" ry="2.5" style="stroke:#181818;stroke-width:0.5;" width="286" x="1569" y="1553.1094"/><ellipse cx="1602.45" cy="1569.1094" fill="#ADD1B2" rx="11" ry="11" style="stroke:#181818;stroke-width:1.0;"/><path d="M1605.2156,1564.9844 Q1605.3719,1564.7656 1605.5594,1564.6563 Q1605.7469,1564.5469 1605.9656,1564.5469 Q1606.3406,1564.5469 1606.575,1564.8125 Q1606.8094,1565.0625 1606.8094,1565.6719 L1606.8094,1567.125 Q1606.8094,1567.7344 1606.575,1568 Q1606.3406,1568.2656 1605.9656,1568.2656 Q1605.6219,1568.2656 1605.4188,1568.0625 Q1605.2156,1567.875 1605.1063,1567.3594 Q1605.0594,1567 1604.8719,1566.8125 Q1604.5438,1566.4375 1603.9344,1566.2188 Q1603.325,1566 1602.7,1566 Q1601.9344,1566 1601.2938,1566.3281 Q1600.6688,1566.6563 1600.1688,1567.4063 Q1599.6844,1568.1563 1599.6844,1569.1875 L1599.6844,1570.2813 Q1599.6844,1571.5156 1600.575,1572.3438 Q1601.4656,1573.1563 1603.0594,1573.1563 Q1603.9969,1573.1563 1604.6531,1572.9063 Q1605.0438,1572.75 1605.4656,1572.3125 Q1605.7313,1572.0469 1605.8719,1571.9688 Q1606.0281,1571.8906 1606.2313,1571.8906 Q1606.5594,1571.8906 1606.8094,1572.1563 Q1607.075,1572.4063 1607.075,1572.75 Q1607.075,1573.0938 1606.7313,1573.5 Q1606.2313,1574.0781 1605.4344,1574.4063 Q1604.3563,1574.8594 1603.0594,1574.8594 Q1601.5438,1574.8594 1600.3406,1574.2344 Q1599.3563,1573.7344 1598.6688,1572.6719 Q1597.9813,1571.5938 1597.9813,1570.3125 L1597.9813,1569.1563 Q1597.9813,1567.8281 1598.5906,1566.6875 Q1599.2156,1565.5313 1600.3094,1564.9219 Q1601.4031,1564.2969 1602.6375,1564.2969 Q1603.3719,1564.2969 1604.0125,1564.4688 Q1604.6688,1564.625 1605.2156,1564.9844 Z " fill="#000000"/><text fill="#000000" font-family="sans-serif" font-size="14" lengthAdjust="spacing" textLength="213" x="1620.55" y="1574.8379">ExchangeRateChartResponseDto</text><line style="stroke:#181818;stroke-width:0.5;" x1="1570" x2="1854" y1="1585.1094" y2="1585.1094"/><text fill="#000000" font-family="sans-serif" font-size="14" lengthAdjust="spacing" textLength="143" x="1575" y="1603.6426">+CurrencyCode: string</text><text fill="#000000" font-family="sans-serif" font-size="14" lengthAdjust="spacing" textLength="130" x="1575" y="1621.252">+SourceCode: string</text><text fill="#000000" font-family="sans-serif" font-size="14" lengthAdjust="spacing" textLength="110" x="1575" y="1638.8613">+From: DateTime</text><text fill="#000000" font-family="sans-serif" font-size="14" lengthAdjust="spacing" textLength="94" x="1575" y="1656.4707">+To: DateTime</text><text fill="#000000" font-family="sans-serif" font-size="14" lengthAdjust="spacing" textLength="274" x="1575" y="1674.0801">+Points: List&lt;ExchangeRateChartPointDto&gt;</text></g><!--class ExchangeRateChartPointDto--><g id="elem_ExchangeRateChartPointDto"><rect codeLine="115" fill="#F1F1F1" height="92.8281" id="ExchangeRateChartPointDto" rx="2.5" ry="2.5" style="stroke:#181818;stroke-width:0.5;" width="213" x="1605.5" y="1852.1094"/><ellipse cx="1620.5" cy="1868.1094" fill="#ADD1B2" rx="11" ry="11" style="stroke:#181818;stroke-width:1.0;"/><path d="M1623.2656,1863.9844 Q1623.4219,1863.7656 1623.6094,1863.6563 Q1623.7969,1863.5469 1624.0156,1863.5469 Q1624.3906,1863.5469 1624.625,1863.8125 Q1624.8594,1864.0625 1624.8594,1864.6719 L1624.8594,1866.125 Q1624.8594,1866.7344 1624.625,1867 Q1624.3906,1867.2656 1624.0156,1867.2656 Q1623.6719,1867.2656 1623.4688,1867.0625 Q1623.2656,1866.875 1623.1563,1866.3594 Q1623.1094,1866 1622.9219,1865.8125 Q1622.5938,1865.4375 1621.9844,1865.2188 Q1621.375,1865 1620.75,1865 Q1619.9844,1865 1619.3438,1865.3281 Q1618.7188,1865.6563 1618.2188,1866.4063 Q1617.7344,1867.1563 1617.7344,1868.1875 L1617.7344,1869.2813 Q1617.7344,1870.5156 1618.625,1871.3438 Q1619.5156,1872.1563 1621.1094,1872.1563 Q1622.0469,1872.1563 1622.7031,1871.9063 Q1623.0938,1871.75 1623.5156,1871.3125 Q1623.7813,1871.0469 1623.9219,1870.9688 Q1624.0781,1870.8906 1624.2813,1870.8906 Q1624.6094,1870.8906 1624.8594,1871.1563 Q1625.125,1871.4063 1625.125,1871.75 Q1625.125,1872.0938 1624.7813,1872.5 Q1624.2813,1873.0781 1623.4844,1873.4063 Q1622.4063,1873.8594 1621.1094,1873.8594 Q1619.5938,1873.8594 1618.3906,1873.2344 Q1617.4063,1872.7344 1616.7188,1871.6719 Q1616.0313,1870.5938 1616.0313,1869.3125 L1616.0313,1868.1563 Q1616.0313,1866.8281 1616.6406,1865.6875 Q1617.2656,1864.5313 1618.3594,1863.9219 Q1619.4531,1863.2969 1620.6875,1863.2969 Q1621.4219,1863.2969 1622.0625,1863.4688 Q1622.7188,1863.625 1623.2656,1863.9844 Z " fill="#000000"/><text fill="#000000" font-family="sans-serif" font-size="14" lengthAdjust="spacing" textLength="181" x="1634.5" y="1873.8379">ExchangeRateChartPointDto</text><line style="stroke:#181818;stroke-width:0.5;" x1="1606.5" x2="1817.5" y1="1884.1094" y2="1884.1094"/><text fill="#000000" font-family="sans-serif" font-size="14" lengthAdjust="spacing" textLength="107" x="1611.5" y="1902.6426">+Date: DateTime</text><text fill="#000000" font-family="sans-serif" font-size="14" lengthAdjust="spacing" textLength="120" x="1611.5" y="1920.252">+BuyPrice: decimal</text><text fill="#000000" font-family="sans-serif" font-size="14" lengthAdjust="spacing" textLength="119" x="1611.5" y="1937.8613">+SellPrice: decimal</text></g><!--class ExchangeRateTableRowDto--><g id="elem_ExchangeRateTableRowDto"><rect codeLine="121" fill="#F1F1F1" height="163.2656" id="ExchangeRateTableRowDto" rx="2.5" ry="2.5" style="stroke:#181818;stroke-width:0.5;" width="209" x="1890.5" y="1535.6094"/><ellipse cx="1905.5" cy="1551.6094" fill="#ADD1B2" rx="11" ry="11" style="stroke:#181818;stroke-width:1.0;"/><path d="M1908.2656,1547.4844 Q1908.4219,1547.2656 1908.6094,1547.1563 Q1908.7969,1547.0469 1909.0156,1547.0469 Q1909.3906,1547.0469 1909.625,1547.3125 Q1909.8594,1547.5625 1909.8594,1548.1719 L1909.8594,1549.625 Q1909.8594,1550.2344 1909.625,1550.5 Q1909.3906,1550.7656 1909.0156,1550.7656 Q1908.6719,1550.7656 1908.4688,1550.5625 Q1908.2656,1550.375 1908.1563,1549.8594 Q1908.1094,1549.5 1907.9219,1549.3125 Q1907.5938,1548.9375 1906.9844,1548.7188 Q1906.375,1548.5 1905.75,1548.5 Q1904.9844,1548.5 1904.3438,1548.8281 Q1903.7188,1549.1563 1903.2188,1549.9063 Q1902.7344,1550.6563 1902.7344,1551.6875 L1902.7344,1552.7813 Q1902.7344,1554.0156 1903.625,1554.8438 Q1904.5156,1555.6563 1906.1094,1555.6563 Q1907.0469,1555.6563 1907.7031,1555.4063 Q1908.0938,1555.25 1908.5156,1554.8125 Q1908.7813,1554.5469 1908.9219,1554.4688 Q1909.0781,1554.3906 1909.2813,1554.3906 Q1909.6094,1554.3906 1909.8594,1554.6563 Q1910.125,1554.9063 1910.125,1555.25 Q1910.125,1555.5938 1909.7813,1556 Q1909.2813,1556.5781 1908.4844,1556.9063 Q1907.4063,1557.3594 1906.1094,1557.3594 Q1904.5938,1557.3594 1903.3906,1556.7344 Q1902.4063,1556.2344 1901.7188,1555.1719 Q1901.0313,1554.0938 1901.0313,1552.8125 L1901.0313,1551.6563 Q1901.0313,1550.3281 1901.6406,1549.1875 Q1902.2656,1548.0313 1903.3594,1547.4219 Q1904.4531,1546.7969 1905.6875,1546.7969 Q1906.4219,1546.7969 1907.0625,1546.9688 Q1907.7188,1547.125 1908.2656,1547.4844 Z " fill="#000000"/><text fill="#000000" font-family="sans-serif" font-size="14" lengthAdjust="spacing" textLength="177" x="1919.5" y="1557.3379">ExchangeRateTableRowDto</text><line style="stroke:#181818;stroke-width:0.5;" x1="1891.5" x2="2098.5" y1="1567.6094" y2="1567.6094"/><text fill="#000000" font-family="sans-serif" font-size="14" lengthAdjust="spacing" textLength="143" x="1896.5" y="1586.1426">+CurrencyCode: string</text><text fill="#000000" font-family="sans-serif" font-size="14" lengthAdjust="spacing" textLength="145" x="1896.5" y="1603.752">+CurrencyName: string</text><text fill="#000000" font-family="sans-serif" font-size="14" lengthAdjust="spacing" textLength="130" x="1896.5" y="1621.3613">+SourceCode: string</text><text fill="#000000" font-family="sans-serif" font-size="14" lengthAdjust="spacing" textLength="132" x="1896.5" y="1638.9707">+SourceName: string</text><text fill="#000000" font-family="sans-serif" font-size="14" lengthAdjust="spacing" textLength="161" x="1896.5" y="1656.5801">+EffectiveDate: DateTime</text><text fill="#000000" font-family="sans-serif" font-size="14" lengthAdjust="spacing" textLength="120" x="1896.5" y="1674.1895">+BuyPrice: decimal</text><text fill="#000000" font-family="sans-serif" font-size="14" lengthAdjust="spacing" textLength="119" x="1896.5" y="1691.7988">+SellPrice: decimal</text></g><!--class ExchangeRateSyncService--><g id="elem_ExchangeRateSyncService"><rect codeLine="133" fill="#F1F1F1" height="199.5781" id="ExchangeRateSyncService" rx="2.5" ry="2.5" style="stroke:#181818;stroke-width:0.5;" width="753" x="2785.5" y="1233.6094"/><ellipse cx="3072.75" cy="1254.9609" fill="#ADD1B2" rx="11" ry="11" style="stroke:#181818;stroke-width:1.0;"/><path d="M3075.5156,1250.8359 Q3075.6719,1250.6172 3075.8594,1250.5078 Q3076.0469,1250.3984 3076.2656,1250.3984 Q3076.6406,1250.3984 3076.875,1250.6641 Q3077.1094,1250.9141 3077.1094,1251.5234 L3077.1094,1252.9766 Q3077.1094,1253.5859 3076.875,1253.8516 Q3076.6406,1254.1172 3076.2656,1254.1172 Q3075.9219,1254.1172 3075.7188,1253.9141 Q3075.5156,1253.7266 3075.4063,1253.2109 Q3075.3594,1252.8516 3075.1719,1252.6641 Q3074.8438,1252.2891 3074.2344,1252.0703 Q3073.625,1251.8516 3073,1251.8516 Q3072.2344,1251.8516 3071.5938,1252.1797 Q3070.9688,1252.5078 3070.4688,1253.2578 Q3069.9844,1254.0078 3069.9844,1255.0391 L3069.9844,1256.1328 Q3069.9844,1257.3672 3070.875,1258.1953 Q3071.7656,1259.0078 3073.3594,1259.0078 Q3074.2969,1259.0078 3074.9531,1258.7578 Q3075.3438,1258.6016 3075.7656,1258.1641 Q3076.0313,1257.8984 3076.1719,1257.8203 Q3076.3281,1257.7422 3076.5313,1257.7422 Q3076.8594,1257.7422 3077.1094,1258.0078 Q3077.375,1258.2578 3077.375,1258.6016 Q3077.375,1258.9453 3077.0313,1259.3516 Q3076.5313,1259.9297 3075.7344,1260.2578 Q3074.6563,1260.7109 3073.3594,1260.7109 Q3071.8438,1260.7109 3070.6406,1260.0859 Q3069.6563,1259.5859 3068.9688,1258.5234 Q3068.2813,1257.4453 3068.2813,1256.1641 L3068.2813,1255.0078 Q3068.2813,1253.6797 3068.8906,1252.5391 Q3069.5156,1251.3828 3070.6094,1250.7734 Q3071.7031,1250.1484 3072.9375,1250.1484 Q3073.6719,1250.1484 3074.3125,1250.3203 Q3074.9688,1250.4766 3075.5156,1250.8359 Z " fill="#000000"/><text fill="#000000" font-family="sans-serif" font-size="12" font-style="italic" lengthAdjust="spacing" textLength="53" x="3151.75" y="1251.0664">&#171;service&#187;</text><text fill="#000000" font-family="sans-serif" font-size="14" lengthAdjust="spacing" textLength="170" x="3093.25" y="1268.2363">ExchangeRateSyncService</text><line style="stroke:#181818;stroke-width:0.5;" x1="2786.5" x2="3537.5" y1="1276.3125" y2="1276.3125"/><text fill="#000000" font-family="sans-serif" font-size="14" lengthAdjust="spacing" textLength="201" x="2791.5" y="1294.8457">-_context: ApplicationDbContext</text><text fill="#000000" font-family="sans-serif" font-size="14" lengthAdjust="spacing" textLength="432" x="2791.5" y="1312.4551">-_exchangeRateClients: IEnumerable&lt;IExternalExchangeRateClient&gt;</text><line style="stroke:#181818;stroke-width:0.5;" x1="2786.5" x2="3537.5" y1="1319.5313" y2="1319.5313"/><text fill="#000000" font-family="sans-serif" font-size="14" lengthAdjust="spacing" textLength="687" x="2791.5" y="1338.0645">+SyncRatesAsync(sourceCode: string, from: DateTime, to: DateTime, cancellationToken: CancellationToken)</text><text fill="#000000" font-family="sans-serif" font-size="14" lengthAdjust="spacing" textLength="571" x="2791.5" y="1355.6738">+SyncCurrentYearRatesAsync(sourceCode: string, cancellationToken: CancellationToken)</text><text fill="#000000" font-family="sans-serif" font-size="14" lengthAdjust="spacing" textLength="584" x="2791.5" y="1373.2832">+SyncNbpRatesAsync(from: DateTime, to: DateTime, cancellationToken: CancellationToken)</text><text fill="#000000" font-family="sans-serif" font-size="14" lengthAdjust="spacing" textLength="682" x="2791.5" y="1390.8926">-GetOrCreateRateSourceAsync(client: IExternalExchangeRateClient, cancellationToken: CancellationToken)</text><text fill="#000000" font-family="sans-serif" font-size="14" lengthAdjust="spacing" textLength="741" x="2791.5" y="1408.502">-LoadExistingRateKeysAsync(rateSourceId: int, from: DateTime, to: DateTime, cancellationToken: CancellationToken)</text><text fill="#000000" font-family="sans-serif" font-size="14" lengthAdjust="spacing" textLength="430" x="2791.5" y="1426.1113">-SplitIntoRanges(from: DateTime, to: DateTime, maxRangeDays: int)</text></g><!--class NbpExchangeRateClient--><g id="elem_NbpExchangeRateClient"><rect codeLine="146" fill="#F1F1F1" height="129.1406" id="NbpExchangeRateClient" rx="2.5" ry="2.5" style="stroke:#181818;stroke-width:0.5;" width="610" x="3595" y="1269.1094"/><ellipse cx="3819.25" cy="1290.4609" fill="#ADD1B2" rx="11" ry="11" style="stroke:#181818;stroke-width:1.0;"/><path d="M3822.0156,1286.3359 Q3822.1719,1286.1172 3822.3594,1286.0078 Q3822.5469,1285.8984 3822.7656,1285.8984 Q3823.1406,1285.8984 3823.375,1286.1641 Q3823.6094,1286.4141 3823.6094,1287.0234 L3823.6094,1288.4766 Q3823.6094,1289.0859 3823.375,1289.3516 Q3823.1406,1289.6172 3822.7656,1289.6172 Q3822.4219,1289.6172 3822.2188,1289.4141 Q3822.0156,1289.2266 3821.9063,1288.7109 Q3821.8594,1288.3516 3821.6719,1288.1641 Q3821.3438,1287.7891 3820.7344,1287.5703 Q3820.125,1287.3516 3819.5,1287.3516 Q3818.7344,1287.3516 3818.0938,1287.6797 Q3817.4688,1288.0078 3816.9688,1288.7578 Q3816.4844,1289.5078 3816.4844,1290.5391 L3816.4844,1291.6328 Q3816.4844,1292.8672 3817.375,1293.6953 Q3818.2656,1294.5078 3819.8594,1294.5078 Q3820.7969,1294.5078 3821.4531,1294.2578 Q3821.8438,1294.1016 3822.2656,1293.6641 Q3822.5313,1293.3984 3822.6719,1293.3203 Q3822.8281,1293.2422 3823.0313,1293.2422 Q3823.3594,1293.2422 3823.6094,1293.5078 Q3823.875,1293.7578 3823.875,1294.1016 Q3823.875,1294.4453 3823.5313,1294.8516 Q3823.0313,1295.4297 3822.2344,1295.7578 Q3821.1563,1296.2109 3819.8594,1296.2109 Q3818.3438,1296.2109 3817.1406,1295.5859 Q3816.1563,1295.0859 3815.4688,1294.0234 Q3814.7813,1292.9453 3814.7813,1291.6641 L3814.7813,1290.5078 Q3814.7813,1289.1797 3815.3906,1288.0391 Q3816.0156,1286.8828 3817.1094,1286.2734 Q3818.2031,1285.6484 3819.4375,1285.6484 Q3820.1719,1285.6484 3820.8125,1285.8203 Q3821.4688,1285.9766 3822.0156,1286.3359 Z " fill="#000000"/><text fill="#000000" font-family="sans-serif" font-size="12" font-style="italic" lengthAdjust="spacing" textLength="138" x="3847.25" y="1286.5664">&#171;external provider client&#187;</text><text fill="#000000" font-family="sans-serif" font-size="14" lengthAdjust="spacing" textLength="153" x="3839.75" y="1303.7363">NbpExchangeRateClient</text><line style="stroke:#181818;stroke-width:0.5;" x1="3596" x2="4204" y1="1311.8125" y2="1311.8125"/><text fill="#000000" font-family="sans-serif" font-size="14" lengthAdjust="spacing" textLength="183" x="3601" y="1330.3457">+SourceCode: string = "NBP"</text><text fill="#000000" font-family="sans-serif" font-size="14" lengthAdjust="spacing" textLength="297" x="3601" y="1347.9551">+SourceName: string = "Narodowy Bank Polski"</text><text fill="#000000" font-family="sans-serif" font-size="14" lengthAdjust="spacing" textLength="162" x="3601" y="1365.5645">+MaxRangeDays: int = 93</text><line style="stroke:#181818;stroke-width:0.5;" x1="3596" x2="4204" y1="1372.6406" y2="1372.6406"/><text fill="#000000" font-family="sans-serif" font-size="14" lengthAdjust="spacing" textLength="598" x="3601" y="1391.1738">+GetBuySellRatesAsync(from: DateTime, to: DateTime, cancellationToken: CancellationToken)</text></g><!--class EcbExchangeRateClient--><g id="elem_EcbExchangeRateClient"><rect codeLine="153" fill="#F1F1F1" height="146.75" id="EcbExchangeRateClient" rx="2.5" ry="2.5" style="stroke:#181818;stroke-width:0.5;" width="610" x="4240" y="1260.1094"/><ellipse cx="4464.75" cy="1281.4609" fill="#ADD1B2" rx="11" ry="11" style="stroke:#181818;stroke-width:1.0;"/><path d="M4467.5156,1277.3359 Q4467.6719,1277.1172 4467.8594,1277.0078 Q4468.0469,1276.8984 4468.2656,1276.8984 Q4468.6406,1276.8984 4468.875,1277.1641 Q4469.1094,1277.4141 4469.1094,1278.0234 L4469.1094,1279.4766 Q4469.1094,1280.0859 4468.875,1280.3516 Q4468.6406,1280.6172 4468.2656,1280.6172 Q4467.9219,1280.6172 4467.7188,1280.4141 Q4467.5156,1280.2266 4467.4063,1279.7109 Q4467.3594,1279.3516 4467.1719,1279.1641 Q4466.8438,1278.7891 4466.2344,1278.5703 Q4465.625,1278.3516 4465,1278.3516 Q4464.2344,1278.3516 4463.5938,1278.6797 Q4462.9688,1279.0078 4462.4688,1279.7578 Q4461.9844,1280.5078 4461.9844,1281.5391 L4461.9844,1282.6328 Q4461.9844,1283.8672 4462.875,1284.6953 Q4463.7656,1285.5078 4465.3594,1285.5078 Q4466.2969,1285.5078 4466.9531,1285.2578 Q4467.3438,1285.1016 4467.7656,1284.6641 Q4468.0313,1284.3984 4468.1719,1284.3203 Q4468.3281,1284.2422 4468.5313,1284.2422 Q4468.8594,1284.2422 4469.1094,1284.5078 Q4469.375,1284.7578 4469.375,1285.1016 Q4469.375,1285.4453 4469.0313,1285.8516 Q4468.5313,1286.4297 4467.7344,1286.7578 Q4466.6563,1287.2109 4465.3594,1287.2109 Q4463.8438,1287.2109 4462.6406,1286.5859 Q4461.6563,1286.0859 4460.9688,1285.0234 Q4460.2813,1283.9453 4460.2813,1282.6641 L4460.2813,1281.5078 Q4460.2813,1280.1797 4460.8906,1279.0391 Q4461.5156,1277.8828 4462.6094,1277.2734 Q4463.7031,1276.6484 4464.9375,1276.6484 Q4465.6719,1276.6484 4466.3125,1276.8203 Q4466.9688,1276.9766 4467.5156,1277.3359 Z " fill="#000000"/><text fill="#000000" font-family="sans-serif" font-size="12" font-style="italic" lengthAdjust="spacing" textLength="138" x="4492.25" y="1277.5664">&#171;external provider client&#187;</text><text fill="#000000" font-family="sans-serif" font-size="14" lengthAdjust="spacing" textLength="152" x="4485.25" y="1294.7363">EcbExchangeRateClient</text><line style="stroke:#181818;stroke-width:0.5;" x1="4241" x2="4849" y1="1302.8125" y2="1302.8125"/><text fill="#000000" font-family="sans-serif" font-size="14" lengthAdjust="spacing" textLength="184" x="4246" y="1321.3457">+SourceCode: string = "ECB"</text><text fill="#000000" font-family="sans-serif" font-size="14" lengthAdjust="spacing" textLength="306" x="4246" y="1338.9551">+SourceName: string = "European Central Bank"</text><text fill="#000000" font-family="sans-serif" font-size="14" lengthAdjust="spacing" textLength="170" x="4246" y="1356.5645">+MaxRangeDays: int = 366</text><line style="stroke:#181818;stroke-width:0.5;" x1="4241" x2="4849" y1="1363.6406" y2="1363.6406"/><text fill="#000000" font-family="sans-serif" font-size="14" lengthAdjust="spacing" textLength="598" x="4246" y="1382.1738">+GetBuySellRatesAsync(from: DateTime, to: DateTime, cancellationToken: CancellationToken)</text><text fill="#000000" font-family="sans-serif" font-size="14" lengthAdjust="spacing" textLength="485" x="4246" y="1399.7832">+ParseHistoricalRates(document: XDocument, from: DateTime, to: DateTime)</text></g><!--class ApplicationDbContext--><g id="elem_ApplicationDbContext"><rect codeLine="163" fill="#F1F1F1" height="129.1406" id="ApplicationDbContext" rx="2.5" ry="2.5" style="stroke:#181818;stroke-width:0.5;" width="347" x="4971.5" y="1552.6094"/><ellipse cx="5073.25" cy="1573.9609" fill="#ADD1B2" rx="11" ry="11" style="stroke:#181818;stroke-width:1.0;"/><path d="M5076.0156,1569.8359 Q5076.1719,1569.6172 5076.3594,1569.5078 Q5076.5469,1569.3984 5076.7656,1569.3984 Q5077.1406,1569.3984 5077.375,1569.6641 Q5077.6094,1569.9141 5077.6094,1570.5234 L5077.6094,1571.9766 Q5077.6094,1572.5859 5077.375,1572.8516 Q5077.1406,1573.1172 5076.7656,1573.1172 Q5076.4219,1573.1172 5076.2188,1572.9141 Q5076.0156,1572.7266 5075.9063,1572.2109 Q5075.8594,1571.8516 5075.6719,1571.6641 Q5075.3438,1571.2891 5074.7344,1571.0703 Q5074.125,1570.8516 5073.5,1570.8516 Q5072.7344,1570.8516 5072.0938,1571.1797 Q5071.4688,1571.5078 5070.9688,1572.2578 Q5070.4844,1573.0078 5070.4844,1574.0391 L5070.4844,1575.1328 Q5070.4844,1576.3672 5071.375,1577.1953 Q5072.2656,1578.0078 5073.8594,1578.0078 Q5074.7969,1578.0078 5075.4531,1577.7578 Q5075.8438,1577.6016 5076.2656,1577.1641 Q5076.5313,1576.8984 5076.6719,1576.8203 Q5076.8281,1576.7422 5077.0313,1576.7422 Q5077.3594,1576.7422 5077.6094,1577.0078 Q5077.875,1577.2578 5077.875,1577.6016 Q5077.875,1577.9453 5077.5313,1578.3516 Q5077.0313,1578.9297 5076.2344,1579.2578 Q5075.1563,1579.7109 5073.8594,1579.7109 Q5072.3438,1579.7109 5071.1406,1579.0859 Q5070.1563,1578.5859 5069.4688,1577.5234 Q5068.7813,1576.4453 5068.7813,1575.1641 L5068.7813,1574.0078 Q5068.7813,1572.6797 5069.3906,1571.5391 Q5070.0156,1570.3828 5071.1094,1569.7734 Q5072.2031,1569.1484 5073.4375,1569.1484 Q5074.1719,1569.1484 5074.8125,1569.3203 Q5075.4688,1569.4766 5076.0156,1569.8359 Z " fill="#000000"/><text fill="#000000" font-family="sans-serif" font-size="12" font-style="italic" lengthAdjust="spacing" textLength="73" x="5124.75" y="1570.0664">&#171;DbContext&#187;</text><text fill="#000000" font-family="sans-serif" font-size="14" lengthAdjust="spacing" textLength="135" x="5093.75" y="1587.2363">ApplicationDbContext</text><line style="stroke:#181818;stroke-width:0.5;" x1="4972.5" x2="5317.5" y1="1595.3125" y2="1595.3125"/><text fill="#000000" font-family="sans-serif" font-size="14" lengthAdjust="spacing" textLength="198" x="4977.5" y="1613.8457">+Currencies: DbSet&lt;Currency&gt;</text><text fill="#000000" font-family="sans-serif" font-size="14" lengthAdjust="spacing" textLength="228" x="4977.5" y="1631.4551">+RateSources: DbSet&lt;RateSource&gt;</text><text fill="#000000" font-family="sans-serif" font-size="14" lengthAdjust="spacing" textLength="262" x="4977.5" y="1649.0645">+ExchangeRates: DbSet&lt;ExchangeRate&gt;</text><line style="stroke:#181818;stroke-width:0.5;" x1="4972.5" x2="5317.5" y1="1656.1406" y2="1656.1406"/><text fill="#000000" font-family="sans-serif" font-size="14" lengthAdjust="spacing" textLength="335" x="4977.5" y="1674.6738">#OnModelCreating(modelBuilder: ModelBuilder): void</text></g><!--class ExchangeRateRepository--><g id="elem_ExchangeRateRepository"><rect codeLine="170" fill="#F1F1F1" height="103.5313" id="ExchangeRateRepository" rx="2.5" ry="2.5" style="stroke:#181818;stroke-width:0.5;" width="610" x="4906" y="1281.6094"/><ellipse cx="5126.75" cy="1302.9609" fill="#ADD1B2" rx="11" ry="11" style="stroke:#181818;stroke-width:1.0;"/><path d="M5129.5156,1298.8359 Q5129.6719,1298.6172 5129.8594,1298.5078 Q5130.0469,1298.3984 5130.2656,1298.3984 Q5130.6406,1298.3984 5130.875,1298.6641 Q5131.1094,1298.9141 5131.1094,1299.5234 L5131.1094,1300.9766 Q5131.1094,1301.5859 5130.875,1301.8516 Q5130.6406,1302.1172 5130.2656,1302.1172 Q5129.9219,1302.1172 5129.7188,1301.9141 Q5129.5156,1301.7266 5129.4063,1301.2109 Q5129.3594,1300.8516 5129.1719,1300.6641 Q5128.8438,1300.2891 5128.2344,1300.0703 Q5127.625,1299.8516 5127,1299.8516 Q5126.2344,1299.8516 5125.5938,1300.1797 Q5124.9688,1300.5078 5124.4688,1301.2578 Q5123.9844,1302.0078 5123.9844,1303.0391 L5123.9844,1304.1328 Q5123.9844,1305.3672 5124.875,1306.1953 Q5125.7656,1307.0078 5127.3594,1307.0078 Q5128.2969,1307.0078 5128.9531,1306.7578 Q5129.3438,1306.6016 5129.7656,1306.1641 Q5130.0313,1305.8984 5130.1719,1305.8203 Q5130.3281,1305.7422 5130.5313,1305.7422 Q5130.8594,1305.7422 5131.1094,1306.0078 Q5131.375,1306.2578 5131.375,1306.6016 Q5131.375,1306.9453 5131.0313,1307.3516 Q5130.5313,1307.9297 5129.7344,1308.2578 Q5128.6563,1308.7109 5127.3594,1308.7109 Q5125.8438,1308.7109 5124.6406,1308.0859 Q5123.6563,1307.5859 5122.9688,1306.5234 Q5122.2813,1305.4453 5122.2813,1304.1641 L5122.2813,1303.0078 Q5122.2813,1301.6797 5122.8906,1300.5391 Q5123.5156,1299.3828 5124.6094,1298.7734 Q5125.7031,1298.1484 5126.9375,1298.1484 Q5127.6719,1298.1484 5128.3125,1298.3203 Q5128.9688,1298.4766 5129.5156,1298.8359 Z " fill="#000000"/><text fill="#000000" font-family="sans-serif" font-size="12" font-style="italic" lengthAdjust="spacing" textLength="68" x="5193.25" y="1299.0664">&#171;repository&#187;</text><text fill="#000000" font-family="sans-serif" font-size="14" lengthAdjust="spacing" textLength="160" x="5147.25" y="1316.2363">ExchangeRateRepository</text><line style="stroke:#181818;stroke-width:0.5;" x1="4907" x2="5515" y1="1324.3125" y2="1324.3125"/><text fill="#000000" font-family="sans-serif" font-size="14" lengthAdjust="spacing" textLength="598" x="4912" y="1342.8457">+GetChartDataAsync(currencyCode: string, sourceCode: string, from: DateTime, to: DateTime)</text><text fill="#000000" font-family="sans-serif" font-size="14" lengthAdjust="spacing" textLength="423" x="4912" y="1360.4551">+GetLatestRatesAsync(sourceCode: string, currencyCode: string?)</text><text fill="#000000" font-family="sans-serif" font-size="14" lengthAdjust="spacing" textLength="453" x="4912" y="1378.0645">+ExistsAsync(currencyId: int, rateSourceId: int, effectiveDate: DateTime)</text></g><!--class Currency--><g id="elem_Currency"><rect codeLine="178" fill="#F1F1F1" height="128.0469" id="Currency" rx="2.5" ry="2.5" style="stroke:#181818;stroke-width:0.5;" width="300" x="4995" y="1834.6094"/><ellipse cx="5111.75" cy="1850.6094" fill="#ADD1B2" rx="11" ry="11" style="stroke:#181818;stroke-width:1.0;"/><path d="M5114.5156,1846.4844 Q5114.6719,1846.2656 5114.8594,1846.1563 Q5115.0469,1846.0469 5115.2656,1846.0469 Q5115.6406,1846.0469 5115.875,1846.3125 Q5116.1094,1846.5625 5116.1094,1847.1719 L5116.1094,1848.625 Q5116.1094,1849.2344 5115.875,1849.5 Q5115.6406,1849.7656 5115.2656,1849.7656 Q5114.9219,1849.7656 5114.7188,1849.5625 Q5114.5156,1849.375 5114.4063,1848.8594 Q5114.3594,1848.5 5114.1719,1848.3125 Q5113.8438,1847.9375 5113.2344,1847.7188 Q5112.625,1847.5 5112,1847.5 Q5111.2344,1847.5 5110.5938,1847.8281 Q5109.9688,1848.1563 5109.4688,1848.9063 Q5108.9844,1849.6563 5108.9844,1850.6875 L5108.9844,1851.7813 Q5108.9844,1853.0156 5109.875,1853.8438 Q5110.7656,1854.6563 5112.3594,1854.6563 Q5113.2969,1854.6563 5113.9531,1854.4063 Q5114.3438,1854.25 5114.7656,1853.8125 Q5115.0313,1853.5469 5115.1719,1853.4688 Q5115.3281,1853.3906 5115.5313,1853.3906 Q5115.8594,1853.3906 5116.1094,1853.6563 Q5116.375,1853.9063 5116.375,1854.25 Q5116.375,1854.5938 5116.0313,1855 Q5115.5313,1855.5781 5114.7344,1855.9063 Q5113.6563,1856.3594 5112.3594,1856.3594 Q5110.8438,1856.3594 5109.6406,1855.7344 Q5108.6563,1855.2344 5107.9688,1854.1719 Q5107.2813,1853.0938 5107.2813,1851.8125 L5107.2813,1850.6563 Q5107.2813,1849.3281 5107.8906,1848.1875 Q5108.5156,1847.0313 5109.6094,1846.4219 Q5110.7031,1845.7969 5111.9375,1845.7969 Q5112.6719,1845.7969 5113.3125,1845.9688 Q5113.9688,1846.125 5114.5156,1846.4844 Z " fill="#000000"/><text fill="#000000" font-family="sans-serif" font-size="14" lengthAdjust="spacing" textLength="58" x="5132.25" y="1856.3379">Currency</text><line style="stroke:#181818;stroke-width:0.5;" x1="4996" x2="5294" y1="1866.6094" y2="1866.6094"/><text fill="#000000" font-family="sans-serif" font-size="14" lengthAdjust="spacing" textLength="42" x="5001" y="1885.1426">+Id: int</text><text fill="#000000" font-family="sans-serif" font-size="14" lengthAdjust="spacing" textLength="97" x="5001" y="1902.752">+Symbol: string</text><text fill="#000000" font-family="sans-serif" font-size="14" lengthAdjust="spacing" textLength="87" x="5001" y="1920.3613">+Name: string</text><text fill="#000000" font-family="sans-serif" font-size="14" lengthAdjust="spacing" textLength="91" x="5001" y="1937.9707">+IsActive: bool</text><text fill="#000000" font-family="sans-serif" font-size="14" lengthAdjust="spacing" textLength="288" x="5001" y="1955.5801">+ExchangeRates: ICollection&lt;ExchangeRate&gt;</text></g><!--class RateSource--><g id="elem_RateSource"><rect codeLine="186" fill="#F1F1F1" height="128.0469" id="RateSource" rx="2.5" ry="2.5" style="stroke:#181818;stroke-width:0.5;" width="300" x="4660" y="1834.6094"/><ellipse cx="4768.25" cy="1850.6094" fill="#ADD1B2" rx="11" ry="11" style="stroke:#181818;stroke-width:1.0;"/><path d="M4771.0156,1846.4844 Q4771.1719,1846.2656 4771.3594,1846.1563 Q4771.5469,1846.0469 4771.7656,1846.0469 Q4772.1406,1846.0469 4772.375,1846.3125 Q4772.6094,1846.5625 4772.6094,1847.1719 L4772.6094,1848.625 Q4772.6094,1849.2344 4772.375,1849.5 Q4772.1406,1849.7656 4771.7656,1849.7656 Q4771.4219,1849.7656 4771.2188,1849.5625 Q4771.0156,1849.375 4770.9063,1848.8594 Q4770.8594,1848.5 4770.6719,1848.3125 Q4770.3438,1847.9375 4769.7344,1847.7188 Q4769.125,1847.5 4768.5,1847.5 Q4767.7344,1847.5 4767.0938,1847.8281 Q4766.4688,1848.1563 4765.9688,1848.9063 Q4765.4844,1849.6563 4765.4844,1850.6875 L4765.4844,1851.7813 Q4765.4844,1853.0156 4766.375,1853.8438 Q4767.2656,1854.6563 4768.8594,1854.6563 Q4769.7969,1854.6563 4770.4531,1854.4063 Q4770.8438,1854.25 4771.2656,1853.8125 Q4771.5313,1853.5469 4771.6719,1853.4688 Q4771.8281,1853.3906 4772.0313,1853.3906 Q4772.3594,1853.3906 4772.6094,1853.6563 Q4772.875,1853.9063 4772.875,1854.25 Q4772.875,1854.5938 4772.5313,1855 Q4772.0313,1855.5781 4771.2344,1855.9063 Q4770.1563,1856.3594 4768.8594,1856.3594 Q4767.3438,1856.3594 4766.1406,1855.7344 Q4765.1563,1855.2344 4764.4688,1854.1719 Q4763.7813,1853.0938 4763.7813,1851.8125 L4763.7813,1850.6563 Q4763.7813,1849.3281 4764.3906,1848.1875 Q4765.0156,1847.0313 4766.1094,1846.4219 Q4767.2031,1845.7969 4768.4375,1845.7969 Q4769.1719,1845.7969 4769.8125,1845.9688 Q4770.4688,1846.125 4771.0156,1846.4844 Z " fill="#000000"/><text fill="#000000" font-family="sans-serif" font-size="14" lengthAdjust="spacing" textLength="75" x="4788.75" y="1856.3379">RateSource</text><line style="stroke:#181818;stroke-width:0.5;" x1="4661" x2="4959" y1="1866.6094" y2="1866.6094"/><text fill="#000000" font-family="sans-serif" font-size="14" lengthAdjust="spacing" textLength="42" x="4666" y="1885.1426">+Id: int</text><text fill="#000000" font-family="sans-serif" font-size="14" lengthAdjust="spacing" textLength="85" x="4666" y="1902.752">+Code: string</text><text fill="#000000" font-family="sans-serif" font-size="14" lengthAdjust="spacing" textLength="87" x="4666" y="1920.3613">+Name: string</text><text fill="#000000" font-family="sans-serif" font-size="14" lengthAdjust="spacing" textLength="91" x="4666" y="1937.9707">+IsActive: bool</text><text fill="#000000" font-family="sans-serif" font-size="14" lengthAdjust="spacing" textLength="288" x="4666" y="1955.5801">+ExchangeRates: ICollection&lt;ExchangeRate&gt;</text></g><!--class ExchangeRate--><g id="elem_ExchangeRate"><rect codeLine="194" fill="#F1F1F1" height="163.2656" id="ExchangeRate" rx="2.5" ry="2.5" style="stroke:#181818;stroke-width:0.5;" width="173" x="5090.5" y="2040.6094"/><ellipse cx="5127.55" cy="2056.6094" fill="#ADD1B2" rx="11" ry="11" style="stroke:#181818;stroke-width:1.0;"/><path d="M5130.3156,2052.4844 Q5130.4719,2052.2656 5130.6594,2052.1563 Q5130.8469,2052.0469 5131.0656,2052.0469 Q5131.4406,2052.0469 5131.675,2052.3125 Q5131.9094,2052.5625 5131.9094,2053.1719 L5131.9094,2054.625 Q5131.9094,2055.2344 5131.675,2055.5 Q5131.4406,2055.7656 5131.0656,2055.7656 Q5130.7219,2055.7656 5130.5188,2055.5625 Q5130.3156,2055.375 5130.2063,2054.8594 Q5130.1594,2054.5 5129.9719,2054.3125 Q5129.6438,2053.9375 5129.0344,2053.7188 Q5128.425,2053.5 5127.8,2053.5 Q5127.0344,2053.5 5126.3938,2053.8281 Q5125.7688,2054.1563 5125.2688,2054.9063 Q5124.7844,2055.6563 5124.7844,2056.6875 L5124.7844,2057.7813 Q5124.7844,2059.0156 5125.675,2059.8438 Q5126.5656,2060.6563 5128.1594,2060.6563 Q5129.0969,2060.6563 5129.7531,2060.4063 Q5130.1438,2060.25 5130.5656,2059.8125 Q5130.8313,2059.5469 5130.9719,2059.4688 Q5131.1281,2059.3906 5131.3313,2059.3906 Q5131.6594,2059.3906 5131.9094,2059.6563 Q5132.175,2059.9063 5132.175,2060.25 Q5132.175,2060.5938 5131.8313,2061 Q5131.3313,2061.5781 5130.5344,2061.9063 Q5129.4563,2062.3594 5128.1594,2062.3594 Q5126.6438,2062.3594 5125.4406,2061.7344 Q5124.4563,2061.2344 5123.7688,2060.1719 Q5123.0813,2059.0938 5123.0813,2057.8125 L5123.0813,2056.6563 Q5123.0813,2055.3281 5123.6906,2054.1875 Q5124.3156,2053.0313 5125.4094,2052.4219 Q5126.5031,2051.7969 5127.7375,2051.7969 Q5128.4719,2051.7969 5129.1125,2051.9688 Q5129.7688,2052.125 5130.3156,2052.4844 Z " fill="#000000"/><text fill="#000000" font-family="sans-serif" font-size="14" lengthAdjust="spacing" textLength="92" x="5146.45" y="2062.3379">ExchangeRate</text><line style="stroke:#181818;stroke-width:0.5;" x1="5091.5" x2="5262.5" y1="2072.6094" y2="2072.6094"/><text fill="#000000" font-family="sans-serif" font-size="14" lengthAdjust="spacing" textLength="42" x="5096.5" y="2091.1426">+Id: int</text><text fill="#000000" font-family="sans-serif" font-size="14" lengthAdjust="spacing" textLength="100" x="5096.5" y="2108.752">+CurrencyId: int</text><text fill="#000000" font-family="sans-serif" font-size="14" lengthAdjust="spacing" textLength="117" x="5096.5" y="2126.3613">+RateSourceId: int</text><text fill="#000000" font-family="sans-serif" font-size="14" lengthAdjust="spacing" textLength="120" x="5096.5" y="2143.9707">+BuyPrice: decimal</text><text fill="#000000" font-family="sans-serif" font-size="14" lengthAdjust="spacing" textLength="119" x="5096.5" y="2161.5801">+SellPrice: decimal</text><text fill="#000000" font-family="sans-serif" font-size="14" lengthAdjust="spacing" textLength="161" x="5096.5" y="2179.1895">+EffectiveDate: DateTime</text><text fill="#000000" font-family="sans-serif" font-size="14" lengthAdjust="spacing" textLength="142" x="5096.5" y="2196.7988">+FetchedAt: DateTime</text></g><g id="elem_GMN63"><path d="M5351,2100.6094 L5351,2118.1094 L5263.62,2122.1094 L5351,2126.1094 L5351,2143.3125 A0,0 0 0 0 5351,2143.3125 L5619,2143.3125 A0,0 0 0 0 5619,2143.3125 L5619,2110.6094 L5609,2100.6094 L5351,2100.6094 A0,0 0 0 0 5351,2100.6094 " fill="#FEFFDD" style="stroke:#181818;stroke-width:0.5;"/><path d="M5609,2100.6094 L5609,2110.6094 L5619,2110.6094 L5609,2100.6094 " fill="#FEFFDD" style="stroke:#181818;stroke-width:0.5;"/><text fill="#000000" font-family="sans-serif" font-size="13" lengthAdjust="spacing" textLength="126" x="5357" y="2119.1045">Unique database key:</text><text fill="#000000" font-family="sans-serif" font-size="13" lengthAdjust="spacing" textLength="247" x="5357" y="2135.4561">CurrencyId + RateSourceId + EffectiveDate</text></g><g id="elem_GMN66"><path d="M5572,1579.6094 L5572,1655.0156 L5856,1655.0156 L5856,1589.6094 L5846,1579.6094 L5572,1579.6094 " fill="#FEFFDD" style="stroke:#181818;stroke-width:0.5;"/><path d="M5846,1579.6094 L5846,1589.6094 L5856,1589.6094 L5846,1579.6094 " fill="#FEFFDD" style="stroke:#181818;stroke-width:1.0;"/><text fill="#000000" font-family="sans-serif" font-size="13" lengthAdjust="spacing" textLength="149" x="5578" y="1598.1045">ECB data is EUR-relative.</text><text fill="#000000" font-family="sans-serif" font-size="13" lengthAdjust="spacing" textLength="214" x="5578" y="1614.4561">Application stores PLN-relative rates:</text><text fill="#000000" font-family="sans-serif" font-size="13" lengthAdjust="spacing" textLength="263" x="5578" y="1630.8076">RateToPLN = EUR_PLN / EUR_CURRENCY.</text><text fill="#000000" font-family="sans-serif" font-size="13" lengthAdjust="spacing" textLength="174" x="5578" y="1647.1592">BuyPrice = SellPrice for ECB.</text></g><!--link ExchangeRateDashboard to ExchangeRateApiService--><g id="link_ExchangeRateDashboard_ExchangeRateApiService"><path codeLine="205" d="M392,332.6694 C392,359.5794 392,380.9394 392,404.3294 " fill="none" id="ExchangeRateDashboard-to-ExchangeRateApiService" style="stroke:#181818;stroke-width:1.0;"/><polygon fill="#181818" points="392,410.3294,396,401.3294,392,405.3294,388,401.3294,392,410.3294" style="stroke:#181818;stroke-width:1.0;"/><text fill="#000000" font-family="sans-serif" font-size="13" lengthAdjust="spacing" textLength="28" x="393" y="377.1045">uses</text></g><!--link ExchangeRateApiService to ExchangeRatesController--><g id="link_ExchangeRateApiService_ExchangeRatesController"><path codeLine="206" d="M392,539.9194 C392,570.5194 392,601.7094 392,635.1594 " fill="none" id="ExchangeRateApiService-to-ExchangeRatesController" style="stroke:#181818;stroke-width:1.0;"/><polygon fill="#181818" points="392,641.1594,396,632.1594,392,636.1594,388,632.1594,392,641.1594" style="stroke:#181818;stroke-width:1.0;"/><text fill="#000000" font-family="sans-serif" font-size="13" lengthAdjust="spacing" textLength="32" x="393" y="586.1045">HTTP</text></g><!--link ExchangeRatesController to IExchangeRateService--><g id="link_ExchangeRatesController_IExchangeRateService"><path codeLine="208" d="M379.42,823.8194 C371.58,880.0294 362.7489,943.3869 356.9489,984.9669 " fill="none" id="ExchangeRatesController-to-IExchangeRateService" style="stroke:#181818;stroke-width:1.0;"/><polygon fill="#181818" points="356.12,990.9094,361.325,982.5483,356.8108,985.9573,353.4017,981.4431,356.12,990.9094" style="stroke:#181818;stroke-width:1.0;"/><text fill="#000000" font-family="sans-serif" font-size="13" lengthAdjust="spacing" textLength="72" x="375" y="870.1045">read DB first</text></g><!--link ExchangeRatesController to IExchangeRateSyncService--><g id="link_ExchangeRatesController_IExchangeRateSyncService"><path codeLine="209" d="M590.69,823.6194 C706.41,876.0394 841.9247,937.4234 934.9647,979.5734 " fill="none" id="ExchangeRatesController-to-IExchangeRateSyncService" style="stroke:#181818;stroke-width:1.0;"/><polygon fill="#181818" points="940.43,982.0494,933.8827,974.6919,935.8756,979.9861,930.5814,981.979,940.43,982.0494" style="stroke:#181818;stroke-width:1.0;"/><text fill="#000000" font-family="sans-serif" font-size="13" lengthAdjust="spacing" textLength="145" x="699" y="870.1045">cache-miss/manual sync</text></g><!--link NbpExchangeRateStartupSyncService to IExchangeRateSyncService--><g id="link_NbpExchangeRateStartupSyncService_IExchangeRateSyncService"><path codeLine="210" d="M1041,793.4594 C1041,849.1994 1041,925.1094 1041,975.8094 " fill="none" id="NbpExchangeRateStartupSyncService-to-IExchangeRateSyncService" style="stroke:#181818;stroke-width:1.0;"/><polygon fill="#181818" points="1041,981.8094,1045,972.8094,1041,976.8094,1037,972.8094,1041,981.8094" style="stroke:#181818;stroke-width:1.0;"/><text fill="#000000" font-family="sans-serif" font-size="13" lengthAdjust="spacing" textLength="103" x="1042" y="870.1045">startup NBP sync</text></g><!--reverse link IExchangeRateService to ExchangeRateService--><g id="link_IExchangeRateService_ExchangeRateService"><path codeLine="212" d="M507.2532,1070.6209 C564.2032,1085.2609 613.43,1097.4994 674,1111.6094 C933.69,1172.0894 1231.4,1234.5494 1441.93,1277.5694 " fill="none" id="IExchangeRateService-backto-ExchangeRateService" style="stroke:#181818;stroke-width:1.0;stroke-dasharray:7.0,7.0;"/><polygon fill="none" points="489.82,1066.1394,505.7594,1076.4319,508.747,1064.8098,489.82,1066.1394" style="stroke:#181818;stroke-width:1.0;"/></g><!--reverse link IExchangeRateSyncService to ExchangeRateSyncService--><g id="link_IExchangeRateSyncService_ExchangeRateSyncService"><path codeLine="213" d="M1234.798,1079.2613 C1294.918,1093.1513 1345.26,1102.9694 1408,1111.6094 C1685.34,1149.8194 1758.71,1115.0494 2037,1145.6094 C2287.69,1173.1294 2567.42,1219.5594 2785.24,1259.2694 " fill="none" id="IExchangeRateSyncService-backto-ExchangeRateSyncService" style="stroke:#181818;stroke-width:1.0;stroke-dasharray:7.0,7.0;"/><polygon fill="none" points="1217.26,1075.2094,1233.4474,1085.1073,1236.1487,1073.4153,1217.26,1075.2094" style="stroke:#181818;stroke-width:1.0;"/></g><!--reverse link IExternalExchangeRateClient to NbpExchangeRateClient--><g id="link_IExternalExchangeRateClient_NbpExchangeRateClient"><path codeLine="214" d="M2699.2658,1046.9984 C2993.1158,1065.1384 3397.44,1097.3194 3555,1145.6094 C3645.87,1173.4594 3740.15,1226.4794 3807.14,1268.9794 " fill="none" id="IExternalExchangeRateClient-backto-NbpExchangeRateClient" style="stroke:#181818;stroke-width:1.0;stroke-dasharray:7.0,7.0;"/><polygon fill="none" points="2681.3,1045.8894,2698.8961,1052.987,2699.6355,1041.0098,2681.3,1045.8894" style="stroke:#181818;stroke-width:1.0;"/></g><!--reverse link IExternalExchangeRateClient to EcbExchangeRateClient--><g id="link_IExternalExchangeRateClient_EcbExchangeRateClient"><path codeLine="215" d="M2699.2983,1032.1491 C3147.5083,1038.3691 3942.69,1061.1094 4222,1145.6094 C4303.25,1170.1894 4385.92,1218.5794 4447.29,1259.9794 " fill="none" id="IExternalExchangeRateClient-backto-EcbExchangeRateClient" style="stroke:#181818;stroke-width:1.0;stroke-dasharray:7.0,7.0;"/><polygon fill="none" points="2681.3,1031.8994,2699.215,1038.1486,2699.3815,1026.1497,2681.3,1031.8994" style="stroke:#181818;stroke-width:1.0;"/></g><!--reverse link IExchangeRateRepository to ExchangeRateRepository--><g id="link_IExchangeRateRepository_ExchangeRateRepository"><path codeLine="216" d="M1896.4316,1079.8568 C1950.6116,1094.4368 1995.37,1104.0594 2053,1111.6094 C2132.66,1122.0394 2695.67,1118.6694 2776,1119.6094 C2892.11,1120.9694 4753.62,1116.3694 4866,1145.6094 C4968.86,1172.3694 5074.47,1235.9594 5141.28,1281.5494 " fill="none" id="IExchangeRateRepository-backto-ExchangeRateRepository" style="stroke:#181818;stroke-width:1.0;stroke-dasharray:7.0,7.0;"/><polygon fill="none" points="1879.05,1075.1794,1894.8725,1085.6507,1897.9908,1074.0629,1879.05,1075.1794" style="stroke:#181818;stroke-width:1.0;"/></g><!--link ExchangeRateService to IExchangeRateRepository--><g id="link_ExchangeRateService_IExchangeRateRepository"><path codeLine="218" d="M1718.73,1277.5494 C1721.59,1219.5994 1725.7634,1135.432 1728.4434,1081.292 " fill="none" id="ExchangeRateService-to-IExchangeRateRepository" style="stroke:#181818;stroke-width:1.0;"/><polygon fill="#181818" points="1728.74,1075.2994,1724.2999,1084.0906,1728.4928,1080.2933,1732.2901,1084.4861,1728.74,1075.2994" style="stroke:#181818;stroke-width:1.0;"/></g><!--link ExchangeRateSyncService to ApplicationDbContext--><g id="link_ExchangeRateSyncService_ApplicationDbContext"><path codeLine="219" d="M3474.67,1433.6194 C3509.64,1442.6694 3544.93,1450.9194 3579,1457.6094 C4078.76,1555.7194 4674.8671,1594.6985 4965.4071,1608.7985 " fill="none" id="ExchangeRateSyncService-to-ApplicationDbContext" style="stroke:#181818;stroke-width:1.0;"/><polygon fill="#181818" points="4971.4,1609.0894,4962.6045,1604.6578,4966.4059,1608.847,4962.2167,1612.6484,4971.4,1609.0894" style="stroke:#181818;stroke-width:1.0;"/></g><!--link ExchangeRateSyncService to IExternalExchangeRateClient--><g id="link_ExchangeRateSyncService_IExternalExchangeRateClient"><path codeLine="220" d="M2905.14,1233.5894 C2779.9,1185.3094 2639.1984,1131.0675 2532.2184,1089.8275 " fill="none" id="ExchangeRateSyncService-to-IExternalExchangeRateClient" style="stroke:#181818;stroke-width:1.0;"/><polygon fill="#181818" points="2526.62,1087.6694,2533.5789,1094.6389,2531.2854,1089.4678,2536.4564,1087.1743,2526.62,1087.6694" style="stroke:#181818;stroke-width:1.0;"/><text fill="#000000" font-family="sans-serif" font-size="13" lengthAdjust="spacing" textLength="113" x="2654" y="1134.1045">SourceCode lookup</text></g><!--link NbpExchangeRateClient to ExternalExchangeRateTableDto--><g id="link_NbpExchangeRateClient_ExternalExchangeRateTableDto"><path codeLine="221" d="M3753.8,1398.1194 C3693.43,1421.3194 3622.01,1444.9594 3555,1457.6094 C3498.2,1468.3294 3352.44,1459.0894 3295,1465.6094 C3079.39,1490.0794 2839.5583,1541.9859 2687.0883,1578.1159 " fill="none" id="NbpExchangeRateClient-to-ExternalExchangeRateTableDto" style="stroke:#181818;stroke-width:1.0;"/><polygon fill="#181818" points="2681.25,1579.4994,2690.9298,1581.3164,2686.1153,1578.3465,2689.0852,1573.5319,2681.25,1579.4994" style="stroke:#181818;stroke-width:1.0;"/><text fill="#000000" font-family="sans-serif" font-size="13" lengthAdjust="spacing" textLength="125" x="3296" y="1480.1045">JSON table C bid/ask</text></g><!--link EcbExchangeRateClient to ExternalExchangeRateTableDto--><g id="link_EcbExchangeRateClient_ExternalExchangeRateTableDto"><path codeLine="222" d="M4380.04,1407.2494 C4330.13,1426.5294 4274.6,1445.3594 4222,1457.6094 C3663.34,1587.6694 2983.0695,1611.4885 2687.1995,1615.4785 " fill="none" id="EcbExchangeRateClient-to-ExternalExchangeRateTableDto" style="stroke:#181818;stroke-width:1.0;"/><polygon fill="#181818" points="2681.2,1615.5594,2690.2531,1619.4377,2686.1995,1615.492,2690.1452,1611.4384,2681.2,1615.5594" style="stroke:#181818;stroke-width:1.0;"/><text fill="#000000" font-family="sans-serif" font-size="13" lengthAdjust="spacing" textLength="95" x="4179" y="1480.1045">XML mid -&gt; PLN</text></g><!--reverse link ExternalExchangeRateTableDto to ExternalExchangeRateItemDto--><g id="link_ExternalExchangeRateTableDto_ExternalExchangeRateItemDto"><path codeLine="223" d="M2534,1684.3294 C2534,1733.6994 2534,1794.2094 2534,1843.5394 " fill="none" id="ExternalExchangeRateTableDto-backto-ExternalExchangeRateItemDto" style="stroke:#181818;stroke-width:1.0;"/><polygon fill="#181818" points="2534,1672.3294,2530,1678.3294,2534,1684.3294,2538,1678.3294,2534,1672.3294" style="stroke:#181818;stroke-width:1.0;"/><text fill="#000000" font-family="sans-serif" font-size="13" lengthAdjust="spacing" textLength="7" x="2526.5516" y="1693.919">1</text><text fill="#000000" font-family="sans-serif" font-size="13" lengthAdjust="spacing" textLength="32" x="2499.95" y="1832.9481">many</text></g><!--link ApplicationDbContext to Currency--><g id="link_ApplicationDbContext_Currency"><path codeLine="225" d="M5145,1681.8794 C5145,1727.6394 5145,1783.0094 5145,1828.5894 " fill="none" id="ApplicationDbContext-to-Currency" style="stroke:#181818;stroke-width:1.0;"/><polygon fill="#181818" points="5145,1834.5894,5149,1825.5894,5145,1829.5894,5141,1825.5894,5145,1834.5894" style="stroke:#181818;stroke-width:1.0;"/></g><!--link ApplicationDbContext to RateSource--><g id="link_ApplicationDbContext_RateSource"><path codeLine="226" d="M5058.9,1681.8194 C5032.28,1702.0794 5003.11,1724.8794 4977,1746.6094 C4943.35,1774.6094 4911.5997,1802.9615 4881.5497,1830.5515 " fill="none" id="ApplicationDbContext-to-RateSource" style="stroke:#181818;stroke-width:1.0;"/><polygon fill="#181818" points="4877.13,1834.6094,4886.4648,1831.469,4880.8131,1831.2278,4881.0543,1825.5761,4877.13,1834.6094" style="stroke:#181818;stroke-width:1.0;"/></g><!--link ApplicationDbContext to ExchangeRate--><g id="link_ApplicationDbContext_ExchangeRate"><path codeLine="227" d="M5257.51,1681.6594 C5279.49,1699.6394 5299.56,1721.3394 5312,1746.6094 C5362.06,1848.2894 5358.53,1898.2694 5312,2001.6094 C5301.27,2025.4394 5287.6498,2042.4367 5268.1298,2059.9167 " fill="none" id="ApplicationDbContext-to-ExchangeRate" style="stroke:#181818;stroke-width:1.0;"/><polygon fill="#181818" points="5263.66,2063.9194,5273.0331,2060.8953,5267.3848,2060.5838,5267.6962,2054.9356,5263.66,2063.9194" style="stroke:#181818;stroke-width:1.0;"/></g><!--link ExchangeRateRepository to ApplicationDbContext--><g id="link_ExchangeRateRepository_ApplicationDbContext"><path codeLine="228" d="M5198.97,1385.9094 C5187.98,1432.7794 5173.0688,1496.3776 5161.2688,1546.7376 " fill="none" id="ExchangeRateRepository-to-ApplicationDbContext" style="stroke:#181818;stroke-width:1.0;"/><polygon fill="#181818" points="5159.9,1552.5794,5165.8477,1544.7292,5161.0407,1547.7112,5158.0587,1542.9042,5159.9,1552.5794" style="stroke:#181818;stroke-width:1.0;"/></g><!--link Currency to ExchangeRate--><g id="link_Currency_ExchangeRate"><path codeLine="230" d="M5154.13,1962.7894 C5157.62,1986.9494 5161.65,2014.8494 5165.34,2040.4394 " fill="none" id="Currency-ExchangeRate" style="stroke:#181818;stroke-width:1.0;"/><text fill="#000000" font-family="sans-serif" font-size="13" lengthAdjust="spacing" textLength="7" x="5147.7458" y="1984.1958">1</text><text fill="#000000" font-family="sans-serif" font-size="13" lengthAdjust="spacing" textLength="32" x="5130.7901" y="2029.672">many</text></g><!--link RateSource to ExchangeRate--><g id="link_RateSource_ExchangeRate"><path codeLine="231" d="M4912.8,1962.6094 C4934,1975.5494 4956.21,1989.0494 4977,2001.6094 C5014.04,2023.9894 5055.06,2048.5394 5090.26,2069.5294 " fill="none" id="RateSource-ExchangeRate" style="stroke:#181818;stroke-width:1.0;"/><text fill="#000000" font-family="sans-serif" font-size="13" lengthAdjust="spacing" textLength="7" x="4916.6609" y="1983.9962">1</text><text fill="#000000" font-family="sans-serif" font-size="13" lengthAdjust="spacing" textLength="32" x="5050.394" y="2062.3896">many</text></g><!--link ExchangeRateSyncService to NbpSyncResultDto--><g id="link_ExchangeRateSyncService_NbpSyncResultDto"><path codeLine="233" d="M2785.42,1363.6294 C2648.36,1385.6894 2496.02,1424.2794 2369,1491.6094 C2347.81,1502.8394 2332.1693,1514.6456 2314.6393,1531.3856 " fill="none" id="ExchangeRateSyncService-to-NbpSyncResultDto" style="stroke:#181818;stroke-width:1.0;"/><polygon fill="#181818" points="2310.3,1535.5294,2319.5714,1532.2066,2313.9161,1532.0763,2314.0464,1526.4209,2310.3,1535.5294" style="stroke:#181818;stroke-width:1.0;"/></g><!--link ExchangeRateService to ExchangeRateChartResponseDto--><g id="link_ExchangeRateService_ExchangeRateChartResponseDto"><path codeLine="234" d="M1715.21,1389.8894 C1714.55,1436.7994 1713.6745,1498.11 1712.9845,1547.1 " fill="none" id="ExchangeRateService-to-ExchangeRateChartResponseDto" style="stroke:#181818;stroke-width:1.0;"/><polygon fill="#181818" points="1712.9,1553.0994,1717.0264,1544.1566,1712.9704,1548.0999,1709.0271,1544.0439,1712.9,1553.0994" style="stroke:#181818;stroke-width:1.0;"/></g><!--link ExchangeRateService to ExchangeRateTableRowDto--><g id="link_ExchangeRateService_ExchangeRateTableRowDto"><path codeLine="235" d="M1770.91,1389.7894 C1800.82,1419.8694 1838.47,1457.7594 1872,1491.6094 C1886.01,1505.7494 1896.6823,1516.5319 1911.0923,1531.1119 " fill="none" id="ExchangeRateService-to-ExchangeRateTableRowDto" style="stroke:#181818;stroke-width:1.0;"/><polygon fill="#181818" points="1915.31,1535.3794,1911.8284,1526.1664,1911.7953,1531.8232,1906.1385,1531.79,1915.31,1535.3794" style="stroke:#181818;stroke-width:1.0;"/></g><!--reverse link ExchangeRateChartResponseDto to ExchangeRateChartPointDto--><g id="link_ExchangeRateChartResponseDto_ExchangeRateChartPointDto"><path codeLine="236" d="M1712,1693.1794 C1712,1745.0294 1712,1805.2594 1712,1851.7394 " fill="none" id="ExchangeRateChartResponseDto-backto-ExchangeRateChartPointDto" style="stroke:#181818;stroke-width:1.0;"/><polygon fill="#181818" points="1712,1681.1794,1708,1687.1794,1712,1693.1794,1716,1687.1794,1712,1681.1794" style="stroke:#181818;stroke-width:1.0;"/><text fill="#000000" font-family="sans-serif" font-size="13" lengthAdjust="spacing" textLength="7" x="1704.6172" y="1702.5738">1</text><text fill="#000000" font-family="sans-serif" font-size="13" lengthAdjust="spacing" textLength="32" x="1677.65" y="1841.2139">many</text></g><!--link EcbExchangeRateClient to GMN66--><g id="link_EcbExchangeRateClient_GMN66"><path d="M4717.73,1407.2194 C4771.95,1426.9994 4832.64,1446.1194 4890,1457.6094 C5030.08,1485.6694 5396.68,1445.7994 5532,1491.6094 C5586.57,1510.0894 5639.88,1549.8694 5674.55,1579.5194 " fill="none" id="EcbExchangeRateClient-GMN66" style="stroke:#181818;stroke-width:1.0;stroke-dasharray:7.0,7.0;"/></g><!--SRC=[xLfRRzis57xNho2ybsIDqmq32apmFFYMrLlY6762jXY6WfReXB0aQYILnklwttT8IJObaNBY1G4Ar4yIUNXuxkSZPKbbHD3aGHAUu0YHX-0E9xS4SIm9eeaaj_14MOAwA8Ym42Ya68PYpnDhcgGO7lE9WPISBZD9fW5B5lGVWdxmxcX848bJkK4nYPU42yzBSR36i47dZ3DWduHeaDnc4UOTzDb3yCktcHI2N84SOopkbWpp4FLw0OjJbf14zli5lVg1S1dd90asFX8WHt9hJ0cMyO1O9bQSnPPXoIo380sNSmOM4Nv5kD5sui-_3Fe8feHK13NwQxoCo1NxP52_GYiYWxinblZes4Tp48iAqhjdDEmRH61MhSb8ypgggWNh5Br1BaX40Zagx79KDr1p0HKbyU0UqqZ9USPulkTs-OY5sprF2jEQOy1soLX4S68QW-5GQGSkZuVWV_2wNT4ldYC41YbT47vF0m8n8FAdMWJWbDxmgE6wL-YMIEqaRT-w6KvguN5IYOeJ8nYEgopFTmwkky9qmYO9Piiq9sld_CNxOcJ7O3vr9uGOGUfm5aM4wvGeNseM-KYCDONvV3ITD4UTYq1ynyBTZA7kRuUOUgooWiRarzmcszVZAcEtmKyQsLzPksZweDoZkYFmmKb0eaXNl6i6SUgZKNsepdeIB6siwzeSnbnp7cwA96ocs-DiM4ahC4N5aHBybQM6Fo6axfYG94IsH0Evr8g1YkoZ9wiaMNh8oguAW1bva1TK251RwLVmKKtaGVfeaAOH3VJYyNAKZpxLvbtq3bC9HK_5xn8BdHw4F_DEjKJVSJkT0Y- -mW4HPUxJSiIQjXMtcBbNIFp8cbqFeceCkTCmtyN6pxPpDHPTYXbX-DcM2-uzdp-pytOeFn3Cz-bx0FUo9ELSdqjwctbpR5S1BH45nQeMRgZLc9pXs3PvWH-k5ECntW3MWPsh0JFCDWiGz8LqtUbuHL8cg6HyypMcISveya2555Knfw4syec6wBbZjaDajGBCH- -9agekcxlk51adt8XZ7_Yge8QTvNsNIxx6kkMotlZwic6vPifft3-Mh1ACUj2IKhDCdPOi4nExWmsAuiXn3e7JiyanbIG6CQnusqbT4Rey9JZAmSXYGsCQoi6SQpmPae36E3BB32IvPR8ENtGp82ABP5sqiqeyc8Pcrk5169AmNhCMQvgcpM7jAt6cJchDIJZAGFu84kfAMDe_Lzuymxt3F84X6u7pxAEp0_I5SwyWBcUq5cx7v5EjLHv_YzYodO5TaUMWhQZY3Ed_6pAsu_SJxRWdvWzldliJ-Y3jpLerJLOSmyPP83DE7bFiAsS1Hy5lXSEkpf3Z3g7QGfB5X2jdz5eGIlyR13nCUdrWkkGZJbJRtGA5ehzgs_fjqF3f-vqp76gu0jPGVFuWcq8l2qvvNbKN480IpauiBxvx31dNuUhn_fmf3MNFdTg9kW3NlHufRrLJpkvfI3ZABLy_JpUY2Vs2EhFXlDDQH3GHvYnadpPeY9CrrET8h6cd3Ph3efz_Uc5yNXIOOFdyHfgCXlkDDCauImbEq0ZOSjX96MkVbNvwy-Qbp5GqLym5UGlvmw2UutoVev05K2PLhhuV5u-F0RsjiJmdNC0sqCr8DOnjXHmSj7skUQHeYLIXdV5oGMIlR9Bz6XpDtR8bsmtrAqSTutwp93K7TyJVeSla0Y8XqkKDl7mKgxTXHgDGeUOBuysyvdQ20kEesElnxKjDuMydnpoUnYp6D3cT999AMg-5PGnKB3TjOknDl6Isote7J9gAWPOk_xhW3flfI5s41og6BS5J2O1T6EwHrG7hNavIStgVh5LNMnEnENS0n7miUYtEImDPczKXPV_8r-tsNTz-V9G98Zp7R7sX-Pd4Hs-lh-VLBSrvjTPwnUeZA38X6W_HYd8Xdy30GD4-j0CmGpUcGhoESP915rAfwUs_ZD_3L-Gh4C25dADdrQBtx-cfxKB7Sx9khZ2- -BHTAkg5LaYqVvaL97YkQxs6YCRzacUpGiEMnWAN7TGQwn6dRK6Rehw1PL34s3fBFJk2pEEvvIh9HxylBcT8gdSqGaiQliPYxTcXrYEulRyuHp653EoZ-VdCQwNk_DX1ttUxg0FXlEcqNHvvdXLPA7dASkMcs9KjDusvf-U85QSRlMt7KXgP2XbCZLxHGjKQ4lLxAsU0jbtzF6gHSSNXjTuZDLpekANnl8H1v-7qzauYjgegVPFGlpE2mkAB6LgJZU_jsb2jyzHxXgV-0AAu5tiicPGirfjOIm40VhqLej0MRwwwd2WuVKzEpUX02aGJeM9uIw0nZ_2r9wyPp0361mOVrTDh_JIwkRgQp4OVJhso7GB9jlkX5UC8TZ_TIVmV]--></g></svg>