<?xml version="1.0" encoding="us-ascii" standalone="no"?><svg xmlns="http://www.w3.org/2000/svg" xmlns:xlink="http://www.w3.org/1999/xlink" contentStyleType="text/css" height="1066px" preserveAspectRatio="none" style="width:671px;height:1066px;background:#FFFFFF;" version="1.1" viewBox="0 0 671 1066" width="671px" zoomAndPan="magnify"><defs/><g><!--cluster System GieudexPol--><g id="cluster_System GieudexPol"><rect fill="none" height="1053" rx="2.5" ry="2.5" style="stroke:#181818;stroke-width:1.0;" width="339" x="219" y="7"/><text fill="#000000" font-family="sans-serif" font-size="14" font-weight="bold" lengthAdjust="spacing" textLength="135" x="321" y="23.5332">System GieudexPol</text></g><g id="elem_UC1"><ellipse cx="388.3974" cy="619.9795" fill="#F1F1F1" rx="90.3974" ry="20.4795" style="stroke:#181818;stroke-width:0.5;"/><text fill="#000000" font-family="sans-serif" font-size="14" lengthAdjust="spacing" textLength="139" x="318.8974" y="623.708">Zarzadzanie portfelem</text></g><g id="elem_UC2"><ellipse cx="388.7192" cy="700.9438" fill="#F1F1F1" rx="112.7192" ry="24.9438" style="stroke:#181818;stroke-width:0.5;"/><text fill="#000000" font-family="sans-serif" font-size="14" lengthAdjust="spacing" textLength="189" x="294.2192" y="704.6724">Skladanie zlecenia / transakcji</text></g><g id="elem_UC3"><ellipse cx="388.3456" cy="785.1691" fill="#F1F1F1" rx="106.3456" ry="23.6691" style="stroke:#181818;stroke-width:0.5;"/><text fill="#000000" font-family="sans-serif" font-size="14" lengthAdjust="spacing" textLength="175" x="300.8456" y="788.8976">Ustawianie alertu cenowego</text></g><g id="elem_UC4"><ellipse cx="388.605" cy="544.221" fill="#F1F1F1" rx="89.105" ry="20.221" style="stroke:#181818;stroke-width:0.5;"/><text fill="#000000" font-family="sans-serif" font-size="14" lengthAdjust="spacing" textLength="136" x="320.605" y="547.9495">Podglad kursow walut</text></g><g id="elem_UC4a"><ellipse cx="388.2727" cy="70.7545" fill="#F1F1F1" rx="124.2727" ry="27.2545" style="stroke:#181818;stroke-width:0.5;"/><text fill="#000000" font-family="sans-serif" font-size="14" lengthAdjust="spacing" textLength="214" x="281.2727" y="74.4831">Wybor waluty, zrodla i zakresu dat</text></g><g id="elem_UC4b"><ellipse cx="388.5791" cy="348.1158" fill="#F1F1F1" rx="153.5791" ry="33.1158" style="stroke:#181818;stroke-width:0.5;"/><text fill="#000000" font-family="sans-serif" font-size="14" lengthAdjust="spacing" textLength="276" x="250.5791" y="351.8443">Automatyczne pobranie brakujacych kursow</text></g><g id="elem_UC4c"><ellipse cx="388.3478" cy="152.8696" fill="#F1F1F1" rx="84.8478" ry="19.3696" style="stroke:#181818;stroke-width:0.5;"/><text fill="#000000" font-family="sans-serif" font-size="14" lengthAdjust="spacing" textLength="126" x="325.3478" y="156.5981">Synchronizacja NBP</text></g><g id="elem_UC4d"><ellipse cx="388.2698" cy="226.954" fill="#F1F1F1" rx="85.2698" ry="19.454" style="stroke:#181818;stroke-width:0.5;"/><text fill="#000000" font-family="sans-serif" font-size="14" lengthAdjust="spacing" textLength="127" x="324.7698" y="230.6825">Synchronizacja ECB</text></g><g id="elem_UC4e"><ellipse cx="388.2727" cy="443.7545" fill="#F1F1F1" rx="124.2727" ry="27.2545" style="stroke:#181818;stroke-width:0.5;"/><text fill="#000000" font-family="sans-serif" font-size="14" lengthAdjust="spacing" textLength="214" x="281.2727" y="447.4831">Wyswietlenie wykresu kursow PLN</text></g><g id="elem_UC5"><ellipse cx="388.7471" cy="864.0494" fill="#F1F1F1" rx="88.2471" ry="20.0494" style="stroke:#181818;stroke-width:0.5;"/><text fill="#000000" font-family="sans-serif" font-size="14" lengthAdjust="spacing" textLength="134" x="321.7471" y="867.7779">Zarzadzanie walutami</text></g><g id="elem_UC6"><ellipse cx="388.566" cy="939.9132" fill="#F1F1F1" rx="92.566" ry="20.9132" style="stroke:#181818;stroke-width:0.5;"/><text fill="#000000" font-family="sans-serif" font-size="14" lengthAdjust="spacing" textLength="144" x="316.566" y="943.6417">Zarzadzanie prowizjami</text></g><g id="elem_UC7"><ellipse cx="388.6585" cy="1020.0317" fill="#F1F1F1" rx="108.1585" ry="24.0317" style="stroke:#181818;stroke-width:0.5;"/><text fill="#000000" font-family="sans-serif" font-size="14" lengthAdjust="spacing" textLength="179" x="299.1585" y="1023.7602">Monitorowanie uzytkownikow</text></g><!--entity UserActor--><g id="elem_UserActor"><ellipse cx="47.5" cy="630.5" fill="#F1F1F1" rx="8" ry="8" style="stroke:#181818;stroke-width:0.5;"/><path d="M47.5,638.5 L47.5,665.5 M34.5,646.5 L60.5,646.5 M47.5,665.5 L34.5,680.5 M47.5,665.5 L60.5,680.5 " fill="none" style="stroke:#181818;stroke-width:0.5;"/><text fill="#000000" font-family="sans-serif" font-size="14" lengthAdjust="spacing" textLength="68" x="13.5" y="696.5332">Uzytkownik</text></g><!--entity AdminActor--><g id="elem_AdminActor"><ellipse cx="47.5" cy="909.5" fill="#F1F1F1" rx="8" ry="8" style="stroke:#181818;stroke-width:0.5;"/><path d="M47.5,917.5 L47.5,944.5 M34.5,925.5 L60.5,925.5 M47.5,944.5 L34.5,959.5 M47.5,944.5 L60.5,959.5 " fill="none" style="stroke:#181818;stroke-width:0.5;"/><text fill="#000000" font-family="sans-serif" font-size="14" lengthAdjust="spacing" textLength="83" x="6" y="975.5332">Administrator</text></g><!--entity NbpApi--><g id="elem_NbpApi"><ellipse cx="634.5" cy="102.5" fill="#F1F1F1" rx="8" ry="8" style="stroke:#181818;stroke-width:0.5;"/><path d="M634.5,110.5 L634.5,137.5 M621.5,118.5 L647.5,118.5 M634.5,137.5 L621.5,152.5 M634.5,137.5 L647.5,152.5 " fill="none" style="stroke:#181818;stroke-width:0.5;"/><text fill="#000000" font-family="sans-serif" font-size="14" lengthAdjust="spacing" textLength="52" x="608.5" y="168.5332">NBP API</text></g><!--entity EcbApi--><g id="elem_EcbApi"><ellipse cx="634.5" cy="215.5" fill="#F1F1F1" rx="8" ry="8" style="stroke:#181818;stroke-width:0.5;"/><path d="M634.5,223.5 L634.5,250.5 M621.5,231.5 L647.5,231.5 M634.5,250.5 L621.5,265.5 M634.5,250.5 L647.5,265.5 " fill="none" style="stroke:#181818;stroke-width:0.5;"/><text fill="#000000" font-family="sans-serif" font-size="14" lengthAdjust="spacing" textLength="59" x="605" y="281.5332">ECB XML</text></g><!--link UserActor to UC1--><g id="link_UserActor_UC1"><path d="M81.85,656.69 C93.59,655.18 106.88,653.5 119,652 C182.36,644.18 248.2212,636.3418 301.6312,630.0518 " fill="none" id="UserActor-to-UC1" style="stroke:#181818;stroke-width:1.0;"/><polygon fill="#181818" points="307.59,629.35,298.1839,626.4301,302.6243,629.9348,299.1196,634.3752,307.59,629.35" style="stroke:#181818;stroke-width:1.0;"/></g><!--link UserActor to UC2--><g id="link_UserActor_UC2"><path d="M81.62,664.91 C129.19,670.52 212.8512,680.3977 282.8512,688.6477 " fill="none" id="UserActor-to-UC2" style="stroke:#181818;stroke-width:1.0;"/><polygon fill="#181818" points="288.81,689.35,280.3401,684.3241,283.8444,688.7648,279.4037,692.2691,288.81,689.35" style="stroke:#181818;stroke-width:1.0;"/></g><!--link UserActor to UC3--><g id="link_UserActor_UC3"><path d="M81.7,680.66 C113.84,698.98 164.4,725.97 211,743 C241.47,754.14 270.1327,761.809 300.5227,768.559 " fill="none" id="UserActor-to-UC3" style="stroke:#181818;stroke-width:1.0;"/><polygon fill="#181818" points="306.38,769.86,298.4614,764.0037,301.499,768.7759,296.7268,771.8134,306.38,769.86" style="stroke:#181818;stroke-width:1.0;"/></g><!--link UserActor to UC4--><g id="link_UserActor_UC4"><path d="M81.51,641.89 C93.22,635.34 106.58,628.12 119,622 C159,602.3 168.55,595.65 211,582 C245.17,571.01 278.1898,563.3926 310.7698,557.0726 " fill="none" id="UserActor-to-UC4" style="stroke:#181818;stroke-width:1.0;"/><polygon fill="#181818" points="316.66,555.93,307.063,553.7171,311.7515,556.8822,308.5864,561.5707,316.66,555.93" style="stroke:#181818;stroke-width:1.0;"/></g><!--link UC4 to UC4a--><g id="link_UC4_UC4a"><path d="M302.83,549.46 C257.96,547.27 206.28,535.77 176.5,499 C122.71,432.6 155.4,180.9 211,116 C226.31,98.13 241.8628,88.6288 264.4028,81.5888 " fill="none" id="UC4-to-UC4a" style="stroke:#181818;stroke-width:1.0;stroke-dasharray:7.0,7.0;"/><polygon fill="#181818" points="270.13,79.8,260.3468,78.6651,265.3574,81.2907,262.7318,86.3013,270.13,79.8" style="stroke:#181818;stroke-width:1.0;"/><text fill="#000000" font-family="sans-serif" font-size="13" lengthAdjust="spacing" textLength="41" x="140.5" y="495.4951">include</text></g><!--link UC4 to UC4b--><g id="link_UC4_UC4b"><path d="M311.91,533.68 C278.04,525.95 239.53,512.47 211,489 C180.47,463.88 152.58,438.48 176.5,407 C193.83,384.18 213.5204,371.5749 240.7304,362.4649 " fill="none" id="UC4-to-UC4b" style="stroke:#181818;stroke-width:1.0;stroke-dasharray:7.0,7.0;"/><polygon fill="#181818" points="246.42,360.56,236.6157,359.6243,241.6787,362.1474,239.1555,367.2104,246.42,360.56" style="stroke:#181818;stroke-width:1.0;"/><text fill="#000000" font-family="sans-serif" font-size="13" lengthAdjust="spacing" textLength="41" x="140.5" y="421.4951">include</text></g><!--link UC4 to UC4e--><g id="link_UC4_UC4e"><path d="M388.5,523.76 C388.5,508.81 388.5,494.27 388.5,477.79 " fill="none" id="UC4-to-UC4e" style="stroke:#181818;stroke-width:1.0;stroke-dasharray:7.0,7.0;"/><polygon fill="#181818" points="388.5,471.79,384.5,480.79,388.5,476.79,392.5,480.79,388.5,471.79" style="stroke:#181818;stroke-width:1.0;"/><text fill="#000000" font-family="sans-serif" font-size="13" lengthAdjust="spacing" textLength="41" x="356" y="503.2451">include</text></g><!--link UC4b to UC4c--><g id="link_UC4b_UC4c"><path d="M262.81,328.89 C193.61,312.02 127.07,281.32 156,227 C183.48,175.4 242.9165,158.4937 297.3865,153.3537 " fill="none" id="UC4b-to-UC4c" style="stroke:#181818;stroke-width:1.0;stroke-dasharray:7.0,7.0;"/><polygon fill="#181818" points="303.36,152.79,294.024,149.6532,298.3821,153.2597,294.7756,157.6178,303.36,152.79" style="stroke:#181818;stroke-width:1.0;"/><text fill="#000000" font-family="sans-serif" font-size="13" lengthAdjust="spacing" textLength="39" x="141.5" y="241.4951">extend</text><text fill="#000000" font-family="sans-serif" font-size="13" lengthAdjust="spacing" textLength="82" x="120" y="257.8467">source = NBP</text></g><!--link UC4b to UC4d--><g id="link_UC4b_UC4d"><path d="M388.5,314.94 C388.5,293.1 388.5,271.23 388.5,252.78 " fill="none" id="UC4b-to-UC4d" style="stroke:#181818;stroke-width:1.0;stroke-dasharray:7.0,7.0;"/><polygon fill="#181818" points="388.5,246.78,384.5,255.78,388.5,251.78,392.5,255.78,388.5,246.78" style="stroke:#181818;stroke-width:1.0;"/><text fill="#000000" font-family="sans-serif" font-size="13" lengthAdjust="spacing" textLength="39" x="349" y="278.2451">extend</text><text fill="#000000" font-family="sans-serif" font-size="13" lengthAdjust="spacing" textLength="82" x="327.5" y="294.5967">source = ECB</text></g><!--link UC4c to NbpApi--><g id="link_UC4c_NbpApi"><path d="M468.72,146.51 C517.01,142.55 569.55,138.2401 602.25,135.5601 " fill="none" id="UC4c-to-NbpApi" style="stroke:#181818;stroke-width:1.0;"/><polygon fill="#181818" points="608.23,135.07,598.9333,131.8185,603.2467,135.4784,599.5868,139.7918,608.23,135.07" style="stroke:#181818;stroke-width:1.0;"/></g><!--link UC4d to EcbApi--><g id="link_UC4d_EcbApi"><path d="M469.73,233.25 C516.26,236.87 566.0281,240.744 599.0181,243.314 " fill="none" id="UC4d-to-EcbApi" style="stroke:#181818;stroke-width:1.0;"/><polygon fill="#181818" points="605,243.78,596.3379,239.0931,600.0151,243.3917,595.7165,247.0689,605,243.78" style="stroke:#181818;stroke-width:1.0;"/></g><!--link AdminActor to UC5--><g id="link_AdminActor_UC5"><path d="M89.13,923.69 C98.81,920.17 109.19,916.7 119,914 C183.69,896.19 252.9608,883.7087 307.3008,875.2887 " fill="none" id="AdminActor-to-UC5" style="stroke:#181818;stroke-width:1.0;"/><polygon fill="#181818" points="313.23,874.37,303.7236,871.7953,308.289,875.1356,304.9486,879.7009,313.23,874.37" style="stroke:#181818;stroke-width:1.0;"/></g><!--link AdminActor to UC6--><g id="link_AdminActor_UC6"><path d="M89.05,940 C139.84,940 222.38,940 289.88,940 " fill="none" id="AdminActor-to-UC6" style="stroke:#181818;stroke-width:1.0;"/><polygon fill="#181818" points="295.88,940,286.88,936,290.88,940,286.88,944,295.88,940" style="stroke:#181818;stroke-width:1.0;"/></g><!--link AdminActor to UC7--><g id="link_AdminActor_UC7"><path d="M89.05,949.57 C144.5,962.66 239.1003,984.9825 308.0303,1001.2425 " fill="none" id="AdminActor-to-UC7" style="stroke:#181818;stroke-width:1.0;"/><polygon fill="#181818" points="313.87,1002.62,306.0288,996.6605,309.0036,1001.472,304.1921,1004.4468,313.87,1002.62" style="stroke:#181818;stroke-width:1.0;"/></g><!--SRC=[RPFTQjmm48NlzHJ3NhNGj3I_K6Z12Q4KaiMmB2cbDsDfujLQbemauzYbxrv9QplRU2-ChNC-MsT6OqNF7hm1AykT1o4jSI-DPgwIka6BDJJ8Aonfutj546tKfIB6a7jZORKTUb-PJijg1UXWwyXcqPdyJDHII-SjXcL2al8VixxD8Sj_97TTD5aZ9-V-xXP-FZuavvuNqM5p1bXjUkUfXk-IMa4lkL4h-CC0tlr2Ew0OK4k2nbZ_J8hgzodVtUS8R2g58jc38avQ8do2a54xhFXUZkXvHBVEOoSJYugiRo7mfgFIZDH5f78Zol19g5hhJ0STgjQF_cNqd_eYr9Fa_WCCrWY58670of9hGU1COyIprfiQVSy77IieRDe_tAfsZxpdkt6ZwQKY5TLhlhD6om7v7Y5qTRBv2JkqThB58Q7h97b5SQUkF-GQoyaVrXCRJlvDWrDHM4zDkreSW3MT7FQln7Ka7aEGSCIcIqmxJz5SqmtxozWyJd1szYqTtblbVA5SB9HB5Yxuc1uHle3KN8M1ELABaoeTgInH1vq7dLuyQV5REzDQJl0rjlkO4QUOq7EMte-vnabFR5nFy_twVupnhvRIzLAw-GS0]--></g></svg>